<svg width="79" height="79" viewBox="0 0 79 79" fill="none" xmlns="http://www.w3.org/2000/svg">
<path d="M39.5 0C17.696 0 0 17.696 0 39.5C0 61.304 17.696 79 39.5 79C61.304 79 79 61.304 79 39.5C79 17.696 61.304 0 39.5 0ZM39.5 11.85C46.057 11.85 51.35 17.143 51.35 23.7C51.35 30.257 46.057 35.55 39.5 35.55C32.943 35.55 27.65 30.257 27.65 23.7C27.65 17.143 32.943 11.85 39.5 11.85ZM39.5 67.94C34.8068 67.94 30.1866 66.7786 26.0514 64.5593C21.9161 62.3401 18.3943 59.1319 15.8 55.221C15.9185 47.3605 31.6 43.055 39.5 43.055C47.3605 43.055 63.0815 47.3605 63.2 55.221C60.6057 59.1319 57.0839 62.3401 52.9487 64.5593C48.8134 66.7786 44.1932 67.94 39.5 67.94Z" fill="black"/>
</svg>
