<svg width="265" height="184" viewBox="0 0 265 184" fill="none" xmlns="http://www.w3.org/2000/svg">
<path d="M240.273 164.021H48.012C45.5943 164.137 43.2287 163.293 41.4309 161.675C39.6331 160.057 38.5488 157.794 38.4143 155.381V9.54495C38.5488 7.13166 39.6331 4.86928 41.4309 3.25091C43.2287 1.63255 45.5943 0.789393 48.012 0.905255H240.273C242.695 0.782964 245.066 1.62323 246.869 3.24227C248.672 4.8613 249.76 7.12737 249.894 9.54495V155.287C249.84 156.492 249.547 157.675 249.034 158.767C248.52 159.859 247.795 160.839 246.901 161.65C246.007 162.462 244.961 163.089 243.824 163.496C242.686 163.903 241.48 164.081 240.273 164.021V164.021Z" fill="#D0D1DE"/>
<path d="M240.273 11.2451H48.0122V153.8H240.273V11.2451Z" fill="white"/>
<path d="M178.654 136.351C208.608 118.52 218.415 79.8187 200.559 49.908C182.703 19.9973 143.946 10.2042 113.992 28.0346C84.0386 45.865 74.2315 84.5667 92.0874 114.477C109.943 144.388 148.701 154.181 178.654 136.351Z" fill="#110239"/>
<path d="M137.302 19.5062C153.936 17.4556 170.72 21.9348 184.039 31.9789C197.359 42.023 206.147 56.8281 208.512 73.2047C210.876 89.5812 206.627 106.218 196.68 119.532C186.732 132.846 171.883 141.771 155.331 144.384L137.302 19.5062Z" fill="#FD425F"/>
<path d="M141.908 145.183H141.601L145.998 82.3915L198.714 47.1719C205.295 56.9649 208.993 68.4046 209.388 80.1913C209.783 91.9779 206.86 103.639 200.951 113.85C195.042 124.061 186.383 132.412 175.959 137.955C165.534 143.498 153.762 146.01 141.979 145.206L141.908 145.183Z" fill="#01C7E2"/>
<path d="M137.984 144.665C141.587 145.154 145.225 145.328 148.858 145.184L146.329 82.1805L83.7549 73.8477C82.6577 82.0534 83.1901 90.3947 85.3218 98.3949C87.4534 106.395 91.1425 113.898 96.1784 120.474C101.214 127.05 107.498 132.571 114.671 136.722C121.845 140.873 129.766 143.572 137.984 144.665V144.665Z" fill="#E5E6ED"/>
<path d="M120.775 97.9726L62.2194 67.2852C57.5411 76.1808 54.9601 86.0263 54.6733 96.0699C54.3865 106.114 56.4016 116.09 60.5646 125.237L120.775 97.9726Z" fill="#01C7E2"/>
<path d="M152.641 88.412L216.208 76.916C216.722 79.6529 217.054 82.4208 217.201 85.2016C217.837 96.7012 215.354 108.159 210.014 118.368L152.641 88.412Z" fill="#FD425F"/>
<path d="M63.6616 65.9395C62.0462 66.0005 60.4843 66.534 59.17 67.4738C57.9203 68.1053 56.6041 68.5961 55.2458 68.9374C55.39 69.7175 55.4847 70.5059 55.5295 71.2979C55.5295 71.2979 57.728 70.9202 57.8935 70.8494C58.6263 70.6134 59.1937 70.0232 60.0447 70.2593C60.4526 70.4001 60.8416 70.5903 61.203 70.8258C61.6522 71.0618 62.7632 72.1477 63.307 71.9353C63.8507 71.7228 62.7869 70.6842 62.645 70.4245C62.5032 70.1649 62.5032 69.3387 63.0942 69.4803C63.6852 69.6219 65.34 70.6842 66.2146 70.2829C67.0893 69.8816 63.8507 68.7721 63.2833 68.3944C64.2053 68.8901 67.302 69.8107 67.5384 69.2678C68.0349 68.2527 64.749 67.6863 63.8507 67.2614C64.6379 67.69 65.5338 67.8787 66.4274 67.8043C67.6566 67.3557 64.3235 66.1991 63.6616 65.9395Z" fill="#F88667"/>
<path d="M60.2812 126.11C58.6956 125.86 57.2172 125.155 56.0261 124.08C54.8592 123.301 53.6058 122.659 52.291 122.168C52.5354 121.397 52.7173 120.608 52.8347 119.808C52.8347 119.808 54.9859 120.445 55.1987 120.539C55.9079 120.846 56.4043 121.507 57.279 121.366C57.7044 121.274 58.1172 121.131 58.5082 120.941C58.981 120.752 60.1867 119.784 60.7067 120.067C61.2268 120.351 60.0448 121.248 59.8793 121.484C59.7139 121.72 59.6193 122.57 60.2339 122.475C60.8486 122.381 62.5979 121.554 63.4016 122.05C64.2054 122.546 60.8958 123.278 60.2576 123.585C61.2504 123.207 64.4181 122.64 64.6073 123.207C64.9855 124.293 61.6523 124.458 60.7067 124.788C61.5377 124.448 62.4522 124.366 63.3307 124.552C64.4418 125.213 61.085 125.922 60.2812 126.11Z" fill="#F88667"/>
<path d="M22.2686 93.4167C23.4191 94.3163 24.8529 94.777 26.3128 94.7165C27.7728 94.6559 29.1633 94.078 30.2352 93.0863C33.9229 89.7815 40.7548 83.644 42.9769 81.968C46.0737 79.6074 59.9738 70.8969 59.9738 70.8969L57.8699 67.002C57.8699 67.002 40.5657 74.6266 38.1308 76.5623C35.6959 78.498 21.5831 86.996 20.8975 90.4424C20.8326 91.0159 20.926 91.5963 21.1677 92.1205C21.4093 92.6448 21.7901 93.0931 22.2686 93.4167V93.4167Z" fill="#FD425F"/>
<path d="M22.2686 93.4167C23.4191 94.3163 24.8529 94.777 26.3128 94.7165C27.7728 94.6559 29.1633 94.078 30.2352 93.0863C33.9229 89.7815 40.7548 83.644 42.9769 81.968C46.0737 79.6074 59.9738 70.8969 59.9738 70.8969L57.8699 67.002C57.8699 67.002 40.5657 74.6266 38.1308 76.5623C35.6959 78.498 21.5831 86.996 20.8975 90.4424C20.8326 91.0159 20.926 91.5963 21.1677 92.1205C21.4093 92.6448 21.7901 93.0931 22.2686 93.4167V93.4167Z" fill="#E42244"/>
<path d="M24.7508 76.4668L25.0345 76.7501C25.8776 77.6337 26.8127 78.4251 27.824 79.1106C28.5448 79.4422 29.2472 79.8126 29.9279 80.2201L30.5898 80.6922C30.0625 83.3543 29.7464 86.0537 29.6442 88.7653C29.6442 88.7653 24.0889 88.3877 22.0559 86.1452C23.2394 83.0051 24.1413 79.7662 24.7508 76.4668Z" fill="#F88667"/>
<path d="M30.3535 82.4867L30.6372 80.7635L29.9753 80.2914C29.2945 79.8839 28.5922 79.5135 27.8713 79.1819C26.8601 78.4963 25.925 77.705 25.0819 76.8213L24.7982 76.5381C24.194 79.8541 23.292 83.1091 22.1033 86.2636C22.9769 87.12 24.0615 87.7307 25.2473 88.0341C25.401 86.6888 25.9782 85.427 26.8958 84.4301C27.8134 83.4332 29.024 82.7528 30.3535 82.4867V82.4867Z" fill="#E45940"/>
<path d="M27.8474 175.541C27.8474 175.541 27.9893 181.088 28.8639 181.843C29.7386 182.599 40.6837 182.929 41.7002 181.843C42.7167 180.757 42.1021 179.129 39.7381 178.468C37.3742 177.807 35.9558 178.468 34.3483 177.807C32.7408 177.146 33.19 174.785 33.19 174.785L27.8474 175.541Z" fill="#110239"/>
<path d="M0.496398 175.352C0.496398 175.352 -0.354628 180.758 0.496398 181.537C1.34742 182.316 12.5762 183.213 13.5691 182.245C14.562 181.277 14.0655 179.554 11.7252 178.798C9.38489 178.043 7.99015 178.515 6.38266 177.925C4.77517 177.335 5.95715 174.88 5.95715 174.88L0.496398 175.352Z" fill="#110239"/>
<path d="M8.65211 144.311C8.471 134.03 9.2625 123.756 11.0161 113.624C12.9046 113.608 14.7772 113.969 16.5241 114.686C19.8809 116.22 23.285 117.684 26.6655 119.171C22.8756 128.3 19.7163 137.678 17.2097 147.238C16.3113 151.959 6.21724 176.651 6.21724 176.651L0.118213 175.895C0.0945733 171.835 8.65211 145.656 8.65211 144.311Z" fill="#D0D1DE"/>
<path d="M21.1572 116.786C22.9338 117.628 24.757 118.369 26.618 119.005C23.2341 127.196 20.3217 135.574 17.8949 144.097C17.0439 141.524 12.907 135.293 11.2995 128.447C10.2373 123.88 10.0687 119.151 10.8031 114.52V114.52C14.3737 114.557 17.8983 115.328 21.1572 116.786V116.786Z" fill="#B8B9CD"/>
<path d="M16.5947 115.96C18.9587 116.762 23.3084 117.895 26.5943 119.075C28.9583 124.812 35.601 138.385 36.0501 144.522C36.452 151.274 34.0881 176.909 34.0881 176.909H26.9962C26.9962 176.909 26.3343 148.016 25.365 146.222C22.1264 140.085 18.5805 135.245 16.5475 131.421C14.155 127.203 12.4325 122.64 11.4413 117.895C11.1813 116.573 10.0229 112.135 12.2687 110.813C14.0653 111.286 14.609 115.275 16.5947 115.96Z" fill="#D0D1DE"/>
<path d="M29.1242 120.492C25.4081 121.9 21.4389 122.519 17.4699 122.31C14.3797 122.329 11.3198 121.701 8.48682 120.469C8.48682 120.469 11.1581 99.6485 14.2549 93.0861C14.9786 91.2762 16.0804 89.641 17.4867 88.2896C18.893 86.9383 20.5715 85.9017 22.4105 85.249C24.6245 86.5633 27.1035 87.3696 29.6679 87.6096C29.6679 87.6096 29.6679 100.404 29.337 105.526C29.006 110.649 29.1242 120.492 29.1242 120.492Z" fill="#FD425F"/>
<path d="M29.4078 103.543C29.4078 102.977 29.4078 102.387 29.4078 101.749V101.608C29.4078 101.017 29.4078 100.38 29.4078 99.7427V99.247C29.4078 98.5388 29.4078 97.807 29.4078 97.0989C29.1483 97.1223 28.8872 97.1223 28.6277 97.0989C26.7076 96.5464 24.8938 95.6767 23.2615 94.5259C22.9641 94.3499 22.6562 94.1922 22.3395 94.0537C22.3287 96.8593 22.8005 99.646 23.7343 102.292C25.4317 108.634 25.778 115.26 24.7508 121.743C26.263 121.434 27.7489 121.008 29.195 120.469C29.195 120.469 29.195 110.507 29.4078 105.408C29.4078 104.96 29.4078 104.417 29.4078 103.874V103.543Z" fill="#E42244"/>
<path d="M53.7564 124.388L56.1204 119.525C50.3081 115.856 44.7769 111.761 39.5727 107.273C35.1284 102.788 30.3059 93.6766 26.9255 93.1101C23.545 92.5435 20.1173 94.4084 22.1975 99.1296C24.2778 103.851 34.0174 110.106 36.1449 112.16C41.7897 116.551 47.6688 120.633 53.7564 124.388V124.388Z" fill="#FD425F"/>
<path d="M23.0958 67.0014C23.0958 67.0014 32.0788 65.9628 32.6934 67.4736C33.3081 68.9843 33.4499 73.2333 34.0409 74.1303C34.6319 75.0273 35.672 76.0896 35.2702 76.6798C34.8683 77.2699 34.4428 77.1047 34.2064 77.7656C33.97 78.4266 34.0409 82.0855 32.8589 82.6284C31.6769 83.1713 25.6252 82.8409 23.4031 79.4181C21.181 75.9952 18.7461 67.3083 23.0958 67.0014Z" fill="#F88667"/>
<path d="M20.8973 67.828L26.8545 70.5898C26.816 72.8479 27.3442 75.0796 28.3911 77.0814C28.3911 77.0814 27.8474 77.9077 27.3037 77.4356C27.0165 77.2714 26.7711 77.0433 26.5866 76.769C26.4021 76.4947 26.2834 76.1815 26.2399 75.8539C26.098 75.0041 25.578 72.6908 24.0177 73.8239C22.4575 74.957 24.0178 76.326 24.9161 76.6565C24.9161 76.6565 26.169 81.1888 23.7814 80.8583C23.7814 80.8583 21.5592 79.4656 19.6444 74.0363C17.7296 68.607 19.3607 66.813 20.8973 67.828Z" fill="#110239"/>
<path d="M35.2938 65.8679C35.2938 65.8679 37.4214 68.913 32.4807 70.9667C27.54 73.0204 20.4009 67.6148 20.4009 67.6148C20.4009 67.6148 20.59 64.9473 24.5378 63.7907C27.4928 62.9408 30.2586 63.0589 31.7479 64.7585C34.3246 67.662 35.2938 65.8679 35.2938 65.8679Z" fill="#110239"/>
<path d="M247.01 78.4746C246.939 78.5825 246.86 78.685 246.774 78.7814C245.978 79.6516 245.099 80.4422 244.15 81.142C243.583 81.5433 242.661 81.8266 242.164 82.2515C241.963 82.4239 241.75 82.5817 241.526 82.7236C242.123 85.2766 242.51 87.874 242.684 90.4899C242.684 90.4899 248.003 89.9469 249.894 87.728C248.661 84.7348 247.696 81.6382 247.01 78.4746V78.4746Z" fill="#F88667"/>
<path d="M247.128 79.2539L246.892 79.5372C246.108 80.4194 245.228 81.2112 244.268 81.8977C243.701 82.3226 242.779 82.6059 242.282 83.0308L241.644 83.5029L241.928 84.9193C243.374 84.8605 244.798 85.2963 245.962 86.1547C247.127 87.0132 247.964 88.2428 248.334 89.6404C248.942 89.3447 249.487 88.9362 249.942 88.4366C248.736 85.464 247.795 82.3912 247.128 79.2539V79.2539Z" fill="#E45940"/>
<path d="M238.878 174.785C238.878 174.785 239.162 180.12 238.382 180.899C237.602 181.678 227.059 182.835 226.066 181.938C225.073 181.041 225.498 179.365 227.72 178.562C229.943 177.759 231.337 178.279 232.803 177.523C234.269 176.768 233.701 174.384 233.701 174.384L238.878 174.785Z" fill="#110239"/>
<path d="M264.007 174.643C264.007 174.643 265.496 179.671 264.787 180.544C264.078 181.417 253.487 183.613 252.424 182.905C251.36 182.196 251.596 180.402 253.748 179.411C255.899 178.419 257.341 178.774 258.735 177.9C260.13 177.027 259.326 174.713 259.326 174.713L264.007 174.643Z" fill="#110239"/>
<path d="M263.18 143.886C263.636 133.98 263.153 124.053 261.738 114.237C259.924 114.173 258.116 114.47 256.419 115.111C253.157 116.503 249.847 117.825 246.561 119.171C249.973 128.065 252.769 137.182 254.93 146.459C255.686 151.18 258.925 176.627 258.925 176.627L264.953 176.415C265 172.543 263.133 145.161 263.18 143.886Z" fill="#FD425F"/>
<path d="M251.833 117.117C250.103 117.868 248.336 118.53 246.538 119.1C249.925 127.964 252.728 137.041 254.93 146.27C255.828 143.91 259.303 135.057 261.005 128.519C262.141 124.152 262.422 119.607 261.832 115.134V115.134C258.398 115.097 254.993 115.772 251.833 117.117V117.117Z" fill="#E01F41"/>
<path d="M256.49 114.048C254.126 114.779 250.013 115.818 246.845 116.88C243.08 125.746 239.867 134.836 237.224 144.098C235.64 152.1 232.969 175.871 232.969 175.871L239.753 176.768C239.753 176.768 246.561 144.829 247.554 143.059C250.745 137.228 254.268 132.625 256.277 129.014C259.26 124.055 261.243 118.562 262.116 112.844C260.32 113.198 258.428 113.41 256.49 114.048Z" fill="#FD425F"/>
<path d="M215.38 73.6817C216.019 73.6817 217.484 75.4993 218.194 76.8448C218.872 77.8824 219.665 78.8405 220.557 79.7011C220.098 80.236 219.68 80.8041 219.305 81.4007C219.305 81.4007 217.744 80.126 217.603 79.9843C217.13 79.465 216.941 78.7568 216.161 78.568C215.775 78.532 215.387 78.532 215.002 78.568C214.553 78.568 213.206 78.9457 212.875 78.568C212.544 78.1903 213.82 77.8126 214.057 77.6709C214.293 77.5293 214.648 76.8684 214.057 76.7267C213.466 76.5851 211.693 76.7268 211.267 75.9714C210.842 75.216 213.773 75.8298 214.411 75.8062C213.466 75.8062 210.629 75.1452 210.676 74.6259C210.676 73.5872 213.56 74.6259 214.458 74.6259C213.616 74.6401 212.79 74.3926 212.094 73.9177C211.598 73.0206 214.742 73.6108 215.38 73.6817Z" fill="#F88667"/>
<path d="M256.584 97.5711C256.768 96.1788 256.451 94.7666 255.689 93.5863C254.927 92.406 253.77 91.5343 252.424 91.1267C247.885 89.6868 239.493 86.9958 236.987 85.9807C233.489 84.588 219.518 77.3174 219.518 77.3174L217.154 80.9527C217.154 80.9527 231.952 91.5516 234.741 92.7555C237.531 93.9594 251.526 101.442 254.646 100.239C255.196 100.034 255.674 99.6721 256.019 99.1975C256.364 98.7229 256.561 98.157 256.584 97.5711V97.5711Z" fill="#01C7E2"/>
<path d="M256.584 97.5711C256.768 96.1788 256.451 94.7666 255.689 93.5863C254.927 92.406 253.77 91.5343 252.424 91.1267C247.885 89.6868 239.493 86.9958 236.987 85.9807C233.489 84.588 219.518 77.3174 219.518 77.3174L217.154 80.9527C217.154 80.9527 231.952 91.5516 234.741 92.7555C237.531 93.9594 251.526 101.442 254.646 100.239C255.196 100.034 255.674 99.6721 256.019 99.1975C256.364 98.7229 256.561 98.157 256.584 97.5711V97.5711Z" fill="#01C7E2"/>
<path d="M244.055 120.917C247.706 121.35 251.396 121.35 255.047 120.917C259.161 120.398 262.896 118.887 263.771 117.329C263.771 117.329 260.745 100.286 257.601 94.0774C256.848 92.3624 255.741 90.8258 254.352 89.5687C252.963 88.3115 251.322 87.3622 249.539 86.7832C247.433 88.07 245.068 88.876 242.613 89.1438C242.613 89.1438 243.062 101.442 243.44 106.352C243.819 111.262 244.055 120.917 244.055 120.917Z" fill="#01C7E2"/>
<path d="M248.807 103.283C249.64 100.717 250.016 98.0243 249.918 95.3281C249.617 95.467 249.325 95.6248 249.043 95.8003C247.44 96.9728 245.65 97.8667 243.748 98.4441C243.496 98.4569 243.244 98.4569 242.992 98.4441C243.134 101.418 243.299 104.464 243.441 106.376C243.819 111.286 244.055 120.846 244.055 120.846C244.055 120.846 245.592 121.058 247.838 121.153C246.467 115.771 247.554 109.114 248.807 103.283Z" fill="#00A7CC"/>
<path d="M249.445 72.8552C249.445 72.8552 246.963 68.1341 243.937 68.5117C240.911 68.8894 237.956 69.7156 237.602 70.8723C237.247 72.029 237.602 74.6492 236.964 75.8767C236.325 77.1042 234.765 78.8038 235.261 79.2759C235.758 79.7481 236.514 80.291 236.633 80.5034C237.004 82.1025 237.592 83.6433 238.382 85.0829C241.163 84.6168 243.708 83.2379 245.616 81.1644C246.538 79.3467 249.847 75.9239 249.445 72.8552Z" fill="#F88667"/>
<path d="M244.859 68.5605C244.859 68.5605 242.495 75.3117 236.373 74.7452C235.973 73.9884 235.764 73.1457 235.764 72.2902C235.764 71.4346 235.973 70.592 236.373 69.8352C237.423 68.6786 238.842 67.92 240.388 67.6877C241.935 67.4554 243.514 67.7637 244.859 68.5605V68.5605Z" fill="#110239"/>
<path d="M263.771 93.3213C263.589 91.8434 263.105 90.4185 262.349 89.1352C261.593 87.852 260.58 86.7378 259.374 85.8619C256.544 83.5084 254.506 80.3444 253.535 76.7973C252.566 73.3509 253.039 69.9989 249.705 67.5911C248.454 66.9102 247.034 66.5976 245.611 66.6895C244.189 66.7815 242.822 67.2741 241.668 68.1104C241.668 68.2285 241.668 68.3465 241.668 68.4645C241.668 68.5825 239.304 70.5891 243.015 73.6106C243.929 74.485 244.611 75.5718 245.001 76.7738C245.177 76.4246 245.437 76.1244 245.758 75.9003C245.839 75.8131 245.938 75.7437 246.048 75.6961C246.158 75.6486 246.276 75.6241 246.396 75.6241C246.516 75.6241 246.634 75.6486 246.744 75.6961C246.853 75.7437 246.952 75.8131 247.034 75.9003C247.743 76.6321 246.68 77.9776 246.018 78.0721C245.834 78.1619 245.673 78.2908 245.545 78.4498C246.407 81.4277 246.938 84.4912 247.129 87.5852C247.321 88.9694 247.931 90.2624 248.878 91.2913C249.895 92.566 250.627 92.6132 251.242 94.1475C251.857 95.6819 250.58 99.6241 253.606 101.465C255.322 102.099 257.184 102.231 258.972 101.843C263.18 100.497 264.149 97.4759 263.771 93.3213Z" fill="#110239"/>
<path d="M214.955 114.496C214.213 114.822 213.398 114.952 212.591 114.874C212.211 114.778 211.813 114.778 211.433 114.874C210.985 114.921 210.533 114.921 210.085 114.874C209.645 114.812 209.196 114.869 208.785 115.039C208.312 115.322 208.785 115.676 209.352 115.842C209.92 116.007 211.409 115.629 211.716 116.125C212.024 116.621 210.038 116.951 209.66 117.022C208.738 117.187 208.289 116.644 207.485 116.385C206.681 116.125 206.776 116.385 206.941 116.857C207.107 117.329 207.532 117.423 207.887 117.565C208.628 117.898 209.44 118.043 210.251 117.99C209.46 118.097 208.655 118.041 207.887 117.825C207.461 117.825 205.736 116.951 205.523 117.588C205.05 118.91 209.282 119.406 210.038 119.17C209.255 119.293 208.457 119.293 207.674 119.17C207.201 119.17 206.137 118.958 206.516 119.689C206.894 120.421 209.447 120.114 210.582 119.996C209.89 120.253 209.166 120.412 208.431 120.468C207.461 120.61 207.91 121.271 208.927 121.271C209.418 121.259 209.908 121.212 210.393 121.129C212.031 120.827 213.525 119.998 214.648 118.769C215.144 118.297 216.563 118.013 216.633 117.423C216.799 116.314 215.546 115.275 214.955 114.496Z" fill="#F88667"/>
<path d="M215.12 119.005L213.182 114.543C213.182 114.543 225.758 107.273 230.722 103.401C235.687 99.53 241.62 91.1263 245.048 90.9847C248.476 90.8431 251.644 93.1328 249.09 97.5471C246.537 101.961 235.9 106.989 233.63 108.689C227.641 112.441 221.463 115.884 215.12 119.005Z" fill="#01C7E2"/>
</svg>
