<svg width="210" height="125" viewBox="0 0 210 125" fill="none" xmlns="http://www.w3.org/2000/svg">
<path d="M107 73.6968H93.3689L94.4939 57.2625H105.885L107 73.6968Z" fill="#110239"/>
<path d="M108.791 71.0625C108.706 70.9438 108.596 70.8465 108.467 70.7781C108.338 70.7098 108.196 70.6724 108.05 70.6687H92.3283C92.1815 70.6659 92.0365 70.7006 91.9069 70.7695C91.7773 70.8384 91.6674 70.9392 91.5876 71.0625L89.5252 74.1281C89.4496 74.2649 89.4094 74.4184 89.4082 74.5747C89.4071 74.731 89.4451 74.8851 89.5187 75.023C89.5923 75.1609 89.6991 75.2782 89.8296 75.3642C89.9601 75.4502 90.11 75.5023 90.2658 75.5156H110.103C110.259 75.5023 110.409 75.4502 110.539 75.3642C110.67 75.2782 110.777 75.1609 110.85 75.023C110.924 74.8851 110.962 74.731 110.961 74.5747C110.96 74.4184 110.92 74.2649 110.844 74.1281L108.791 71.0625Z" fill="#110239"/>
<path d="M133.559 11.7469H66.8188C64.7011 11.7469 62.9844 13.4636 62.9844 15.5813V57.7969C62.9844 59.9145 64.7011 61.6312 66.8188 61.6312H133.559C135.677 61.6312 137.394 59.9145 137.394 57.7969V15.5813C137.394 13.4636 135.677 11.7469 133.559 11.7469Z" fill="#110239"/>
<path d="M133.963 15.0562H66.4062V57.8156H133.963V15.0562Z" fill="#FEFEFE"/>
<path d="M132.275 19.7156H68.0938V57.8156H132.275V19.7156Z" fill="#E5E6ED"/>
<path d="M132.275 19.7156H68.0938V22.8656H132.275V19.7156Z" fill="#B3EEF6"/>
<path d="M129.162 33.1406H109.231V35.775H129.162V33.1406Z" fill="#FEFEFE"/>
<path d="M129.162 37.7906H109.231V40.425H129.162V37.7906Z" fill="#FEFEFE"/>
<path d="M129.162 42.45H109.231V45.0843H129.162V42.45Z" fill="#FEFEFE"/>
<path d="M93.9501 26.025H74.0188V28.6593H93.9501V26.025Z" fill="#FEFEFE"/>
<path d="M93.9501 30.675H74.0188V33.3094H93.9501V30.675Z" fill="#FEFEFE"/>
<path d="M93.0124 31.4906H55.3812C54.7512 31.4931 54.148 31.7451 53.7034 32.1914C53.2589 32.6377 53.0093 33.242 53.0093 33.8719V46.0125C53.0093 46.3252 53.0709 46.6348 53.1906 46.9238C53.3102 47.2127 53.4856 47.4752 53.7067 47.6963C53.9279 47.9174 54.1904 48.0928 54.4793 48.2125C54.7682 48.3322 55.0778 48.3937 55.3905 48.3937H78.9687L87.9499 56.0344L83.6843 48.3937H93.0593C93.6917 48.3938 94.2984 48.1432 94.7464 47.6969C95.1945 47.2506 95.4474 46.6449 95.4499 46.0125V33.8719C95.4487 33.5548 95.3845 33.241 95.2609 32.949C95.1373 32.6569 94.9568 32.3924 94.7299 32.1708C94.5031 31.9491 94.2344 31.7749 93.9395 31.6581C93.6446 31.5414 93.3295 31.4844 93.0124 31.4906Z" fill="#FD425F"/>
<path d="M92.5437 34.7625H67.1843V36.225H92.5437V34.7625Z" fill="white"/>
<path d="M92.5437 37.7437H67.1843V39.2062H92.5437V37.7437Z" fill="white"/>
<path d="M92.5437 40.725H67.1843V42.1875H92.5437V40.725Z" fill="white"/>
<path d="M84.0125 43.6968H67.1843V45.1593H84.0125V43.6968Z" fill="white"/>
<path d="M65.1969 39.6843C65.1969 40.6522 64.9099 41.5984 64.3722 42.4032C63.8345 43.208 63.0702 43.8352 62.1759 44.2056C61.2817 44.576 60.2977 44.6729 59.3485 44.4841C58.3992 44.2953 57.5272 43.8292 56.8428 43.1448C56.1584 42.4604 55.6923 41.5884 55.5035 40.6391C55.3146 39.6898 55.4115 38.7058 55.7819 37.8116C56.1523 36.9174 56.7796 36.1531 57.5843 35.6153C58.3891 35.0776 59.3353 34.7906 60.3032 34.7906C60.9462 34.7894 61.5831 34.9151 62.1774 35.1606C62.7717 35.4061 63.3117 35.7665 63.7663 36.2212C64.221 36.6759 64.5814 37.2159 64.8269 37.8101C65.0724 38.4044 65.1982 39.0413 65.1969 39.6843Z" fill="#110239"/>
<path d="M60.2751 39.6562C61.0362 39.6562 61.6532 39.0182 61.6532 38.2312C61.6532 37.4442 61.0362 36.8062 60.2751 36.8062C59.514 36.8062 58.897 37.4442 58.897 38.2312C58.897 39.0182 59.514 39.6562 60.2751 39.6562Z" fill="white"/>
<path d="M60.3032 39.8718C59.9806 39.8718 59.6612 39.9354 59.3632 40.0588C59.0652 40.1823 58.7944 40.3632 58.5663 40.5913C58.3382 40.8194 58.1573 41.0901 58.0339 41.3881C57.9105 41.6861 57.8469 42.0055 57.8469 42.3281V43.8843C58.5928 44.338 59.4489 44.578 60.3219 44.578C61.1949 44.578 62.0511 44.338 62.7969 43.8843V42.3281C62.7982 42.002 62.7343 41.6789 62.609 41.3779C62.4837 41.0768 62.2994 40.8038 62.0671 40.575C61.8348 40.3462 61.5591 40.1661 61.2562 40.0453C60.9532 39.9246 60.6292 39.8656 60.3032 39.8718Z" fill="white"/>
<path d="M138.678 0H101.038C100.725 0 100.415 0.0615911 100.126 0.18126C99.8373 0.300929 99.5748 0.476326 99.3537 0.697446C99.1326 0.918565 98.9572 1.18107 98.8375 1.46998C98.7178 1.75889 98.6563 2.06853 98.6562 2.38124V14.5594C98.6562 14.8721 98.7178 15.1817 98.8375 15.4706C98.9572 15.7595 99.1326 16.022 99.3537 16.2432C99.5748 16.4643 99.8373 16.6397 100.126 16.7593C100.415 16.879 100.725 16.9406 101.038 16.9406H111.941L109.016 24.5812L116.656 16.9406H138.678C139.31 16.9406 139.915 16.6897 140.362 16.2432C140.809 15.7966 141.059 15.1909 141.059 14.5594V2.37187C141.057 1.74195 140.805 1.13867 140.359 0.694127C139.912 0.249582 139.308 -4.88188e-06 138.678 0Z" fill="#D0D1DE"/>
<path d="M138.2 3.27185H112.841V4.73435H138.2V3.27185Z" fill="white"/>
<path d="M138.2 6.25311H112.841V7.71561H138.2V6.25311Z" fill="white"/>
<path d="M138.2 9.23438H112.841V10.6969H138.2V9.23438Z" fill="white"/>
<path d="M129.669 12.2062H112.841V13.6687H129.669V12.2062Z" fill="white"/>
<path d="M110.825 8.19373C110.825 9.16162 110.538 10.1078 110 10.9126C109.463 11.7173 108.698 12.3446 107.804 12.715C106.91 13.0854 105.926 13.1823 104.977 12.9935C104.027 12.8046 103.155 12.3385 102.471 11.6541C101.787 10.9697 101.32 10.0977 101.132 9.14845C100.943 8.19916 101.04 7.21519 101.41 6.32098C101.781 5.42676 102.408 4.66248 103.213 4.12474C104.017 3.58701 104.963 3.3 105.931 3.3C106.574 3.29876 107.211 3.42449 107.806 3.66998C108.4 3.91548 108.94 4.27591 109.395 4.73058C109.849 5.18525 110.21 5.72522 110.455 6.31952C110.701 6.91381 110.826 7.55073 110.825 8.19373Z" fill="#110239"/>
<path d="M107.319 6.73123C107.313 7.00439 107.227 7.26984 107.072 7.49428C106.916 7.71872 106.697 7.89218 106.443 7.9929C106.189 8.09362 105.911 8.11711 105.644 8.06043C105.377 8.00376 105.132 7.86944 104.941 7.67432C104.75 7.47921 104.62 7.23197 104.569 6.96362C104.518 6.69527 104.547 6.41775 104.652 6.16585C104.758 5.91395 104.936 5.69889 105.164 5.54764C105.391 5.39639 105.658 5.31567 105.931 5.31561C106.303 5.32056 106.657 5.47218 106.917 5.7374C107.177 6.00261 107.321 6.35988 107.319 6.73123Z" fill="white"/>
<path d="M105.959 8.37189H105.913C105.261 8.37189 104.636 8.63068 104.176 9.09132C103.715 9.55196 103.456 10.1767 103.456 10.8281V12.3844C104.204 12.8379 105.062 13.0777 105.936 13.0777C106.81 13.0777 107.668 12.8379 108.416 12.3844V10.8094C108.411 10.1612 108.15 9.54127 107.69 9.08468C107.23 8.62809 106.608 8.37187 105.959 8.37189Z" fill="white"/>
<path d="M128.131 49.35H113.197C111.985 49.35 111.003 50.3322 111.003 51.5437V53.2875C111.003 54.499 111.985 55.4812 113.197 55.4812H128.131C129.343 55.4812 130.325 54.499 130.325 53.2875V51.5437C130.325 50.3322 129.343 49.35 128.131 49.35Z" fill="#FD425F"/>
<path d="M118.728 51.6562C118.73 51.8068 118.679 51.9533 118.585 52.0711C118.491 52.1889 118.36 52.2708 118.213 52.3031C118.388 52.3365 118.546 52.4313 118.657 52.5704C118.769 52.7096 118.827 52.8841 118.822 53.0625C118.822 53.5687 118.372 53.8968 117.669 53.8968H116.197V50.9062H117.613C118.297 50.9062 118.728 51.1968 118.728 51.6562ZM117.922 51.7968C117.922 51.6187 117.791 51.5062 117.575 51.5156H116.975V52.0593H117.575C117.791 52.0593 117.922 51.9843 117.922 51.7968ZM118.016 52.9593C118.016 52.7812 117.847 52.6593 117.575 52.6593H116.975V53.2874H117.575C117.847 53.2874 118.016 53.1656 118.016 52.9968V52.9593Z" fill="white"/>
<path d="M120.584 53.2593C120.665 53.2624 120.745 53.2482 120.819 53.2177C120.894 53.1872 120.961 53.141 121.016 53.0824C121.071 53.0237 121.113 52.9539 121.139 52.8777C121.165 52.8015 121.174 52.7206 121.166 52.6406V50.9062H121.944V52.6406C121.953 52.8182 121.923 52.9957 121.857 53.1608C121.791 53.3259 121.69 53.4746 121.561 53.5967C121.431 53.7189 121.277 53.8115 121.109 53.8682C120.94 53.9248 120.761 53.9442 120.584 53.9249C120.406 53.9453 120.225 53.9269 120.055 53.871C119.884 53.8152 119.728 53.7231 119.596 53.6012C119.464 53.4792 119.36 53.3302 119.291 53.1645C119.223 52.9987 119.19 52.82 119.197 52.6406V50.9062H119.975V52.6406C119.97 52.7224 119.982 52.8045 120.01 52.8814C120.039 52.9583 120.083 53.0282 120.141 53.0867C120.198 53.1451 120.268 53.1907 120.344 53.2205C120.421 53.2502 120.502 53.2635 120.584 53.2593Z" fill="white"/>
<path d="M124.044 52.9406V53.8781H123.266V52.9406L122.159 50.8875H122.947L123.65 52.1718L124.344 50.8875H125.122L124.044 52.9406Z" fill="white"/>
<path d="M102.463 29.8875C101.468 30.0737 100.452 30.121 99.4438 30.0281C99.0828 29.9913 98.7273 29.9126 98.3844 29.7938C98.4313 31.05 98.4407 33.9938 97.55 35.2125C97.55 35.2125 97.8688 36.6656 100.484 36.7125C103.1 36.7594 103.4 34.7813 103.4 34.7813C102.932 33.1837 102.618 31.545 102.463 29.8875Z" fill="#F88667"/>
<path d="M97.5594 35.2593C97.5569 35.2936 97.5569 35.3281 97.5594 35.3625C97.5843 35.4142 97.6125 35.4643 97.6437 35.5125L97.775 35.6999C97.9071 35.8627 98.0655 36.0021 98.2437 36.1124C98.3469 36.1781 98.4687 36.2343 98.6 36.3H98.6469C98.7969 36.3616 98.9503 36.4148 99.1063 36.4593C99.1839 35.7735 99.4536 35.1236 99.8844 34.5843C100.609 33.6562 101.663 33.0421 102.828 32.8687C102.578 31.8536 102.418 30.8183 102.35 29.775C101.355 29.9611 100.339 30.0085 99.3312 29.9156C98.9702 29.8787 98.6147 29.8001 98.2719 29.6812C98.3187 30.9375 98.3281 33.8812 97.4375 35.1L97.5594 35.2593Z" fill="#E45940"/>
<path d="M98.8343 22.8375C98.8343 22.8375 103.128 21.5719 103.812 22.6031C104.497 23.6344 104.366 25.3219 104.647 26.0625C104.928 26.8031 105.997 27.5813 106.109 27.8719C106.222 28.1625 105.397 28.7344 105.284 28.9594C105.172 29.1844 104.741 31.6219 103.991 32.1562C103.241 32.6906 99.2562 31.275 98.2718 29.3437C97.2874 27.4125 97.6906 23.4562 98.8343 22.8375Z" fill="#F88667"/>
<path d="M100.822 23.5875C100.874 24.3521 100.719 25.1166 100.372 25.8C100.109 26.3156 101.394 27.675 101.038 28.2937C100.794 28.7062 100.447 28.6031 100.1 27.7875C99.9523 27.5095 99.7042 27.2984 99.4063 27.1969C98.3563 26.7469 98.1125 28.3406 99.05 28.8187C99.7157 29.1469 99.3219 30.8156 99.3219 30.8156C98.6094 31.3594 96.275 30.7031 96.5094 28.9969C96.6782 27.9094 96.7438 27.4969 96.3688 27.2344C96.1179 27.0956 95.9021 26.9012 95.7381 26.666C95.5741 26.4308 95.4663 26.1612 95.4228 25.8778C95.3793 25.5944 95.4014 25.3048 95.4874 25.0312C95.5734 24.7577 95.721 24.5076 95.9188 24.3C97.475 22.7438 96.05 22.2469 97.8594 21.8063C99.6688 21.3656 101.188 22.4531 100.822 23.5875Z" fill="#110239"/>
<path d="M97.5969 22.6687C97.6907 22.275 98.4032 21.7312 98.7594 21.5062C99.3245 21.1093 99.9613 20.826 100.634 20.6718C101.309 20.5004 102.013 20.478 102.697 20.6062C103.288 20.7187 103.775 20.9718 104.375 21.0468C104.63 21.1006 104.894 21.1025 105.15 21.0526C105.406 21.0027 105.649 20.9019 105.866 20.7562C105.972 21.2012 105.997 21.6616 105.941 22.1156C105.787 22.6592 105.526 23.1662 105.172 23.6062C104.588 24.3021 103.805 24.8021 102.928 25.0385C102.051 25.2749 101.123 25.2364 100.269 24.9281C99.4945 24.7286 98.8145 24.2642 98.3469 23.6156C98.142 23.2668 97.8896 22.9481 97.5969 22.6687Z" fill="#110239"/>
<path d="M120.509 25.4719L124.653 34.6687C124.653 34.6687 123.444 36.0281 123.041 35.7281C122.638 35.4281 116.413 27.9656 115.813 27.5719C115.213 27.1781 120.509 25.4719 120.509 25.4719Z" fill="#110239"/>
<path d="M110.197 26.6156C110.197 26.6156 110.197 29.2593 111.828 29.8687C111.828 29.8687 120.116 26.4281 121.785 26.1187C123.453 25.8093 129.519 25.7437 129.519 25.7437L123.406 14.8218C123.406 14.8218 120.472 20.6812 117.781 22.6031C115.37 24.1512 112.833 25.4934 110.197 26.6156Z" fill="#FD425F"/>
<path d="M115.569 28.35C116.225 28.0875 116.909 27.8156 117.584 27.5625C116.704 26.4746 116.105 25.1867 115.841 23.8125C115.212 24.1687 114.566 24.5156 113.966 24.8344C114.192 26.1237 114.743 27.3339 115.569 28.35Z" fill="#110239"/>
<path d="M131.759 17.6156C133.484 21.7781 132.875 25.9875 130.391 26.9906C127.906 27.9937 124.503 25.4812 122.778 21.3656C121.053 17.25 121.663 12.9844 124.147 11.9906C126.631 10.9969 130.053 13.4438 131.759 17.6156Z" fill="#01C7E2"/>
<path d="M131.441 17.7468C132.913 21.2906 132.378 24.8718 130.288 25.7437C128.197 26.6156 125.272 24.4593 123.809 20.9156C122.347 17.3718 122.872 13.7906 124.963 12.9187C127.053 12.0468 129.978 14.2125 131.441 17.7468Z" fill="#110239"/>
<path d="M119.928 32.0906C119.731 31.9688 119.788 31.2281 119.825 31.0406C119.863 30.8531 120.097 30.3469 119.891 30.0563C119.516 29.55 119 30.9188 118.953 31.1156C118.816 31.4083 118.783 31.7391 118.86 32.0531C119.037 32.5001 119.305 32.9054 119.647 33.2437C119.611 33.3896 119.567 33.5336 119.516 33.675C119.86 33.823 120.195 33.9921 120.519 34.1812C120.913 34.4156 120.894 34.6969 121.269 34.9594L121.644 34.0969C121.123 33.3865 120.549 32.7159 119.928 32.0906Z" fill="#F88667"/>
<path d="M122.581 29.0812C122.225 28.6969 121.644 28.8469 121.231 29.1562C120.819 29.4656 120.003 30.0937 120.294 30.6656C120.584 31.2375 121.672 30.1219 121.672 30.1219C121.241 30.4969 120.434 30.7875 120.641 31.1625C120.847 31.5375 121.887 30.9844 122.112 30.825C121.887 30.8812 120.744 31.575 121.175 31.9406C121.484 32.1844 122.328 31.6687 122.581 31.4906C122.244 31.5937 121.784 31.8937 121.869 32.3625C122.019 32.6156 122.525 32.4469 122.806 32.3625C123.237 32.1937 123.641 32.1281 123.678 31.5938C123.687 31.4971 123.687 31.3997 123.678 31.3031C123.636 30.8935 123.508 30.4974 123.303 30.1406C123.109 29.7578 122.867 29.4017 122.581 29.0812Z" fill="#F88667"/>
<path d="M78.95 32.1375C78.7549 31.8148 78.5946 31.4722 78.4718 31.1156C78.3687 30.8063 78.2937 30.4969 78.1906 30.1781C78.0566 29.8837 77.9863 29.5642 77.9843 29.2406C78.0005 29.0533 78.035 28.8681 78.0875 28.6875C78.1531 28.4532 78.2374 28.2281 78.2843 27.9938C78.3312 27.7594 78.2843 27.5719 78.35 27.3657C78.4089 26.9611 78.5324 26.5686 78.7156 26.2032C78.8691 25.9423 79.0481 25.6974 79.2499 25.4719C79.3431 25.3507 79.4466 25.2377 79.5593 25.1344C79.6884 25.046 79.7892 24.9223 79.85 24.7781C79.8673 24.7321 79.8746 24.6829 79.8714 24.6339C79.8683 24.5848 79.8547 24.5369 79.8317 24.4935C79.8086 24.4501 79.7766 24.412 79.7377 24.3819C79.6988 24.3518 79.654 24.3303 79.6062 24.3188C79.3943 24.2767 79.1751 24.2899 78.9698 24.3573C78.7646 24.4246 78.5801 24.5437 78.4343 24.7032C78.1156 25.1344 77.975 25.6406 77.6187 26.0719C76.5593 27.3375 75.5656 25.8469 74.3187 25.3125C73.8938 25.0975 73.4917 24.8399 73.1187 24.5438C72.9031 24.375 71.9468 23.475 71.4968 23.7094C71.0468 23.9438 71.8156 24.6469 72.125 24.825C72.2562 24.9 73.3156 25.7625 73.4562 25.7625C72.8076 25.4945 72.2062 25.1242 71.6749 24.6656C71.2062 24.2906 70.7374 23.9344 70.4937 24.1407C69.6968 24.7875 72.7999 26.2688 73.0343 26.4C72.7812 26.4 70.3531 24.7125 70.1281 25.3406C69.9968 25.6875 70.5031 26.0344 70.9156 26.2781C71.3281 26.5219 72.2937 26.7563 72.4906 26.9063C72.1249 27.0282 70.5218 25.9688 70.5218 26.6063C70.5218 27.0375 71.5156 27.3656 71.8906 27.4781C72.2656 27.5906 73.4187 28.3688 73.7656 28.5469C74.9656 29.1188 75.4625 29.0438 75.9312 29.7656C76.2312 30.225 76.7656 32.6438 77.2062 33.5156L78.95 32.1375Z" fill="#F88667"/>
<path d="M119.263 33.3093C118.194 36.4218 115.906 41.9249 115.156 41.5406C113.741 40.8093 110.694 38.325 108.416 36.7968C107.587 36.2049 106.701 35.6961 105.772 35.2781L107.356 42.7781C107.356 42.7781 114.856 48.4781 116.431 47.6062C117.669 46.9218 120.716 38.2312 121.794 34.6499L119.263 33.3093Z" fill="#01C7E2"/>
<path d="M111.828 44.0437C110.29 42.2882 108.637 40.6377 106.878 39.1031L107.131 42.6656C107.131 42.6656 114.697 48.3562 116.375 47.6531C114.688 46.6831 113.156 45.4666 111.828 44.0437Z" fill="#00A7CC"/>
<path d="M93.0312 35.6906C93.0312 35.6906 83.7968 39.4406 82.7937 39.1593C81.7906 38.8781 78.4343 29.3718 78.4343 29.3718L75.6218 30.5062C75.6218 30.5062 78.6124 44.2406 80.5343 44.8875C82.4562 45.5343 93.9125 42.2156 93.9125 42.2156C93.9907 40.0064 93.6927 37.7999 93.0312 35.6906Z" fill="#01C7E2"/>
<path d="M85.1468 44.025C84.3405 44.3156 83.5062 44.6062 82.6812 44.85C86.4759 44.1751 90.2314 43.2957 93.9312 42.2156C93.969 41.0496 93.9031 39.8825 93.7343 38.7281C91.3246 41.14 88.3836 42.954 85.1468 44.025Z" fill="#00A7CC"/>
<path d="M127.072 20.2875C126.919 19.6929 126.538 19.1824 126.012 18.8666C125.486 18.5507 124.856 18.4549 124.26 18.6C123.883 18.7291 123.556 18.9714 123.322 19.2937C123.455 19.8483 123.633 20.3908 123.856 20.9156C124.217 21.8042 124.696 22.64 125.281 23.4C125.459 23.3941 125.636 23.3657 125.806 23.3156C126.372 23.077 126.821 22.6262 127.058 22.06C127.294 21.4938 127.299 20.8574 127.072 20.2875Z" fill="#D0D1DE"/>
<path d="M93.0407 46.9218C92.722 50.1281 92.4688 56.8687 92.272 57.8062H107.384C107.629 52.8086 107.607 47.8015 107.319 42.8062C107.122 40.2475 106.59 37.7259 105.734 35.3062C105.734 35.3062 104.6 34.95 103.259 34.425C103.259 34.425 100.447 36.1312 97.8782 34.425C97.8782 34.425 93.1907 35.5312 92.6188 35.8031C92.047 36.075 93.397 43.5 93.0407 46.9218Z" fill="#01C7E2"/>
<path d="M97.072 51.3094C97.0608 49.811 96.765 48.3284 96.2001 46.9406C96.067 46.6257 95.9756 46.2948 95.9282 45.9562C95.8519 45.179 95.6326 44.4225 95.2813 43.725L94.2595 42.1875C94.072 41.9344 93.8751 41.6718 93.6595 41.3531C93.3118 40.827 92.9987 40.279 92.722 39.7125C92.9926 42.1055 93.0991 44.5143 93.0407 46.9218C92.722 50.1281 92.4688 56.8687 92.272 57.8062H99.322C98.4095 56.4989 97.7395 55.0381 97.3439 53.4937C97.1501 52.7822 97.0585 52.0467 97.072 51.3094Z" fill="#00A7CC"/>
<path d="M47.1503 99.768V117H44.9183V104.736C44.9183 104.552 44.9223 104.356 44.9303 104.148C44.9463 103.94 44.9623 103.728 44.9783 103.512L39.2422 114.036C39.0423 114.428 38.7343 114.624 38.3183 114.624H37.9583C37.5423 114.624 37.2383 114.428 37.0463 114.036L31.2023 103.476C31.2503 103.924 31.2743 104.344 31.2743 104.736V117H29.0303V99.768H30.9263C31.1503 99.768 31.3223 99.792 31.4423 99.84C31.5703 99.88 31.6903 100 31.8023 100.2L37.5623 110.52C37.6743 110.728 37.7783 110.948 37.8743 111.18C37.9703 111.412 38.0623 111.644 38.1503 111.876C38.3183 111.404 38.5143 110.948 38.7383 110.508L44.3903 100.2C44.4943 100 44.6063 99.88 44.7263 99.84C44.8543 99.792 45.0303 99.768 45.2543 99.768H47.1503ZM60.3291 102.576C60.2491 102.712 60.1651 102.812 60.0771 102.876C59.9891 102.94 59.8771 102.972 59.7411 102.972C59.5971 102.972 59.4331 102.908 59.2491 102.78C59.0651 102.644 58.8331 102.496 58.5531 102.336C58.2811 102.168 57.9531 102.02 57.5691 101.892C57.1851 101.756 56.7251 101.688 56.1891 101.688C55.6851 101.688 55.2411 101.756 54.8571 101.892C54.4811 102.02 54.1651 102.2 53.9091 102.432C53.6531 102.656 53.4571 102.924 53.3211 103.236C53.1931 103.54 53.1291 103.872 53.1291 104.232C53.1291 104.696 53.2451 105.08 53.4771 105.384C53.7171 105.688 54.0291 105.948 54.4131 106.164C54.7971 106.38 55.2331 106.568 55.7211 106.728C56.2091 106.888 56.7091 107.056 57.2211 107.232C57.7331 107.4 58.2331 107.596 58.7211 107.82C59.2091 108.044 59.6451 108.328 60.0291 108.672C60.4131 109.008 60.7211 109.424 60.9531 109.92C61.1931 110.408 61.3131 111.008 61.3131 111.72C61.3131 112.48 61.1811 113.192 60.9171 113.856C60.6611 114.52 60.2851 115.1 59.7891 115.596C59.2931 116.092 58.6811 116.484 57.9531 116.772C57.2331 117.052 56.4131 117.192 55.4931 117.192C54.9411 117.192 54.4051 117.136 53.8851 117.024C53.3651 116.92 52.8731 116.772 52.4091 116.58C51.9451 116.38 51.5091 116.144 51.1011 115.872C50.7011 115.592 50.3411 115.28 50.0211 114.936L50.7531 113.712C50.8251 113.616 50.9091 113.536 51.0051 113.472C51.1091 113.408 51.2251 113.376 51.3531 113.376C51.5211 113.376 51.7131 113.464 51.9291 113.64C52.1531 113.816 52.4251 114.012 52.7451 114.228C53.0731 114.436 53.4611 114.628 53.9091 114.804C54.3651 114.98 54.9171 115.068 55.5651 115.068C56.0931 115.068 56.5651 115 56.9811 114.864C57.3971 114.72 57.7451 114.52 58.0251 114.264C58.3131 114 58.5331 113.684 58.6851 113.316C58.8371 112.948 58.9131 112.54 58.9131 112.092C58.9131 111.588 58.7971 111.176 58.5651 110.856C58.3331 110.536 58.0251 110.268 57.6411 110.052C57.2571 109.836 56.8211 109.652 56.3331 109.5C55.8451 109.348 55.3451 109.192 54.8331 109.032C54.3211 108.864 53.8211 108.672 53.3331 108.456C52.8451 108.24 52.4091 107.96 52.0251 107.616C51.6411 107.264 51.3331 106.828 51.1011 106.308C50.8691 105.78 50.7531 105.132 50.7531 104.364C50.7531 103.748 50.8731 103.152 51.1131 102.576C51.3531 102 51.7011 101.492 52.1571 101.052C52.6211 100.604 53.1891 100.248 53.8611 99.984C54.5331 99.712 55.3011 99.576 56.1651 99.576C57.1331 99.576 58.0211 99.732 58.8291 100.044C59.6451 100.348 60.3531 100.788 60.9531 101.364L60.3291 102.576ZM82.5878 99.768V117H80.3558V104.736C80.3558 104.552 80.3598 104.356 80.3678 104.148C80.3838 103.94 80.3998 103.728 80.4158 103.512L74.6797 114.036C74.4798 114.428 74.1718 114.624 73.7558 114.624H73.3958C72.9798 114.624 72.6758 114.428 72.4838 114.036L66.6398 103.476C66.6878 103.924 66.7118 104.344 66.7118 104.736V117H64.4678V99.768H66.3638C66.5878 99.768 66.7598 99.792 66.8798 99.84C67.0078 99.88 67.1278 100 67.2398 100.2L72.9998 110.52C73.1118 110.728 73.2158 110.948 73.3118 111.18C73.4078 111.412 73.4998 111.644 73.5878 111.876C73.7558 111.404 73.9518 110.948 74.1758 110.508L79.8278 100.2C79.9318 100 80.0438 99.88 80.1638 99.84C80.2918 99.792 80.4678 99.768 80.6918 99.768H82.5878ZM97.5426 114.924L97.5306 117H86.8506V99.768H97.5306V101.844H89.4186V107.304H95.9466V109.308H89.4186V114.924H97.5426ZM107.223 106.908C107.159 107.012 107.091 107.088 107.019 107.136C106.947 107.176 106.855 107.196 106.743 107.196C106.615 107.196 106.471 107.152 106.311 107.064C106.159 106.976 105.971 106.88 105.747 106.776C105.531 106.672 105.275 106.576 104.979 106.488C104.683 106.4 104.331 106.356 103.923 106.356C103.587 106.356 103.279 106.4 102.999 106.488C102.727 106.568 102.495 106.684 102.303 106.836C102.111 106.98 101.963 107.156 101.859 107.364C101.755 107.564 101.703 107.78 101.703 108.012C101.703 108.316 101.791 108.568 101.967 108.768C102.151 108.968 102.387 109.14 102.675 109.284C102.971 109.428 103.303 109.56 103.671 109.68C104.047 109.792 104.427 109.912 104.811 110.04C105.203 110.168 105.583 110.316 105.951 110.484C106.327 110.644 106.659 110.848 106.947 111.096C107.243 111.336 107.479 111.628 107.655 111.972C107.839 112.316 107.931 112.736 107.931 113.232C107.931 113.8 107.827 114.328 107.619 114.816C107.419 115.296 107.119 115.712 106.719 116.064C106.327 116.416 105.839 116.692 105.255 116.892C104.671 117.092 104.003 117.192 103.251 117.192C102.411 117.192 101.635 117.052 100.923 116.772C100.211 116.492 99.6146 116.136 99.1346 115.704L99.6866 114.804C99.7506 114.692 99.8306 114.608 99.9266 114.552C100.023 114.488 100.151 114.456 100.311 114.456C100.463 114.456 100.619 114.512 100.779 114.624C100.939 114.736 101.131 114.86 101.355 114.996C101.579 115.124 101.851 115.244 102.171 115.356C102.491 115.46 102.891 115.512 103.371 115.512C103.771 115.512 104.119 115.464 104.415 115.368C104.711 115.264 104.955 115.128 105.147 114.96C105.347 114.784 105.495 114.584 105.591 114.36C105.687 114.136 105.735 113.9 105.735 113.652C105.735 113.332 105.643 113.068 105.459 112.86C105.283 112.644 105.047 112.46 104.751 112.308C104.463 112.156 104.131 112.024 103.755 111.912C103.379 111.8 102.995 111.68 102.603 111.552C102.211 111.424 101.827 111.276 101.451 111.108C101.075 110.94 100.739 110.728 100.443 110.472C100.155 110.216 99.9186 109.904 99.7346 109.536C99.5586 109.168 99.4706 108.72 99.4706 108.192C99.4706 107.72 99.5666 107.268 99.7586 106.836C99.9586 106.404 100.243 106.024 100.611 105.696C100.987 105.368 101.447 105.108 101.991 104.916C102.543 104.716 103.171 104.616 103.875 104.616C104.683 104.616 105.411 104.744 106.059 105C106.715 105.256 107.275 105.608 107.739 106.056L107.223 106.908ZM119.583 101.844V107.616H126.495V109.692H119.583V117H117.015V99.768H127.695V101.844H119.583ZM134.246 104.616C135.142 104.616 135.95 104.764 136.67 105.06C137.398 105.348 138.014 105.768 138.518 106.32C139.03 106.864 139.422 107.524 139.694 108.3C139.966 109.068 140.102 109.932 140.102 110.892C140.102 111.852 139.966 112.72 139.694 113.496C139.422 114.272 139.03 114.932 138.518 115.476C138.014 116.02 137.398 116.44 136.67 116.736C135.95 117.024 135.142 117.168 134.246 117.168C133.342 117.168 132.526 117.024 131.798 116.736C131.078 116.44 130.462 116.02 129.95 115.476C129.438 114.932 129.042 114.272 128.762 113.496C128.49 112.72 128.354 111.852 128.354 110.892C128.354 109.932 128.49 109.068 128.762 108.3C129.042 107.524 129.438 106.864 129.95 106.32C130.462 105.768 131.078 105.348 131.798 105.06C132.526 104.764 133.342 104.616 134.246 104.616ZM134.246 115.344C135.398 115.344 136.258 114.956 136.826 114.18C137.394 113.404 137.678 112.312 137.678 110.904C137.678 109.496 137.394 108.404 136.826 107.628C136.258 106.844 135.398 106.452 134.246 106.452C133.078 106.452 132.206 106.844 131.63 107.628C131.062 108.404 130.778 109.496 130.778 110.904C130.778 112.312 131.062 113.404 131.63 114.18C132.206 114.956 133.078 115.344 134.246 115.344ZM144.922 107.148C145.314 106.348 145.786 105.72 146.338 105.264C146.89 104.808 147.554 104.58 148.33 104.58C148.594 104.58 148.842 104.612 149.074 104.676C149.314 104.732 149.522 104.82 149.698 104.94L149.542 106.704C149.486 106.92 149.354 107.028 149.146 107.028C149.034 107.028 148.866 107.008 148.642 106.968C148.418 106.92 148.178 106.896 147.922 106.896C147.546 106.896 147.214 106.952 146.926 107.064C146.638 107.168 146.378 107.328 146.146 107.544C145.922 107.752 145.722 108.012 145.546 108.324C145.37 108.628 145.206 108.976 145.054 109.368V117H142.714V104.808H144.058C144.314 104.808 144.486 104.856 144.574 104.952C144.67 105.04 144.738 105.2 144.778 105.432L144.922 107.148ZM161.643 104.808V117H160.239C159.919 117 159.711 116.844 159.615 116.532L159.447 115.308C159.183 115.588 158.907 115.844 158.619 116.076C158.331 116.308 158.023 116.508 157.695 116.676C157.367 116.836 157.019 116.96 156.651 117.048C156.283 117.144 155.887 117.192 155.463 117.192C154.791 117.192 154.199 117.08 153.687 116.856C153.183 116.632 152.759 116.32 152.415 115.92C152.071 115.512 151.811 115.024 151.635 114.456C151.459 113.888 151.371 113.26 151.371 112.572V104.808H153.723V112.572C153.723 113.444 153.923 114.124 154.323 114.612C154.723 115.092 155.335 115.332 156.159 115.332C156.759 115.332 157.319 115.192 157.839 114.912C158.359 114.624 158.847 114.232 159.303 113.736V104.808H161.643ZM164.91 117V104.808H166.314C166.642 104.808 166.846 104.964 166.926 105.276L167.094 106.44C167.542 105.904 168.038 105.468 168.582 105.132C169.134 104.788 169.778 104.616 170.514 104.616C171.322 104.616 171.978 104.84 172.482 105.288C172.986 105.728 173.354 106.328 173.586 107.088C173.762 106.656 173.99 106.284 174.27 105.972C174.55 105.66 174.862 105.404 175.206 105.204C175.55 105.004 175.914 104.856 176.298 104.76C176.69 104.664 177.086 104.616 177.486 104.616C178.134 104.616 178.71 104.72 179.214 104.928C179.726 105.128 180.158 105.424 180.51 105.816C180.862 106.208 181.13 106.692 181.314 107.268C181.498 107.844 181.59 108.5 181.59 109.236V117H179.238V109.236C179.238 108.324 179.038 107.636 178.638 107.172C178.246 106.708 177.67 106.476 176.91 106.476C176.574 106.476 176.254 106.536 175.95 106.656C175.646 106.768 175.378 106.94 175.146 107.172C174.922 107.404 174.742 107.692 174.606 108.036C174.478 108.38 174.414 108.78 174.414 109.236V117H172.062V109.236C172.062 108.292 171.874 107.596 171.498 107.148C171.122 106.7 170.57 106.476 169.842 106.476C169.338 106.476 168.87 106.608 168.438 106.872C168.006 107.136 167.61 107.496 167.25 107.952V117H164.91Z" fill="black"/>
</svg>
