<svg width="254" height="131" viewBox="0 0 254 131" fill="none" xmlns="http://www.w3.org/2000/svg">
<g clip-path="url(#clip0_21_171)">
<path d="M163.14 7.63C163.14 7.63 167.68 8.63 172.91 13.2L166.63 24.65C164.847 22.9293 162.621 21.7382 160.2 21.21L163.14 7.63Z" fill="#FD425F"/>
<path d="M164.27 14.89C164.82 12.84 165.27 10.76 165.8 8.71001C164.942 8.28344 164.053 7.92241 163.14 7.63L160.2 21.21C161.84 19.78 162.28 20.32 162.57 20.21C163.06 18.41 163.84 16.65 164.27 14.89Z" fill="#E42244"/>
<path d="M138.59 1.38002C138.59 1.38002 156.33 -0.389979 166.19 4.71002L162.57 20.17C162.57 20.17 153.87 15.5 139.43 17.5L138.59 1.38002Z" fill="#FD425F"/>
<path d="M139.99 0H138.57V60.8H139.99V0Z" fill="#110239"/>
<path d="M141.08 58.97H137.49V61.82H141.08V58.97Z" fill="#110239"/>
<path d="M142.48 61.2H136.09V62.63H142.48V61.2Z" fill="#110239"/>
<path d="M113.18 26.9V37.04H115.71V29.9C115.71 29.5525 115.848 29.2193 116.094 28.9737C116.339 28.728 116.672 28.59 117.02 28.59H127.89C128.061 28.59 128.231 28.6239 128.39 28.6899C128.548 28.7558 128.692 28.8525 128.813 28.9743C128.934 29.096 129.029 29.2405 129.094 29.3994C129.159 29.5583 129.191 29.7284 129.19 29.9V37.04H131.72V26.9C131.72 26.7293 131.686 26.5602 131.621 26.4025C131.556 26.2448 131.46 26.1014 131.339 25.9807C131.218 25.86 131.075 25.7643 130.917 25.6989C130.76 25.6336 130.591 25.6 130.42 25.6H114.49C114.144 25.6 113.813 25.7366 113.567 25.9801C113.322 26.2236 113.183 26.5543 113.18 26.9Z" fill="#D0D1DE"/>
<path d="M159.47 33.6H85.44C82.9879 33.6 81 35.5878 81 38.04V82.46C81 84.9121 82.9879 86.9 85.44 86.9H159.47C161.922 86.9 163.91 84.9121 163.91 82.46V38.04C163.91 35.5878 161.922 33.6 159.47 33.6Z" fill="#110239"/>
<path d="M163.91 48.45V38.05C163.911 37.4661 163.797 36.8876 163.575 36.3478C163.352 35.808 163.026 35.3173 162.613 34.9039C162.201 34.4906 161.711 34.1627 161.171 33.9389C160.632 33.7151 160.054 33.6 159.47 33.6H85.47C84.8861 33.6 84.3079 33.7151 83.7686 33.9389C83.2293 34.1627 82.7394 34.4906 82.3269 34.9039C81.9145 35.3173 81.5877 35.808 81.3651 36.3478C81.1426 36.8876 81.0287 37.4661 81.03 38.05V48.45C81.03 49.9523 81.3259 51.4399 81.9009 52.8279C82.4758 54.2158 83.3184 55.477 84.3807 56.5393C85.4431 57.6016 86.7042 58.4442 88.0921 59.0191C89.4801 59.5941 90.9677 59.89 92.47 59.89H152.47C153.972 59.89 155.46 59.5941 156.848 59.0191C158.236 58.4442 159.497 57.6016 160.559 56.5393C161.622 55.477 162.464 54.2158 163.039 52.8279C163.614 51.4399 163.91 49.9523 163.91 48.45Z" fill="#453964"/>
<path d="M125.09 57.49H119.82V63.48H125.09V57.49Z" fill="#D0D1DE"/>
<path d="M123.3 60.36H121.6V61.84H123.3V60.36Z" fill="#110239"/>
<path d="M100.84 7.21002H98.0601C98.0601 7.21002 97.6601 10.99 96.9401 11.44C96.9401 11.44 96.05 15.91 99.45 15.91C103.57 15.91 101.96 11.44 101.96 11.44C101.23 10.99 100.84 7.21002 100.84 7.21002Z" fill="#F88667"/>
<path d="M100.84 7.21002H98.0601C98.0601 7.21002 97.6601 10.99 96.9401 11.44C96.9401 11.44 96.05 15.91 99.45 15.91C103.57 15.91 101.96 11.44 101.96 11.44C101.23 10.99 100.84 7.21002 100.84 7.21002Z" fill="#E45940"/>
<path d="M103.05 7.94997C102.66 7.50997 102.2 8.17998 102.2 8.17998C102.2 8.17998 102.84 5.67997 102.2 4.58997C101.56 3.49997 99.5101 4.06998 99.5101 4.06998C99.5101 4.06998 97.4501 3.48997 96.8201 4.58997C96.1901 5.68997 96.8201 8.17998 96.8201 8.17998C96.8201 8.17998 96.3601 7.50997 95.9701 7.94997C95.5801 8.38997 96.6101 9.50997 96.8401 9.63997C96.8401 9.63997 98.3201 12.41 99.5101 12.41C100.7 12.41 102.18 9.63997 102.18 9.63997C102.41 9.50997 103.43 8.38997 103.05 7.94997Z" fill="#F88667"/>
<path d="M98.9899 5.05996C98.9899 5.05996 97.4299 5.32996 97.2599 6.16996C97.2114 6.58806 97.2385 7.01146 97.3399 7.41996C97.4218 7.87233 97.4687 8.33038 97.4799 8.78997C97.4487 8.80503 97.4145 8.81285 97.3799 8.81285C97.3453 8.81285 97.3111 8.80503 97.2799 8.78997C97.0744 8.60226 96.896 8.38686 96.7499 8.14997C96.4499 7.71997 96.0299 7.78997 95.9099 8.06997C95.9099 8.06997 95.5599 3.95997 97.2799 3.81997C98.9999 3.67997 98.9899 5.05996 98.9899 5.05996Z" fill="#110239"/>
<path d="M100.01 5.05996C100.01 5.05996 101.56 5.32996 101.74 6.16996C101.79 6.58855 101.76 7.01287 101.65 7.41996C101.566 7.8718 101.522 8.33033 101.52 8.78997C101.551 8.80436 101.585 8.81179 101.62 8.81179C101.655 8.81179 101.689 8.80436 101.72 8.78997C101.926 8.60226 102.104 8.38686 102.25 8.14997C102.54 7.71997 102.97 7.78997 103.09 8.06997C103.09 8.06997 103.44 3.95997 101.72 3.81997C100 3.67997 100.01 5.05996 100.01 5.05996Z" fill="#110239"/>
<path d="M102.58 4.36999C102.51 4.07003 102.371 3.79032 102.175 3.55268C101.979 3.31504 101.731 3.12589 101.45 2.99998C100.401 2.57577 99.2409 2.50899 98.15 2.80998C97.7719 2.8604 97.414 3.01049 97.1131 3.24485C96.8122 3.47921 96.579 3.78941 96.4375 4.14361C96.2961 4.49782 96.2514 4.88328 96.308 5.26046C96.3647 5.63765 96.5207 5.99298 96.76 6.28999C97.0228 6.54854 97.3359 6.7503 97.68 6.88276C98.024 7.01522 98.3916 7.07553 98.76 7.05998C101.78 7.05998 103.04 5.27999 102.58 4.36999Z" fill="#110239"/>
<path d="M101.95 11.44C101.8 15.24 99.4401 14.85 99.4401 14.85C99.4401 14.85 97.0701 15.24 96.9301 11.44C94.9727 11.9737 93.086 12.7391 91.3101 13.72C91.8106 16.0213 92.0885 18.3654 92.14 20.72L94.3 29.08L99.4401 29.33L104.57 29.08L106.73 20.72C106.782 18.3649 107.063 16.0205 107.57 13.72C105.794 12.7391 103.907 11.9737 101.95 11.44Z" fill="#00BAD1"/>
<g style="mix-blend-mode:multiply" opacity="0.32">
<path d="M106.36 15.91C104.01 17.16 102.87 20.04 100.59 21.45C98.3099 22.86 96.5899 19.96 95.4199 18.45C94.4614 17.1199 93.1529 16.0814 91.6399 15.45C91.9415 17.198 92.1086 18.9665 92.1399 20.74L94.2999 29.1L99.4399 29.35L104.57 29.1L106.73 20.74C106.77 18.994 106.934 17.2529 107.22 15.53C106.93 15.64 106.63 15.8 106.36 15.91Z" fill="#00547A"/>
</g>
<path d="M108.96 32.47C108.96 29.53 105.32 27.6 105.32 27.6H93.09C93.09 27.6 89.45 29.53 89.45 32.47C89.4883 33.2302 89.5887 33.986 89.75 34.73H93.84C93.67 35.03 93.52 35.31 93.4 35.54C93.3672 35.612 93.3305 35.6821 93.29 35.75H96.29C96.51 35.75 96.44 35.84 96.37 35.51C96.3 35.18 95.99 34.78 96.28 34.29C96.7639 33.8585 97.3822 33.6077 98.03 33.58H100.23C100.474 33.5889 100.716 33.6293 100.95 33.7C101.15 33.7 101.77 33.7 102.03 34.03C102.165 34.2422 102.238 34.4883 102.24 34.74C102.232 35.0758 102.195 35.4104 102.13 35.74H105.83C105.55 35.37 105.32 35.04 105.12 34.74H108.74C108.871 33.99 108.945 33.2311 108.96 32.47Z" fill="#FD425F"/>
<path d="M108.96 32.47C108.96 29.53 105.32 27.6 105.32 27.6H93.09C93.09 27.6 89.45 29.53 89.45 32.47C89.4883 33.2302 89.5887 33.986 89.75 34.73H93.84C93.67 35.03 93.52 35.31 93.4 35.54C93.3672 35.612 93.3305 35.6821 93.29 35.75H96.29C96.51 35.75 96.44 35.84 96.37 35.51C96.3 35.18 95.99 34.78 96.28 34.29C96.7639 33.8585 97.3822 33.6077 98.03 33.58H100.23C100.474 33.5889 100.716 33.6293 100.95 33.7C101.15 33.7 101.77 33.7 102.03 34.03C102.165 34.2422 102.238 34.4883 102.24 34.74C102.232 35.0758 102.195 35.4104 102.13 35.74H105.83C105.55 35.37 105.32 35.04 105.12 34.74H108.74C108.871 33.99 108.945 33.2311 108.96 32.47Z" fill="#BD1337"/>
<path d="M91.3101 13.72C91.3101 13.72 86.6401 23.81 86.9801 25.16C87.0601 25.49 92.7501 28.92 95.4201 28.43L96.5101 28.23C96.5101 28.23 92.5401 13.65 91.3101 13.72Z" fill="#00BAD1"/>
<path d="M107.56 13.72C107.56 13.72 112.23 23.81 111.89 25.16C111.81 25.49 106.12 28.92 103.45 28.43L102.36 28.23C102.36 28.23 106.33 13.65 107.56 13.72Z" fill="#00BAD1"/>
<g style="mix-blend-mode:multiply" opacity="0.32">
<path d="M93.1299 17.25C93.1213 17.7449 93.061 18.2376 92.9499 18.72C92.5399 20.55 91.8899 22.45 92.5699 24.31C93.1646 25.7491 93.8701 27.14 94.6799 28.47C94.9257 28.5005 95.1742 28.5005 95.4199 28.47L96.5099 28.27C96.5099 28.27 94.6899 21.55 93.1299 17.25Z" fill="#00547A"/>
</g>
<g style="mix-blend-mode:multiply" opacity="0.32">
<path d="M105.01 28.38C105.366 27.5288 105.539 26.6124 105.52 25.69C105.46 23.83 105.45 21.96 105.52 20.1C105.52 19.29 105.52 18.51 105.6 17.75C104.09 22.04 102.4 28.23 102.4 28.23L103.49 28.43C103.996 28.4972 104.509 28.4803 105.01 28.38Z" fill="#00547A"/>
</g>
<path d="M94.78 49.93C93.6014 51.2969 92.4965 52.7256 91.47 54.21C91.12 54.96 91.97 55.9 93.12 55.52C94.27 55.14 94.95 54.35 94.97 53.85C94.99 53.35 95.6 53.08 95.87 53.04C96.14 53 97.68 51.25 97.53 50.77C97.3046 50.3669 96.9857 50.024 96.6 49.77L94.78 49.93Z" fill="black"/>
<path d="M103.64 49.93C104.815 51.2974 105.917 52.726 106.94 54.21C107.29 54.96 106.44 55.9 105.29 55.52C104.14 55.14 103.46 54.35 103.44 53.85C103.42 53.35 102.81 53.08 102.54 53.04C102.27 53 100.73 51.25 100.88 50.77C101.105 50.3669 101.424 50.024 101.81 49.77L103.64 49.93Z" fill="black"/>
<path d="M95.84 32.31C95.49 31.47 95.4201 29.7 93.0401 29.7C88.4701 29.7 89.54 33.36 89.61 33.91C90.3 39.37 93.61 50.27 93.61 50.27H98.2C98.2 50.27 96.53 36.92 96.27 34.86C96.2094 33.9981 96.0654 33.1441 95.84 32.31Z" fill="#FD425F"/>
<path d="M102.61 32.31C102.96 31.47 103.03 29.7 105.41 29.7C109.99 29.7 108.91 33.36 108.84 33.91C108.15 39.37 104.84 50.27 104.84 50.27H100.26C100.26 50.27 101.92 36.92 102.18 34.86C102.25 33.9993 102.394 33.1462 102.61 32.31Z" fill="#FD425F"/>
<path d="M106.17 28.35H92.71V29.15H106.17V28.35Z" fill="#110239"/>
<path d="M108.15 19.02H90.73C90.6074 19.0191 90.4863 19.0465 90.376 19.0999C90.2657 19.1533 90.1691 19.2313 90.0938 19.3279C90.0184 19.4246 89.9662 19.5372 89.9413 19.6572C89.9164 19.7772 89.9193 19.9013 89.95 20.02C90.11 21.07 92.31 28.41 92.75 28.41H106.13C106.52 28.41 108.77 21.07 108.93 20.02C108.961 19.9013 108.964 19.7772 108.939 19.6572C108.914 19.5372 108.862 19.4246 108.786 19.3279C108.711 19.2313 108.614 19.1533 108.504 19.0999C108.394 19.0465 108.273 19.0191 108.15 19.02Z" fill="#110239"/>
<path d="M100.16 24.09C100.16 24.2324 100.118 24.3716 100.039 24.49C99.9595 24.6084 99.8471 24.7007 99.7155 24.7552C99.5839 24.8097 99.4392 24.8239 99.2995 24.7962C99.1598 24.7684 99.0315 24.6998 98.9309 24.5991C98.8302 24.4984 98.7616 24.3701 98.7338 24.2305C98.706 24.0908 98.7203 23.946 98.7748 23.8145C98.8293 23.6829 98.9216 23.5704 99.04 23.4913C99.1584 23.4122 99.2976 23.37 99.44 23.37C99.6301 23.3726 99.8118 23.4493 99.9462 23.5837C100.081 23.7182 100.157 23.8998 100.16 24.09Z" fill="#D0D1DE"/>
<path d="M117.4 73.62L118.21 76.11H120.83L118.71 77.65L119.52 80.13L117.4 78.6L115.29 80.13L116.09 77.65L113.98 76.11H116.59L117.4 73.62Z" fill="#D0D1DE"/>
<path d="M126.74 73.62L127.55 76.11H130.17L128.05 77.65L128.86 80.13L126.74 78.6L124.63 80.13L125.44 77.65L123.32 76.11H125.94L126.74 73.62Z" fill="#D0D1DE"/>
<path d="M136.09 73.62L136.9 76.11H139.51L137.39 77.65L138.2 80.13L136.09 78.6L133.97 80.13L134.78 77.65L132.66 76.11H135.28L136.09 73.62Z" fill="#D0D1DE"/>
<path d="M145.43 73.62L146.24 76.11H148.85L146.74 77.65L147.55 80.13L145.43 78.6L143.31 80.13L144.12 77.65L142.01 76.11H144.62L145.43 73.62Z" fill="#D0D1DE"/>
<path d="M154.77 73.62L155.58 76.11H158.19L156.08 77.65L156.89 80.13L154.77 78.6L152.66 80.13L153.46 77.65L151.35 76.11H153.96L154.77 73.62Z" fill="#D0D1DE"/>
</g>
<path d="M37.451 105.768V123H35.219V110.736C35.219 110.552 35.223 110.356 35.231 110.148C35.247 109.94 35.263 109.728 35.279 109.512L29.543 120.036C29.343 120.428 29.035 120.624 28.619 120.624H28.259C27.843 120.624 27.539 120.428 27.347 120.036L21.503 109.476C21.551 109.924 21.575 110.344 21.575 110.736V123H19.331V105.768H21.227C21.451 105.768 21.623 105.792 21.743 105.84C21.871 105.88 21.991 106 22.103 106.2L27.863 116.52C27.975 116.728 28.079 116.948 28.175 117.18C28.271 117.412 28.363 117.644 28.451 117.876C28.619 117.404 28.815 116.948 29.039 116.508L34.691 106.2C34.795 106 34.907 105.88 35.027 105.84C35.155 105.792 35.331 105.768 35.555 105.768H37.451ZM48.9348 115.548C48.9348 115.084 48.8668 114.656 48.7308 114.264C48.6028 113.872 48.4108 113.532 48.1548 113.244C47.8988 112.956 47.5868 112.732 47.2188 112.572C46.8508 112.412 46.4268 112.332 45.9468 112.332C44.9628 112.332 44.1868 112.616 43.6188 113.184C43.0588 113.752 42.7028 114.54 42.5508 115.548H48.9348ZM50.8668 121.26C50.5788 121.596 50.2468 121.888 49.8708 122.136C49.4948 122.376 49.0948 122.572 48.6708 122.724C48.2468 122.876 47.8068 122.988 47.3508 123.06C46.9028 123.132 46.4588 123.168 46.0188 123.168C45.1788 123.168 44.3988 123.028 43.6788 122.748C42.9668 122.46 42.3468 122.044 41.8188 121.5C41.2988 120.948 40.8908 120.268 40.5948 119.46C40.3068 118.644 40.1628 117.708 40.1628 116.652C40.1628 115.804 40.2948 115.016 40.5588 114.288C40.8228 113.552 41.1988 112.912 41.6868 112.368C42.1828 111.824 42.7868 111.396 43.4988 111.084C44.2108 110.772 45.0108 110.616 45.8988 110.616C46.6428 110.616 47.3268 110.74 47.9508 110.988C48.5828 111.228 49.1268 111.58 49.5828 112.044C50.0388 112.508 50.3948 113.08 50.6508 113.76C50.9148 114.44 51.0468 115.216 51.0468 116.088C51.0468 116.448 51.0068 116.692 50.9268 116.82C50.8468 116.94 50.6988 117 50.4828 117H42.4908C42.5148 117.728 42.6188 118.364 42.8028 118.908C42.9868 119.444 43.2388 119.892 43.5588 120.252C43.8868 120.612 44.2748 120.88 44.7228 121.056C45.1708 121.232 45.6708 121.32 46.2228 121.32C46.7428 121.32 47.1908 121.26 47.5668 121.14C47.9508 121.02 48.2788 120.892 48.5508 120.756C48.8308 120.612 49.0628 120.48 49.2468 120.36C49.4388 120.24 49.6068 120.18 49.7508 120.18C49.9428 120.18 50.0908 120.252 50.1948 120.396L50.8668 121.26ZM55.758 112.5C56.022 112.22 56.298 111.964 56.586 111.732C56.874 111.5 57.178 111.304 57.498 111.144C57.826 110.976 58.174 110.848 58.542 110.76C58.918 110.664 59.318 110.616 59.742 110.616C60.414 110.616 61.002 110.728 61.506 110.952C62.018 111.176 62.446 111.492 62.79 111.9C63.134 112.3 63.394 112.784 63.57 113.352C63.746 113.92 63.834 114.548 63.834 115.236V123H61.482V115.236C61.482 114.364 61.282 113.688 60.882 113.208C60.482 112.72 59.87 112.476 59.046 112.476C58.446 112.476 57.882 112.62 57.354 112.908C56.834 113.188 56.35 113.572 55.902 114.06V123H53.562V110.808H54.966C55.294 110.808 55.498 110.964 55.578 111.276L55.758 112.5ZM70.6436 123.192C69.6596 123.192 68.8996 122.916 68.3636 122.364C67.8356 121.812 67.5716 121.024 67.5716 120V112.704H66.1556C66.0196 112.704 65.9036 112.664 65.8076 112.584C65.7196 112.496 65.6756 112.368 65.6756 112.2V111.252L67.6556 110.976L68.1836 107.34C68.2156 107.204 68.2756 107.1 68.3636 107.028C68.4596 106.948 68.5796 106.908 68.7236 106.908H69.9116V111H73.3676V112.704H69.9116V119.844C69.9116 120.324 70.0276 120.684 70.2596 120.924C70.4996 121.156 70.8036 121.272 71.1716 121.272C71.3876 121.272 71.5716 121.244 71.7236 121.188C71.8836 121.132 72.0196 121.072 72.1316 121.008C72.2436 120.936 72.3396 120.872 72.4196 120.816C72.4996 120.76 72.5716 120.732 72.6356 120.732C72.7156 120.732 72.7756 120.752 72.8156 120.792C72.8636 120.824 72.9116 120.88 72.9596 120.96L73.6556 122.088C73.2716 122.44 72.8156 122.712 72.2876 122.904C71.7596 123.096 71.2116 123.192 70.6436 123.192ZM80.6486 110.616C81.5446 110.616 82.3526 110.764 83.0726 111.06C83.8006 111.348 84.4166 111.768 84.9206 112.32C85.4326 112.864 85.8246 113.524 86.0966 114.3C86.3686 115.068 86.5046 115.932 86.5046 116.892C86.5046 117.852 86.3686 118.72 86.0966 119.496C85.8246 120.272 85.4326 120.932 84.9206 121.476C84.4166 122.02 83.8006 122.44 83.0726 122.736C82.3526 123.024 81.5446 123.168 80.6486 123.168C79.7446 123.168 78.9286 123.024 78.2006 122.736C77.4806 122.44 76.8646 122.02 76.3526 121.476C75.8406 120.932 75.4446 120.272 75.1646 119.496C74.8926 118.72 74.7566 117.852 74.7566 116.892C74.7566 115.932 74.8926 115.068 75.1646 114.3C75.4446 113.524 75.8406 112.864 76.3526 112.32C76.8646 111.768 77.4806 111.348 78.2006 111.06C78.9286 110.764 79.7446 110.616 80.6486 110.616ZM80.6486 121.344C81.8006 121.344 82.6606 120.956 83.2286 120.18C83.7966 119.404 84.0806 118.312 84.0806 116.904C84.0806 115.496 83.7966 114.404 83.2286 113.628C82.6606 112.844 81.8006 112.452 80.6486 112.452C79.4806 112.452 78.6086 112.844 78.0326 113.628C77.4646 114.404 77.1806 115.496 77.1806 116.904C77.1806 118.312 77.4646 119.404 78.0326 120.18C78.6086 120.956 79.4806 121.344 80.6486 121.344ZM91.3247 113.148C91.7167 112.348 92.1887 111.72 92.7407 111.264C93.2927 110.808 93.9567 110.58 94.7327 110.58C94.9967 110.58 95.2447 110.612 95.4767 110.676C95.7167 110.732 95.9247 110.82 96.1007 110.94L95.9447 112.704C95.8887 112.92 95.7567 113.028 95.5487 113.028C95.4367 113.028 95.2687 113.008 95.0447 112.968C94.8207 112.92 94.5807 112.896 94.3247 112.896C93.9487 112.896 93.6167 112.952 93.3287 113.064C93.0407 113.168 92.7807 113.328 92.5487 113.544C92.3247 113.752 92.1247 114.012 91.9487 114.324C91.7727 114.628 91.6087 114.976 91.4567 115.368V123H89.1167V110.808H90.4607C90.7167 110.808 90.8887 110.856 90.9767 110.952C91.0727 111.04 91.1407 111.2 91.1807 111.432L91.3247 113.148ZM115.976 119.304C116.12 119.304 116.244 119.36 116.348 119.472L117.356 120.576C116.652 121.408 115.792 122.052 114.776 122.508C113.768 122.964 112.552 123.192 111.128 123.192C109.88 123.192 108.748 122.976 107.732 122.544C106.724 122.112 105.86 121.508 105.14 120.732C104.428 119.956 103.876 119.028 103.484 117.948C103.092 116.868 102.896 115.68 102.896 114.384C102.896 113.088 103.1 111.9 103.508 110.82C103.924 109.74 104.504 108.812 105.248 108.036C105.992 107.26 106.88 106.656 107.912 106.224C108.952 105.792 110.1 105.576 111.356 105.576C112.58 105.576 113.668 105.776 114.62 106.176C115.572 106.576 116.4 107.108 117.104 107.772L116.264 108.96C116.208 109.048 116.136 109.12 116.048 109.176C115.968 109.232 115.86 109.26 115.724 109.26C115.572 109.26 115.392 109.184 115.184 109.032C114.984 108.88 114.716 108.712 114.38 108.528C114.052 108.336 113.644 108.164 113.156 108.012C112.668 107.86 112.06 107.784 111.332 107.784C110.476 107.784 109.692 107.936 108.98 108.24C108.268 108.536 107.652 108.968 107.132 109.536C106.62 110.096 106.22 110.788 105.932 111.612C105.652 112.428 105.512 113.352 105.512 114.384C105.512 115.432 105.66 116.364 105.956 117.18C106.252 117.996 106.66 118.688 107.18 119.256C107.7 119.824 108.312 120.256 109.016 120.552C109.72 120.848 110.48 120.996 111.296 120.996C111.792 120.996 112.236 120.968 112.628 120.912C113.028 120.848 113.392 120.756 113.72 120.636C114.056 120.516 114.372 120.364 114.668 120.18C114.964 119.988 115.256 119.76 115.544 119.496C115.608 119.44 115.676 119.396 115.748 119.364C115.82 119.324 115.896 119.304 115.976 119.304ZM124.406 110.616C125.302 110.616 126.11 110.764 126.83 111.06C127.558 111.348 128.174 111.768 128.678 112.32C129.19 112.864 129.582 113.524 129.854 114.3C130.126 115.068 130.262 115.932 130.262 116.892C130.262 117.852 130.126 118.72 129.854 119.496C129.582 120.272 129.19 120.932 128.678 121.476C128.174 122.02 127.558 122.44 126.83 122.736C126.11 123.024 125.302 123.168 124.406 123.168C123.502 123.168 122.686 123.024 121.958 122.736C121.238 122.44 120.622 122.02 120.11 121.476C119.598 120.932 119.202 120.272 118.922 119.496C118.65 118.72 118.514 117.852 118.514 116.892C118.514 115.932 118.65 115.068 118.922 114.3C119.202 113.524 119.598 112.864 120.11 112.32C120.622 111.768 121.238 111.348 121.958 111.06C122.686 110.764 123.502 110.616 124.406 110.616ZM124.406 121.344C125.558 121.344 126.418 120.956 126.986 120.18C127.554 119.404 127.838 118.312 127.838 116.904C127.838 115.496 127.554 114.404 126.986 113.628C126.418 112.844 125.558 112.452 124.406 112.452C123.238 112.452 122.366 112.844 121.79 113.628C121.222 114.404 120.938 115.496 120.938 116.904C120.938 118.312 121.222 119.404 121.79 120.18C122.366 120.956 123.238 121.344 124.406 121.344ZM135.07 112.5C135.334 112.22 135.61 111.964 135.898 111.732C136.186 111.5 136.49 111.304 136.81 111.144C137.138 110.976 137.486 110.848 137.854 110.76C138.23 110.664 138.63 110.616 139.054 110.616C139.726 110.616 140.314 110.728 140.818 110.952C141.33 111.176 141.758 111.492 142.102 111.9C142.446 112.3 142.706 112.784 142.882 113.352C143.058 113.92 143.146 114.548 143.146 115.236V123H140.794V115.236C140.794 114.364 140.594 113.688 140.194 113.208C139.794 112.72 139.182 112.476 138.358 112.476C137.758 112.476 137.194 112.62 136.666 112.908C136.146 113.188 135.662 113.572 135.214 114.06V123H132.874V110.808H134.278C134.606 110.808 134.81 110.964 134.89 111.276L135.07 112.5ZM153.492 112.908C153.428 113.012 153.36 113.088 153.288 113.136C153.216 113.176 153.124 113.196 153.012 113.196C152.884 113.196 152.74 113.152 152.58 113.064C152.428 112.976 152.24 112.88 152.016 112.776C151.8 112.672 151.544 112.576 151.248 112.488C150.952 112.4 150.6 112.356 150.192 112.356C149.856 112.356 149.548 112.4 149.268 112.488C148.996 112.568 148.764 112.684 148.572 112.836C148.38 112.98 148.232 113.156 148.128 113.364C148.024 113.564 147.972 113.78 147.972 114.012C147.972 114.316 148.06 114.568 148.236 114.768C148.42 114.968 148.656 115.14 148.944 115.284C149.24 115.428 149.572 115.56 149.94 115.68C150.316 115.792 150.696 115.912 151.08 116.04C151.472 116.168 151.852 116.316 152.22 116.484C152.596 116.644 152.928 116.848 153.216 117.096C153.512 117.336 153.748 117.628 153.924 117.972C154.108 118.316 154.2 118.736 154.2 119.232C154.2 119.8 154.096 120.328 153.888 120.816C153.688 121.296 153.388 121.712 152.988 122.064C152.596 122.416 152.108 122.692 151.524 122.892C150.94 123.092 150.272 123.192 149.52 123.192C148.68 123.192 147.904 123.052 147.192 122.772C146.48 122.492 145.884 122.136 145.404 121.704L145.956 120.804C146.02 120.692 146.1 120.608 146.196 120.552C146.292 120.488 146.42 120.456 146.58 120.456C146.732 120.456 146.888 120.512 147.048 120.624C147.208 120.736 147.4 120.86 147.624 120.996C147.848 121.124 148.12 121.244 148.44 121.356C148.76 121.46 149.16 121.512 149.64 121.512C150.04 121.512 150.388 121.464 150.684 121.368C150.98 121.264 151.224 121.128 151.416 120.96C151.616 120.784 151.764 120.584 151.86 120.36C151.956 120.136 152.004 119.9 152.004 119.652C152.004 119.332 151.912 119.068 151.728 118.86C151.552 118.644 151.316 118.46 151.02 118.308C150.732 118.156 150.4 118.024 150.024 117.912C149.648 117.8 149.264 117.68 148.872 117.552C148.48 117.424 148.096 117.276 147.72 117.108C147.344 116.94 147.008 116.728 146.712 116.472C146.424 116.216 146.188 115.904 146.004 115.536C145.828 115.168 145.74 114.72 145.74 114.192C145.74 113.72 145.836 113.268 146.028 112.836C146.228 112.404 146.512 112.024 146.88 111.696C147.256 111.368 147.716 111.108 148.26 110.916C148.812 110.716 149.44 110.616 150.144 110.616C150.952 110.616 151.68 110.744 152.328 111C152.984 111.256 153.544 111.608 154.008 112.056L153.492 112.908ZM166.874 110.808V123H165.47C165.15 123 164.942 122.844 164.846 122.532L164.678 121.308C164.414 121.588 164.138 121.844 163.85 122.076C163.562 122.308 163.254 122.508 162.926 122.676C162.598 122.836 162.25 122.96 161.882 123.048C161.514 123.144 161.118 123.192 160.694 123.192C160.022 123.192 159.43 123.08 158.918 122.856C158.414 122.632 157.99 122.32 157.646 121.92C157.302 121.512 157.042 121.024 156.866 120.456C156.69 119.888 156.602 119.26 156.602 118.572V110.808H158.954V118.572C158.954 119.444 159.154 120.124 159.554 120.612C159.954 121.092 160.566 121.332 161.39 121.332C161.99 121.332 162.55 121.192 163.07 120.912C163.59 120.624 164.078 120.232 164.534 119.736V110.808H166.874ZM172.54 105.288V123H170.188V105.288H172.54ZM179.698 123.192C178.714 123.192 177.954 122.916 177.418 122.364C176.89 121.812 176.626 121.024 176.626 120V112.704H175.21C175.074 112.704 174.958 112.664 174.862 112.584C174.774 112.496 174.73 112.368 174.73 112.2V111.252L176.71 110.976L177.238 107.34C177.27 107.204 177.33 107.1 177.418 107.028C177.514 106.948 177.634 106.908 177.778 106.908H178.966V111H182.422V112.704H178.966V119.844C178.966 120.324 179.082 120.684 179.314 120.924C179.554 121.156 179.858 121.272 180.226 121.272C180.442 121.272 180.626 121.244 180.778 121.188C180.938 121.132 181.074 121.072 181.186 121.008C181.298 120.936 181.394 120.872 181.474 120.816C181.554 120.76 181.626 120.732 181.69 120.732C181.77 120.732 181.83 120.752 181.87 120.792C181.918 120.824 181.966 120.88 182.014 120.96L182.71 122.088C182.326 122.44 181.87 122.712 181.342 122.904C180.814 123.096 180.266 123.192 179.698 123.192ZM191.13 117.588C190.178 117.62 189.37 117.696 188.706 117.816C188.042 117.928 187.502 118.08 187.086 118.272C186.67 118.464 186.37 118.692 186.186 118.956C186.002 119.212 185.91 119.5 185.91 119.82C185.91 120.124 185.958 120.388 186.054 120.612C186.158 120.828 186.294 121.008 186.462 121.152C186.638 121.288 186.842 121.388 187.074 121.452C187.306 121.516 187.558 121.548 187.83 121.548C188.19 121.548 188.518 121.512 188.814 121.44C189.118 121.368 189.402 121.268 189.666 121.14C189.93 121.004 190.182 120.84 190.422 120.648C190.662 120.456 190.898 120.236 191.13 119.988V117.588ZM184.266 112.512C184.946 111.864 185.682 111.38 186.474 111.06C187.274 110.74 188.15 110.58 189.102 110.58C189.798 110.58 190.414 110.696 190.95 110.928C191.486 111.152 191.938 111.468 192.306 111.876C192.674 112.284 192.95 112.772 193.134 113.34C193.326 113.908 193.422 114.536 193.422 115.224V123H192.378C192.146 123 191.97 122.964 191.85 122.892C191.73 122.812 191.634 122.668 191.562 122.46L191.31 121.392C190.998 121.68 190.69 121.936 190.386 122.16C190.082 122.376 189.762 122.564 189.426 122.724C189.098 122.876 188.746 122.992 188.37 123.072C187.994 123.152 187.578 123.192 187.122 123.192C186.642 123.192 186.19 123.128 185.766 123C185.35 122.864 184.986 122.66 184.674 122.388C184.362 122.116 184.114 121.776 183.93 121.368C183.754 120.96 183.666 120.484 183.666 119.94C183.666 119.46 183.794 119 184.05 118.56C184.314 118.112 184.738 117.712 185.322 117.36C185.914 117.008 186.682 116.72 187.626 116.496C188.578 116.272 189.746 116.144 191.13 116.112V115.224C191.13 114.304 190.934 113.616 190.542 113.16C190.15 112.704 189.574 112.476 188.814 112.476C188.302 112.476 187.87 112.54 187.518 112.668C187.174 112.796 186.874 112.94 186.618 113.1C186.37 113.252 186.15 113.392 185.958 113.52C185.774 113.648 185.582 113.712 185.382 113.712C185.222 113.712 185.082 113.668 184.962 113.58C184.85 113.492 184.758 113.388 184.686 113.268L184.266 112.512ZM207.946 123H205.594V112.704H199.474V119.844C199.474 120.324 199.59 120.684 199.822 120.924C200.062 121.156 200.366 121.272 200.734 121.272C200.95 121.272 201.134 121.244 201.286 121.188C201.446 121.132 201.582 121.072 201.694 121.008C201.806 120.936 201.902 120.872 201.982 120.816C202.062 120.76 202.134 120.732 202.198 120.732C202.278 120.732 202.338 120.752 202.378 120.792C202.426 120.824 202.474 120.88 202.522 120.96L203.218 122.088C202.834 122.44 202.378 122.712 201.85 122.904C201.322 123.096 200.774 123.192 200.206 123.192C199.222 123.192 198.462 122.916 197.926 122.364C197.398 121.812 197.134 121.024 197.134 120V112.704H195.718C195.582 112.704 195.466 112.664 195.37 112.584C195.282 112.496 195.238 112.368 195.238 112.2V111.252L197.23 110.976L197.746 107.34C197.778 107.204 197.838 107.1 197.926 107.028C198.022 106.948 198.142 106.908 198.286 106.908H199.474V111H207.946V123ZM208.474 106.968C208.474 107.184 208.43 107.392 208.342 107.592C208.254 107.784 208.134 107.956 207.982 108.108C207.838 108.252 207.666 108.368 207.466 108.456C207.266 108.536 207.058 108.576 206.842 108.576C206.626 108.576 206.422 108.536 206.23 108.456C206.038 108.368 205.866 108.252 205.714 108.108C205.57 107.956 205.454 107.784 205.366 107.592C205.286 107.392 205.246 107.184 205.246 106.968C205.246 106.744 205.286 106.532 205.366 106.332C205.454 106.132 205.57 105.96 205.714 105.816C205.866 105.664 206.038 105.548 206.23 105.468C206.422 105.38 206.626 105.336 206.842 105.336C207.058 105.336 207.266 105.38 207.466 105.468C207.666 105.548 207.838 105.664 207.982 105.816C208.134 105.96 208.254 106.132 208.342 106.332C208.43 106.532 208.474 106.744 208.474 106.968ZM216.539 110.616C217.435 110.616 218.243 110.764 218.963 111.06C219.691 111.348 220.307 111.768 220.811 112.32C221.323 112.864 221.715 113.524 221.987 114.3C222.259 115.068 222.395 115.932 222.395 116.892C222.395 117.852 222.259 118.72 221.987 119.496C221.715 120.272 221.323 120.932 220.811 121.476C220.307 122.02 219.691 122.44 218.963 122.736C218.243 123.024 217.435 123.168 216.539 123.168C215.635 123.168 214.819 123.024 214.091 122.736C213.371 122.44 212.755 122.02 212.243 121.476C211.731 120.932 211.335 120.272 211.055 119.496C210.783 118.72 210.647 117.852 210.647 116.892C210.647 115.932 210.783 115.068 211.055 114.3C211.335 113.524 211.731 112.864 212.243 112.32C212.755 111.768 213.371 111.348 214.091 111.06C214.819 110.764 215.635 110.616 216.539 110.616ZM216.539 121.344C217.691 121.344 218.551 120.956 219.119 120.18C219.687 119.404 219.971 118.312 219.971 116.904C219.971 115.496 219.687 114.404 219.119 113.628C218.551 112.844 217.691 112.452 216.539 112.452C215.371 112.452 214.499 112.844 213.923 113.628C213.355 114.404 213.071 115.496 213.071 116.904C213.071 118.312 213.355 119.404 213.923 120.18C214.499 120.956 215.371 121.344 216.539 121.344ZM227.203 112.5C227.467 112.22 227.743 111.964 228.031 111.732C228.319 111.5 228.623 111.304 228.943 111.144C229.271 110.976 229.619 110.848 229.987 110.76C230.363 110.664 230.763 110.616 231.187 110.616C231.859 110.616 232.447 110.728 232.951 110.952C233.463 111.176 233.891 111.492 234.235 111.9C234.579 112.3 234.839 112.784 235.015 113.352C235.191 113.92 235.279 114.548 235.279 115.236V123H232.927V115.236C232.927 114.364 232.727 113.688 232.327 113.208C231.927 112.72 231.315 112.476 230.491 112.476C229.891 112.476 229.327 112.62 228.799 112.908C228.279 113.188 227.795 113.572 227.347 114.06V123H225.007V110.808H226.411C226.739 110.808 226.943 110.964 227.023 111.276L227.203 112.5Z" fill="black"/>
<defs>
<clipPath id="clip0_21_171">
<rect width="91.91" height="86.9" fill="white" transform="translate(81)"/>
</clipPath>
</defs>
</svg>
