<svg width="214" height="126" viewBox="0 0 214 126" fill="none" xmlns="http://www.w3.org/2000/svg">
<g clip-path="url(#clip0_21_170)">
<path d="M133.44 67.03C131.14 64.43 124.33 60.89 126.11 56.83C127.64 53.38 134.94 53.83 134.06 49.65C133.54 47.18 132.87 45.08 134.46 42.29C136.19 39.24 141.36 40.9 143.15 38.07C144.7 35.63 142.69 31.88 145.88 30.25C148.7 28.81 152.11 31.63 152.62 34.12C153.26 37.25 150.17 38.71 149.77 41.43C149.52 43.16 151.1 43.76 152 44.97C152.949 46.2094 153.538 47.6872 153.7 49.24C153.87 53.56 149.14 54.11 146.9 56.86C144.82 59.4 148.65 61.04 148.07 63.8C147.45 66.8 143.21 68.41 140.22 68.37C138.1 68.34 134.82 68.64 133.44 67.03Z" fill="#01C7E2"/>
<path d="M136.44 68.45H136.39C136.368 68.4408 136.348 68.4268 136.332 68.409C136.316 68.3911 136.304 68.3699 136.297 68.3468C136.29 68.3238 136.289 68.2995 136.293 68.2758C136.297 68.2521 136.306 68.2296 136.32 68.21C139.005 63.8668 140.556 58.9187 140.83 53.82C140.99 48.5 143.2 45.09 145.01 42.3C146.11 40.61 147.06 39.14 147.21 37.66C147.217 37.6007 147.248 37.5467 147.294 37.5093C147.341 37.472 147.4 37.4543 147.46 37.46C147.488 37.4581 147.517 37.4627 147.543 37.4734C147.57 37.4841 147.594 37.5006 147.613 37.5218C147.632 37.5429 147.646 37.5681 147.654 37.5955C147.663 37.6229 147.664 37.6518 147.66 37.68C147.5 39.26 146.52 40.77 145.39 42.51C143.6 45.25 141.39 48.6 141.25 53.81C140.97 58.9741 139.395 63.9847 136.67 68.38C136.642 68.4127 136.606 68.4367 136.565 68.4492C136.524 68.4616 136.481 68.4619 136.44 68.45Z" fill="white"/>
<path d="M141.15 53.83C141.102 53.8204 141.06 53.7938 141.03 53.7551C141.001 53.7165 140.987 53.6684 140.99 53.62C141.002 53.5662 141.033 53.5185 141.077 53.4855C141.121 53.4524 141.175 53.4363 141.23 53.44C143.01 53.55 145.4 52.5 146.13 50.76L146.44 50.13C146.88 48.95 147.44 47.48 148.58 46.96C149.195 46.7087 149.885 46.7087 150.5 46.96C150.525 46.9687 150.548 46.9825 150.568 47.0007C150.587 47.0189 150.602 47.041 150.613 47.0655C150.623 47.09 150.628 47.1164 150.628 47.143C150.627 47.1696 150.621 47.1958 150.61 47.22C150.588 47.2722 150.546 47.3139 150.494 47.3363C150.442 47.3586 150.383 47.3599 150.33 47.34C150.08 47.2327 149.812 47.1773 149.54 47.1773C149.268 47.1773 149 47.2327 148.75 47.34C147.75 47.79 147.26 49.16 146.85 50.26C146.76 50.5 146.67 50.74 146.58 50.95C145.76 52.95 143.17 54.02 141.23 53.9L141.15 53.83Z" fill="white"/>
<path d="M139.88 53.63C139.145 53.4987 138.479 53.1128 138 52.54C137.651 51.989 137.443 51.3611 137.392 50.711C137.342 50.0609 137.451 49.4082 137.71 48.81C137.71 48.65 137.81 48.47 137.88 48.27C138.25 47.13 138.82 45.4 138.26 44.44C138.162 44.2762 138.03 44.1353 137.873 44.0266C137.716 43.918 137.538 43.8441 137.35 43.81C137.297 43.7937 137.252 43.7578 137.224 43.7095C137.196 43.6613 137.187 43.6043 137.2 43.55C137.218 43.4938 137.258 43.4468 137.31 43.4189C137.362 43.3909 137.423 43.3842 137.48 43.4C137.721 43.4513 137.95 43.5514 138.151 43.6941C138.352 43.8368 138.522 44.0192 138.65 44.23C139.3 45.35 138.65 47.18 138.3 48.38C138.23 48.57 138.18 48.75 138.13 48.91C137.896 49.4525 137.794 50.0432 137.834 50.6328C137.874 51.2225 138.054 51.7941 138.36 52.3C138.688 52.6582 139.091 52.9398 139.541 53.1247C139.99 53.3097 140.475 53.3934 140.96 53.37C140.987 53.3698 141.013 53.3753 141.038 53.3861C141.062 53.3968 141.084 53.4127 141.102 53.4325C141.12 53.4523 141.133 53.4757 141.142 53.5011C141.15 53.5265 141.153 53.5534 141.15 53.58C141.143 53.634 141.114 53.6829 141.071 53.7165C141.028 53.7501 140.974 53.7657 140.92 53.76C140.57 53.7451 140.223 53.7016 139.88 53.63Z" fill="white"/>
<path d="M138.86 65.94C138.618 65.8946 138.385 65.8102 138.17 65.69C138.151 65.675 138.136 65.656 138.126 65.6343C138.115 65.6127 138.11 65.589 138.11 65.565C138.11 65.5409 138.115 65.5172 138.126 65.4956C138.136 65.474 138.151 65.4549 138.17 65.44C138.206 65.4006 138.254 65.3744 138.306 65.3653C138.359 65.3563 138.413 65.3649 138.46 65.39C139.53 66.04 141.7 65.2 142.63 64.55C143.055 64.1887 143.426 63.7676 143.73 63.3C144.39 62.4 145.08 61.4599 146.16 61.4299C146.185 61.4271 146.211 61.4297 146.235 61.4375C146.259 61.4452 146.282 61.458 146.3 61.4751C146.319 61.4921 146.334 61.5129 146.345 61.5361C146.355 61.5594 146.36 61.5846 146.36 61.61C146.353 61.6613 146.328 61.7085 146.29 61.7432C146.251 61.778 146.202 61.7981 146.15 61.8C145.29 61.8 144.67 62.67 144.08 63.48C143.751 63.9855 143.346 64.4375 142.88 64.82C141.705 65.6377 140.288 66.0326 138.86 65.94Z" fill="white"/>
<path d="M137.11 65.55C136.852 65.498 136.603 65.4105 136.37 65.29C135.757 64.8698 135.233 64.3329 134.828 63.7101C134.423 63.0872 134.145 62.3905 134.01 61.66C133.958 60.938 134.04 60.2126 134.25 59.52C134.54 58.23 134.85 56.88 134.01 56.27C133.991 56.2531 133.975 56.2324 133.965 56.2091C133.954 56.1858 133.949 56.1605 133.949 56.135C133.949 56.1095 133.954 56.0842 133.965 56.0609C133.975 56.0377 133.991 56.0169 134.01 56C134.053 55.9633 134.108 55.9432 134.165 55.9432C134.222 55.9432 134.277 55.9633 134.32 56C135.32 56.76 135 58.28 134.7 59.62C134.495 60.2657 134.41 60.9436 134.45 61.62C134.702 62.9902 135.481 64.2071 136.62 65.01C137.079 65.2578 137.615 65.3221 138.12 65.19C138.169 65.1738 138.222 65.1773 138.269 65.1996C138.316 65.222 138.352 65.2616 138.37 65.31C138.376 65.3337 138.377 65.3583 138.373 65.3824C138.369 65.4064 138.36 65.4294 138.347 65.45C138.334 65.4706 138.317 65.4883 138.297 65.502C138.277 65.5158 138.254 65.5253 138.23 65.53C137.863 65.6203 137.48 65.6271 137.11 65.55Z" fill="white"/>
<path d="M64.77 66.93C61.32 69.26 58.54 70.99 54.83 67.5C53.9293 66.7089 53.2535 65.694 52.8707 64.5579C52.4879 63.4219 52.4118 62.2049 52.65 61.03C52.95 58.83 53.25 57.82 51.9 56.03C49.78 53.16 46.49 52.03 45.28 48.4C43.94 44.4 47.89 41.74 46.82 37.94C45.87 34.59 43.82 31.48 46.24 28.23C48.3 25.48 52.1 26.7 53.31 29.6C54 31.25 53.95 33.13 54.88 34.68C55.81 36.23 57.19 36.51 58.71 37C62.11 38.11 65.08 40.1 64.71 44.42C64.47 47.01 64.41 49.11 66.94 50.24C69.65 51.45 71.16 52.24 70.94 56.05C70.79 58.91 69.4 60.42 67.88 62.52C66.46 64.47 65.05 67.52 62.73 68.37L64.77 66.93Z" fill="#C2C3D4"/>
<path d="M65.2 65.55C64.6227 65.5087 64.0621 65.3378 63.56 65.05C61.5 63.87 60.94 60.86 60.43 58.15C60.2637 56.9582 59.9687 55.7881 59.55 54.66C58.4956 52.3583 56.8453 50.38 54.77 48.93C51.96 46.78 51.39 45.16 51.21 41.62C51.05 38.62 50.74 35.62 49.54 33.83C49.4941 33.7552 49.4789 33.6656 49.4975 33.5799C49.5161 33.4941 49.5672 33.4189 49.64 33.37C49.6681 33.3397 49.7021 33.3155 49.74 33.299C49.7778 33.2825 49.8187 33.2739 49.86 33.2739C49.9013 33.2739 49.9422 33.2825 49.98 33.299C50.0179 33.3155 50.0519 33.3397 50.08 33.37C51.36 35.27 51.68 38.42 51.84 41.48C52.01 44.9 52.52 46.37 55.2 48.42C57.3565 49.9296 59.0804 51.9775 60.2 54.36C60.6378 55.5329 60.9463 56.7501 61.12 57.99C61.6 60.6 62.12 63.5 63.98 64.56C64.8062 64.9939 65.7603 65.1181 66.67 64.91C66.7482 64.8882 66.8318 64.8981 66.9029 64.9373C66.974 64.9766 67.0268 65.0422 67.05 65.12C67.0557 65.1591 67.053 65.199 67.0421 65.2371C67.0312 65.2751 67.0124 65.3104 66.9869 65.3406C66.9614 65.3709 66.9297 65.3954 66.8941 65.4125C66.8584 65.4296 66.8195 65.439 66.78 65.44C66.2608 65.5486 65.7292 65.5856 65.2 65.55Z" fill="white"/>
<path d="M57.44 51.13C57.3718 51.1233 57.3063 51.0992 57.25 51.06C57.2205 51.0346 57.1967 51.0032 57.1805 50.9678C57.1642 50.9324 57.1558 50.8939 57.1558 50.855C57.1558 50.816 57.1642 50.7775 57.1805 50.7421C57.1967 50.7068 57.2205 50.6753 57.25 50.65C58.34 49.54 58 47.73 57.64 45.78C57.32 44.06 56.99 42.27 57.64 40.78C57.677 40.6983 57.7409 40.6319 57.821 40.5918C57.9011 40.5518 57.9926 40.5405 58.08 40.56C58.1198 40.5702 58.1566 40.5893 58.1878 40.616C58.219 40.6426 58.2437 40.6759 58.2601 40.7135C58.2765 40.7511 58.2841 40.7919 58.2824 40.8329C58.2806 40.8739 58.2696 40.9139 58.25 40.95C57.66 42.26 57.97 43.95 58.25 45.59C58.63 47.59 59.01 49.67 57.67 51.01C57.6076 51.0727 57.5272 51.1146 57.44 51.13Z" fill="white"/>
<path d="M60.09 55.13H59.97C59.5968 54.9649 59.2388 54.7675 58.9 54.54C58.399 54.1682 57.8095 53.9338 57.19 53.86C56.8037 53.8352 56.4162 53.8352 56.03 53.86C55.187 53.9483 54.3359 53.803 53.57 53.44C52.086 52.5517 50.8105 51.3546 49.83 49.93C49.66 49.7 49.45 49.33 49.22 48.93C48.9 48.38 48.31 47.35 48.06 47.28C48.0227 47.2721 47.9876 47.2564 47.9568 47.234C47.9261 47.2115 47.9004 47.1829 47.8815 47.1498C47.8626 47.1168 47.851 47.0801 47.8472 47.0422C47.8435 47.0043 47.8479 46.9661 47.86 46.93C47.881 46.8567 47.9284 46.7937 47.9929 46.7531C48.0575 46.7125 48.1348 46.6972 48.21 46.71C48.67 46.79 49.1 47.49 49.75 48.62C49.924 48.9416 50.1177 49.2522 50.33 49.55C51.2748 50.9111 52.4943 52.0591 53.91 52.92C54.5782 53.2406 55.3246 53.3622 56.06 53.27C56.4763 53.2455 56.8937 53.2455 57.31 53.27C58.0321 53.3489 58.7213 53.6143 59.31 54.04C59.6258 54.2507 59.9606 54.4315 60.31 54.58C60.3459 54.5935 60.3784 54.6147 60.4052 54.6423C60.432 54.6698 60.4523 54.7029 60.4647 54.7393C60.4771 54.7756 60.4814 54.8142 60.4771 54.8524C60.4728 54.8906 60.4601 54.9273 60.44 54.96C60.4032 55.018 60.3509 55.0647 60.2891 55.0947C60.2273 55.1247 60.1583 55.1369 60.09 55.13Z" fill="white"/>
<path d="M83.7099 9.78C84.0699 10.33 84.4299 11.41 85.0299 11.78C85.9157 12.1431 86.8787 12.2772 87.8299 12.17C87.3299 11.06 87.1899 8.53002 88.2999 7.55002C87.5699 7.10002 87.5399 8.55001 86.9899 7.95001C86.7899 7.73001 85.2499 5.35002 85.1099 5.08002C84.6799 5.59002 84.8499 7.32001 84.4399 8.73001C84.3895 8.93894 84.297 9.1354 84.168 9.30734C84.0391 9.47929 83.8764 9.6231 83.6899 9.73001L83.7099 9.78Z" fill="#E45940"/>
<path d="M87.3 1.53998C87.3 1.53998 91.19 1.97999 91.39 3.04999C91.59 4.11999 90.91 5.42996 90.89 6.11996C90.87 6.80996 91.4701 7.79996 91.4601 8.11996C91.4501 8.43996 90.5901 8.56997 90.4601 8.71997C90.3301 8.86997 89.11 10.72 88.33 10.86C87.55 11 84.6701 8.48997 84.5101 6.62997C84.5101 6.27997 83.99 5.62997 84.08 5.15997C84.44 3.35997 86.38 1.62998 87.3 1.53998Z" fill="#F88667"/>
<path d="M86.5 0.260014C84.89 1.3724e-05 85.88 0.89002 84.09 1.61002C83.8612 1.71151 83.6583 1.86341 83.4965 2.05439C83.3347 2.24537 83.2182 2.47046 83.1556 2.71283C83.0931 2.95521 83.0862 3.20857 83.1355 3.45398C83.1847 3.6994 83.2888 3.93051 83.44 4.13001C83.6 4.38001 83.53 4.63 83.29 5.06C83.15 5.94 84.68 7.91 85.15 7.31C85.26 7.17 84.83 6.25002 84.86 5.86002C84.77 5.21002 85.34 4.55001 85.86 5.13001C85.9654 5.2174 86.0517 5.3255 86.1137 5.44764C86.1756 5.56977 86.2118 5.70331 86.22 5.84C86.22 6.61 86.44 6.84 86.78 6.56C87.27 6.18 86.7 4.64001 87.09 4.32001C87.6014 3.88368 87.985 3.31692 88.2 2.68C88.95 1.91 88.12 0.510014 86.5 0.260014Z" fill="#110239"/>
<path d="M134.82 28.53H63.0701V74.4H134.82V28.53Z" fill="#E5E6ED"/>
<path d="M70.5999 37.07H67.1799V65.85H70.5999V37.07Z" fill="#110239"/>
<path d="M73.5599 37.07H71.8799V65.85H73.5599V37.07Z" fill="#110239"/>
<path d="M80.25 37.07H76.78V65.85H80.25V37.07Z" fill="#110239"/>
<path d="M83.4699 37.07H82.1699V65.85H83.4699V37.07Z" fill="#110239"/>
<path d="M88.9 37.07H87.78V65.85H88.9V37.07Z" fill="#110239"/>
<path d="M75.7401 37.07H74.6201V65.85H75.7401V37.07Z" fill="#110239"/>
<path d="M86.5999 37.07H84.9099V65.85H86.5999V37.07Z" fill="#110239"/>
<path d="M93.67 37.07H91V65.85H93.67V37.07Z" fill="#110239"/>
<path d="M96.5799 37.07H94.8999V65.85H96.5799V37.07Z" fill="#110239"/>
<path d="M98.9401 37.07H98.1001V65.85H98.9401V37.07Z" fill="#110239"/>
<path d="M105.36 37.07H104.78V65.85H105.36V37.07Z" fill="#110239"/>
<path d="M101.87 37.07H100.45V65.85H101.87V37.07Z" fill="#110239"/>
<path d="M109.4 37.07H108.69V65.85H109.4V37.07Z" fill="#110239"/>
<path d="M117.96 37.07H116.98V65.85H117.96V37.07Z" fill="#110239"/>
<path d="M127.48 37.07H126.5V65.85H127.48V37.07Z" fill="#110239"/>
<path d="M110.6 37.07H110.05V65.85H110.6V37.07Z" fill="#110239"/>
<path d="M116.11 37.07H115.68V65.85H116.11V37.07Z" fill="#110239"/>
<path d="M125.58 37.07H124.94V65.85H125.58V37.07Z" fill="#110239"/>
<path d="M103.87 37.07H102.45V65.85H103.87V37.07Z" fill="#110239"/>
<path d="M107.98 37.07H106.44V65.85H107.98V37.07Z" fill="#110239"/>
<path d="M115.34 37.07H114.14V65.85H115.34V37.07Z" fill="#110239"/>
<path d="M113.42 37.07H111.54V65.85H113.42V37.07Z" fill="#110239"/>
<path d="M121.4 37.07H118.76V65.85H121.4V37.07Z" fill="#110239"/>
<path d="M124.2 37.07H122.63V65.85H124.2V37.07Z" fill="#110239"/>
<path d="M130.88 37.07H128.79V65.85H130.88V37.07Z" fill="#110239"/>
<path d="M91.3301 14.19C91.3301 14.19 91.6201 14.44 91.9001 15.66C92.9001 19.8 93.8201 25.47 94.2401 26.66C94.7501 28.11 98.3501 35.58 98.3501 35.58L95.4401 37.65C95.4401 37.65 91.1701 29.45 90.6201 28.06L87.3601 19.65L91.3301 14.19Z" fill="#01C7E2"/>
<path d="M92.5499 28.13C91.0777 24.9395 90.0676 21.5555 89.5499 18.08L87.3699 19.67L90.6299 28.07C91.1799 29.46 95.4499 37.66 95.4499 37.66L96.1899 37.15C94.9299 33.86 94.2399 31.18 92.5499 28.13Z" fill="#00A7CC"/>
<path d="M77.5701 18.65C76.5701 21.01 74.9201 27.49 74.3501 28.54H88.4401C89.2301 25.6 90.1801 21.99 90.5301 20.33C90.9913 18.3045 91.2427 16.2369 91.2801 14.16C91.2801 14.16 89.1701 12.32 87.5401 11.22C87.5401 11.22 85.7701 12.89 83.7401 9.66998C83.7401 9.66998 79.0701 10.94 78.0601 11.3C77.6901 11.45 78.6801 16.02 77.5701 18.65Z" fill="#01C7E2"/>
<path d="M79.49 14.96C78.78 16.23 77.91 17.63 77.31 18.78C76.31 21.21 75.05 27.51 74.49 28.54H80.59C80.59 28.06 80.35 27.27 80.35 26.73C80.2783 25.2234 80.5201 23.7183 81.06 22.31C81.62 21.02 80.91 16.72 80.66 16.42C80.25 15.94 79.86 15.45 79.49 14.96Z" fill="#00A7CC"/>
<path d="M130.88 27.07C121.28 31.65 123.56 30.9 122 31.31C120.44 31.72 111.26 32.31 111.26 32.31L110.26 36.25C110.26 36.25 121.44 35.63 122.97 35.25C124.5 34.87 130.91 32.47 130.91 32.47L130.88 27.07Z" fill="#FD425F"/>
<path d="M115.44 32.55C115.589 32.8153 115.809 33.0331 116.076 33.1783C116.344 33.3234 116.647 33.3898 116.95 33.37C118.465 33.3534 119.977 33.2499 121.48 33.06C122.352 32.9888 123.213 32.8245 124.05 32.57C125.562 32.1372 127.039 31.5924 128.47 30.94C129.265 30.6318 130.076 30.3681 130.9 30.15V32.5C130.9 32.5 124.48 34.93 122.96 35.28C121.44 35.63 110.25 36.28 110.25 36.28L111.25 32.38C112.62 32.48 114.02 32.55 115.44 32.55Z" fill="#E01F41"/>
<path d="M132.19 73.49C132.422 74.1715 132.559 74.8813 132.6 75.6C132.6 76.52 132.54 77.49 132.26 77.72C131.7 78.18 124.58 78.24 124 77.59C123.42 76.94 123.81 75.86 125.31 75.5C126.275 75.3533 127.23 75.1462 128.17 74.88C128.458 74.7565 128.693 74.5353 128.834 74.2554C128.975 73.9755 129.012 73.6548 128.94 73.35L132.19 73.49Z" fill="#110239"/>
<path d="M147.8 72.13C148.261 72.6817 148.645 73.2941 148.94 73.95C149.27 74.8 149.55 75.74 149.37 76.05C149.01 76.68 142.37 79.28 141.61 78.87C140.85 78.46 140.81 77.33 142.09 76.45C142.937 75.9685 143.755 75.4376 144.54 74.86C144.766 74.6414 144.907 74.3503 144.94 74.0377C144.973 73.7251 144.895 73.4109 144.72 73.15L147.8 72.13Z" fill="#110239"/>
<path d="M132.24 43.24L141.83 44.31C141.83 44.31 133.25 58.02 132.6 60.22C131.95 62.42 132.84 74.39 132.84 74.39H128.5C128.5 74.39 127.57 60.26 127.78 59.19C127.99 58.12 132.24 43.24 132.24 43.24Z" fill="#110239"/>
<path d="M132.6 43.95H143.6C143.6 43.95 144.88 47.31 144.29 49.87C143.749 52.8246 143.441 55.8172 143.37 58.82C143.42 59.82 148.77 72.57 148.77 72.57L144.77 74.05C144.77 74.05 139.28 61.86 138.77 60.47C138.26 59.08 132.6 43.95 132.6 43.95Z" fill="#110239"/>
<path d="M133.07 21.3C133.955 21.3506 134.843 21.2834 135.71 21.1C136.021 21.0263 136.323 20.919 136.61 20.78C136.7 21.88 137.01 24.45 137.92 25.41C137.92 25.41 137.8 26.71 135.52 27.03C133.24 27.35 132.78 25.66 132.78 25.66C133.016 24.2192 133.113 22.7592 133.07 21.3Z" fill="#F88667"/>
<path d="M137.91 25.45C137.914 25.4832 137.914 25.5168 137.91 25.55C137.893 25.5977 137.872 25.6444 137.85 25.69L137.75 25.86C137.644 26.0114 137.52 26.1491 137.38 26.27C137.291 26.3469 137.194 26.4139 137.09 26.47C136.967 26.5379 136.84 26.598 136.71 26.65C136.562 26.0694 136.257 25.5403 135.83 25.12C135.099 24.3893 134.113 23.9701 133.08 23.95C133.189 23.0376 133.219 22.1176 133.17 21.2C134.055 21.2506 134.943 21.1834 135.81 21C136.121 20.9263 136.423 20.819 136.71 20.68C136.8 21.78 137.11 24.35 138.02 25.31L137.91 25.45Z" fill="#E45940"/>
<path d="M136.76 14.76C136.76 14.76 132.95 13.82 132.39 14.76C131.83 15.7 132.01 17.16 131.79 17.82C131.57 18.48 130.67 19.21 130.58 19.47C130.49 19.73 131.24 20.19 131.35 20.39C131.46 20.59 131.94 22.7 132.61 23.14C133.28 23.58 136.73 22.14 137.52 20.48C138.31 18.82 137.79 15.26 136.76 14.76Z" fill="#F88667"/>
<path d="M132.78 25.28C132.78 25.28 135.45 26.61 137.62 25.01C137.62 25.01 141.76 25.73 142.26 25.94C142.76 26.15 141.58 31.99 142.06 34.94C142.54 37.89 144.46 45.06 144.46 45.06C144.46 45.06 139.4 48.95 130.71 46.5C130.71 46.5 130.43 36.45 130.52 33.66C130.66 29.58 130.68 27.16 130.68 27.16C131.345 26.4954 132.046 25.8678 132.78 25.28Z" fill="#FD425F"/>
<path d="M139.1 41.54C139.552 40.0236 139.678 38.4286 139.47 36.86C139.18 35.12 140.47 32.86 140.66 31.06C140.85 29.26 141.1 27.88 142.35 26.83C142.27 28.62 141.69 32.66 142.06 34.95C142.54 37.95 144.46 45.07 144.46 45.07C141.814 46.7591 138.69 47.5418 135.56 47.3C137.8 45.94 138.44 44.13 139.1 41.54Z" fill="#E01F41"/>
<path d="M135.12 15.3C135.107 15.9713 135.272 16.634 135.6 17.22C135.85 17.66 134.78 18.91 135.12 19.44C135.34 19.79 135.64 19.68 135.89 18.96C135.944 18.8333 136.023 18.7191 136.123 18.6245C136.223 18.5299 136.341 18.4568 136.47 18.41C137.37 17.97 137.65 19.41 136.84 19.81C136.28 20.13 136.69 21.58 136.69 21.58C137.33 22.03 139.35 21.36 139.06 19.87C138.88 18.93 138.8 18.57 139.12 18.32C139.331 18.1854 139.509 18.0051 139.64 17.7926C139.772 17.5801 139.854 17.3407 139.881 17.0921C139.908 16.8435 139.879 16.5921 139.796 16.3563C139.712 16.1206 139.577 15.9065 139.4 15.73C137.96 14.43 139.19 13.94 137.59 13.62C135.99 13.3 134.73 14.32 135.12 15.3Z" fill="#110239"/>
<path d="M137.89 14.37C137.78 14.03 137.14 13.61 136.82 13.37C136.314 13.0473 135.75 12.8266 135.16 12.72C134.564 12.5851 133.946 12.5851 133.35 12.72C132.84 12.84 132.42 13.09 131.9 13.17C131.679 13.2295 131.447 13.2434 131.221 13.2107C130.994 13.178 130.776 13.0995 130.58 12.98C130.51 13.3736 130.51 13.7764 130.58 14.17C130.736 14.6407 130.984 15.0758 131.31 15.45C131.849 16.0402 132.555 16.4521 133.334 16.6308C134.113 16.8095 134.928 16.7464 135.67 16.45C136.338 16.2332 136.913 15.796 137.3 15.21C137.455 14.9028 137.654 14.6198 137.89 14.37Z" fill="#110239"/>
<path d="M77.3601 50.27C77.0323 50.1996 76.7136 50.0922 76.4101 49.95L76.0301 49.77C75.47 49.548 74.965 49.2068 74.5501 48.77C74.1616 48.3495 73.9015 47.8267 73.8005 47.2632C73.6995 46.6998 73.7618 46.1192 73.9801 45.59C74.1746 44.9791 74.4974 44.4168 74.9268 43.9408C75.3562 43.4649 75.8824 43.0861 76.4701 42.83C76.9827 42.6033 77.5309 42.4679 78.0901 42.43H78.2601C78.9944 42.2529 79.6635 41.8715 80.1901 41.33L80.2901 41.25C80.5301 41.04 80.7501 40.84 80.9801 40.62C81.2101 40.4 81.2901 40.31 81.4601 40.16C83.7001 38.16 86.9101 38.51 89.2001 39.16L89.0701 39.61C86.8901 38.98 83.8501 38.61 81.7701 40.49L81.3001 40.93C81.0701 41.15 80.8401 41.37 80.5901 41.59L80.4901 41.67C79.8958 42.2684 79.1429 42.6847 78.3201 42.87H78.1501C77.6396 42.903 77.1388 43.0248 76.6701 43.23C76.14 43.4574 75.6653 43.7967 75.2787 44.2248C74.8921 44.6529 74.6026 45.1595 74.4301 45.71C74.2266 46.1598 74.1626 46.6604 74.2464 47.1471C74.3301 47.6337 74.5579 48.084 74.9001 48.44C75.2722 48.8146 75.7231 49.1016 76.2201 49.28L76.6201 49.47C77.4746 49.8184 78.405 49.939 79.3201 49.82C79.8792 49.7754 80.441 49.7754 81.0001 49.82C81.634 49.8892 82.2755 49.8272 82.8845 49.638C83.4934 49.4487 84.057 49.1363 84.5401 48.72L84.6301 48.65C85.9646 47.4715 87.5268 46.5798 89.2201 46.03L89.5001 45.95C90.8901 45.55 91.8201 45.29 92.6201 44.06C92.9921 43.5395 93.2358 42.9385 93.3314 42.3059C93.4269 41.6733 93.3717 41.0271 93.1701 40.42C93.0057 40.098 92.757 39.8266 92.4506 39.6346C92.1443 39.4427 91.7916 39.3374 91.4301 39.33V38.87C91.8707 38.8843 92.2993 39.0173 92.6707 39.2549C93.042 39.4925 93.3424 39.8259 93.5401 40.22C93.7706 40.8995 93.8382 41.6236 93.7374 42.3341C93.6367 43.0445 93.3704 43.7213 92.9601 44.31C92.5695 44.8709 92.068 45.3457 91.4867 45.7052C90.9053 46.0647 90.2564 46.3011 89.5801 46.4L89.3001 46.47C87.6618 47.0084 86.1508 47.8762 84.8601 49.02L84.7801 49.09C84.2487 49.5456 83.6288 49.8865 82.9594 50.0913C82.29 50.2961 81.5855 50.3603 80.8901 50.28C80.3577 50.2351 79.8225 50.2351 79.2901 50.28C78.6489 50.3568 78.0005 50.3535 77.3601 50.27Z" fill="white"/>
<path d="M132.99 37.22L98.68 30.13C97.6721 29.9181 96.6232 30.0265 95.68 30.44L89.5 33.13C88.7723 33.4501 88.1314 33.9392 87.6305 34.5566C87.1297 35.174 86.7832 35.9019 86.62 36.68L86.18 38.8C86.0313 39.57 86.068 40.3642 86.2871 41.1172C86.5062 41.8701 86.9014 42.5601 87.44 43.13L92.04 48.06C92.742 48.807 93.6566 49.3202 94.66 49.53L128.97 56.64C130.258 56.898 131.596 56.6388 132.694 55.9184C133.793 55.1979 134.563 54.0742 134.84 52.79L136.84 43.05C137.086 41.768 136.822 40.4404 136.102 39.351C135.383 38.2616 134.266 37.4968 132.99 37.22ZM95.84 42.13C95.171 42.446 94.4105 42.5097 93.6983 42.3096C92.986 42.1095 92.37 41.6589 91.9636 41.0407C91.5571 40.4225 91.3876 39.6784 91.4862 38.9451C91.5847 38.2119 91.9447 37.5389 92.5 37.05C92.678 36.8696 92.8929 36.7297 93.13 36.64C93.7983 36.3305 94.5557 36.2716 95.2638 36.4741C95.972 36.6765 96.5837 37.1268 96.9875 37.7428C97.3913 38.3588 97.5602 39.0994 97.4633 39.8295C97.3665 40.5596 97.0104 41.2306 96.46 41.72C96.283 41.897 96.0721 42.0364 95.84 42.13Z" fill="#01C7E2"/>
<path d="M101.09 44.99L103.62 37.05L105.62 37.47C105.888 37.5248 106.152 37.5983 106.41 37.69C106.628 37.7779 106.836 37.8885 107.03 38.02C107.201 38.1498 107.344 38.3131 107.45 38.5C107.548 38.706 107.596 38.9321 107.59 39.16C107.609 39.3227 107.609 39.4872 107.59 39.65C107.566 39.7789 107.533 39.9059 107.49 40.03C107.17 41.03 106.6 41.45 105.78 41.4C105.965 41.4628 106.136 41.5619 106.282 41.6913C106.428 41.8208 106.547 41.9781 106.632 42.1541C106.716 42.33 106.765 42.5211 106.775 42.7161C106.785 42.9112 106.756 43.1062 106.69 43.29C106.69 43.41 106.63 43.52 106.6 43.65C106.43 44.316 106.016 44.894 105.44 45.27C104.842 45.5794 104.15 45.6543 103.5 45.48L101.09 44.99ZM103.09 44.21L103.55 44.3C103.715 44.3551 103.89 44.3738 104.062 44.3548C104.235 44.3358 104.401 44.2796 104.55 44.19C104.824 43.9618 105.014 43.6486 105.09 43.3C105.129 43.1961 105.159 43.089 105.18 42.98C105.253 42.7422 105.253 42.4878 105.18 42.25C105.096 42.1077 104.978 41.9886 104.837 41.903C104.695 41.8175 104.535 41.7684 104.37 41.76L103.96 41.67L103.09 44.21ZM104.24 40.59L104.65 40.68C104.96 40.7724 105.294 40.7401 105.58 40.59C105.834 40.3748 106.013 40.084 106.09 39.76C106.111 39.698 106.128 39.6345 106.14 39.57C106.173 39.4627 106.181 39.3493 106.164 39.2385C106.147 39.1276 106.104 39.0221 106.04 38.93C105.796 38.7055 105.489 38.5622 105.16 38.52L104.92 38.47L104.24 40.59Z" fill="white"/>
<path d="M106.81 46.13L109.34 38.19L111.34 38.61C111.642 38.6722 111.94 38.7557 112.23 38.86C112.468 38.9435 112.691 39.0651 112.89 39.22C113.07 39.3517 113.217 39.5227 113.32 39.72C113.416 39.93 113.464 40.159 113.46 40.39C113.484 40.5558 113.484 40.7242 113.46 40.89C113.46 41.01 113.4 41.14 113.36 41.27C113.234 41.7048 113.016 42.1072 112.72 42.45C112.451 42.732 112.102 42.9241 111.72 43V47.13L110.11 46.8L110.25 43L109.66 42.88L108.44 46.51L106.81 46.13ZM109.88 41.91L110.28 41.99C110.596 42.0857 110.937 42.0534 111.23 41.9C111.501 41.6899 111.691 41.3935 111.77 41.06C111.77 40.96 111.83 40.87 111.85 40.78C111.912 40.5746 111.912 40.3554 111.85 40.15C111.774 40.0245 111.669 39.9191 111.543 39.8426C111.418 39.766 111.276 39.7206 111.13 39.71L110.64 39.61L109.88 41.91Z" fill="white"/>
<path d="M112.1 47.27L116.24 39.66L118 40.03L117.05 48.3L115.55 47.98L115.81 46.15L114.5 45.88L113.63 47.59L112.1 47.27ZM114.98 44.92L115.98 45.12L116.5 41.84L114.98 44.92Z" fill="white"/>
<path d="M117.86 48.46L120.39 40.52L121.52 40.76L122.02 45.33L123.36 41.14L124.71 41.42L122.17 49.36L121.1 49.13L120.66 44.3L119.24 48.75L117.86 48.46Z" fill="white"/>
<path d="M123.38 49.61L125.91 41.67L127.91 42.08C128.336 42.1556 128.75 42.2902 129.14 42.48C129.418 42.6182 129.651 42.8334 129.81 43.1C129.942 43.3667 130.004 43.6627 129.99 43.96C129.984 44.1418 129.96 44.3226 129.92 44.5C129.877 44.7059 129.824 44.9095 129.76 45.11L128.84 47.98C128.695 48.492 128.458 48.9732 128.14 49.4C127.863 49.7293 127.488 49.9607 127.07 50.06C126.527 50.1835 125.963 50.1835 125.42 50.06L123.38 49.61ZM125.38 48.84L125.74 48.91C125.859 48.9236 125.98 48.9236 126.1 48.91H126.37C126.452 48.894 126.528 48.8559 126.59 48.8C126.654 48.7511 126.711 48.6939 126.76 48.63C126.825 48.5585 126.873 48.473 126.9 48.38C126.945 48.2855 126.985 48.1887 127.02 48.09C127.071 47.9697 127.115 47.8461 127.15 47.72L128.15 44.59C128.15 44.42 128.25 44.26 128.28 44.12C128.31 43.98 128.28 43.95 128.28 43.88C128.293 43.7993 128.287 43.7166 128.263 43.6385C128.238 43.5605 128.196 43.4891 128.14 43.43C127.958 43.2956 127.744 43.2096 127.52 43.18L127.18 43.11L125.38 48.84Z" fill="white"/>
<path d="M93.82 41.13C93.6811 41.2127 93.5336 41.2798 93.38 41.33C93.4552 42.1723 93.2751 43.0176 92.8631 43.7561C92.4511 44.4945 91.8262 45.0917 91.07 45.47C90.7079 45.6412 90.3335 45.7849 89.95 45.9L90.24 46.29C90.581 46.1768 90.9149 46.0432 91.24 45.89C92.1113 45.4638 92.8275 44.7757 93.2883 43.9222C93.7492 43.0686 93.9316 42.0924 93.81 41.13H93.82Z" fill="white"/>
<path d="M108.49 31.83C108.807 31.5278 109.208 31.3295 109.641 31.2616C110.073 31.1937 110.516 31.2594 110.91 31.45C111.49 31.7 111.52 32.32 111.61 33.24C111.711 33.7059 111.679 34.1907 111.52 34.64C110.79 35.18 110.76 33.11 110.64 32.58C110.64 32.58 110.93 34.77 110.54 34.96C109.82 35.29 109.85 33.27 109.76 32.76C109.891 33.2493 109.912 33.7617 109.82 34.26C109.82 34.65 109.51 34.58 109.44 34.53C109.07 34.31 109.07 32.65 109.07 32.65C109.07 32.95 109.3 34.03 108.83 33.81C108.52 33.66 108.5 33.2 108.44 32.95C108.323 32.5826 108.341 32.1855 108.49 31.83Z" fill="#F88667"/>
<path d="M140.01 41.45C139.25 41.45 138.34 41.57 137.57 41.57C137.21 41.57 136.85 41.51 136.5 41.49C136.15 41.47 135.82 41.41 135.69 41.65C135.56 41.89 136 42.02 136.17 42.06C136.34 42.1 136.95 42.06 137 42.42C137.05 42.78 136.15 43.04 135.79 43.2C135.43 43.36 134.57 43.66 135.15 43.98C135.54 44.2 136.36 43.7 136.69 43.57C136.268 43.6881 135.862 43.8559 135.48 44.07C135.26 44.2 134.81 44.38 134.81 44.63C134.81 44.88 135.64 44.78 135.81 44.69C136.139 44.5675 136.448 44.3992 136.73 44.19C136.38 44.37 135.11 44.91 135.53 45.35C135.78 45.62 136.78 44.86 137.17 44.7C136.95 44.9 136.3 45.01 136.35 45.43C136.35 45.65 136.75 45.48 136.93 45.38C137.11 45.28 137.4 45.05 137.65 44.93C137.84 44.8252 138.02 44.7048 138.19 44.57C138.637 44.3463 139.057 44.0711 139.44 43.75C139.777 43.3615 140.138 42.9941 140.52 42.65C139.82 42.38 140.56 41.84 140.01 41.45Z" fill="#F88667"/>
<path d="M138.91 41.25L139.97 43.72C139.97 43.72 150.97 40.15 150.46 37.26C150.01 34.72 143.6 26.26 142.21 25.92C140.34 25.51 139.58 29.98 140.66 31.06C142.93 33.34 146.17 36.56 145.9 37.06C145.63 37.56 138.91 41.25 138.91 41.25Z" fill="#FD425F"/>
<path d="M80.53 40.72C80.62 41.02 81.22 41.52 80.95 41.88C80.81 42.06 80.28 41.59 80.16 41.41C79.6503 40.4717 79.206 39.4994 78.83 38.5C78.72 38.05 78.62 37.6 78.5 37.18C78.9864 36.9509 79.4404 36.6583 79.85 36.31C80.46 36.68 81.1 37.16 81.7 37.5C82.02 37.69 82.38 37.83 82.7 37.99C83.02 38.15 83.36 38.26 83.35 38.56C83.34 38.86 82.88 38.73 82.7 38.68C82.52 38.63 81.99 38.29 81.77 38.57C81.55 38.85 82.22 39.57 82.46 39.91C82.7 40.25 83.54 41.18 82.84 41.17C82.4184 40.8495 82.0268 40.4914 81.67 40.1C81.67 40.1 82.26 40.82 82.28 40.86C82.42 41.1 82.84 41.6 82.68 41.81C82.33 42.26 81.43 40.88 81.29 40.7L81.63 41.24C81.92 41.65 82.1 41.99 81.8 42.08C81.5 42.17 80.8 41.13 80.53 40.72Z" fill="#F88667"/>
<path d="M80.7099 36.41L78.1699 37.98C78.1699 37.98 72.5799 28.26 72.4799 25.46C72.3999 23.2 72.8599 20.4 75.0599 15.46C76.4599 12.29 77.9799 11.02 78.6099 11.27C79.0599 11.45 81.6099 12.58 80.3499 16.47C79.9099 17.83 77.0599 23.61 77.0099 24.17C76.9599 24.73 80.7099 36.41 80.7099 36.41Z" fill="#01C7E2"/>
<path d="M94.22 37.6C94.5337 37.9073 94.9354 38.109 95.3692 38.1772C95.803 38.2453 96.2472 38.1764 96.64 37.98C97.22 37.74 97.25 37.11 97.34 36.2C97.4409 35.7341 97.4098 35.2492 97.25 34.8C96.52 34.26 96.49 36.33 96.37 36.85C96.37 36.85 96.66 34.67 96.27 34.48C95.55 34.15 95.58 36.17 95.49 36.67C95.621 36.1841 95.6415 35.6749 95.55 35.18C95.55 34.78 95.24 34.86 95.17 34.9C94.8 35.13 94.8 36.78 94.8 36.78C94.8 36.49 95.03 35.41 94.56 35.63C94.25 35.77 94.23 36.24 94.17 36.49C94.048 36.8533 94.0658 37.2491 94.22 37.6Z" fill="#F88667"/>
<path d="M93.0299 1.32999C93.0299 1.32999 94.1199 2.89996 91.5799 3.95996C89.0399 5.01996 85.3799 2.23996 85.3799 2.23996C85.3799 2.23996 85.4799 0.85996 87.4999 0.23996C89.0199 -0.20004 90.4399 -0.14004 91.2099 0.73996C92.5299 2.25996 93.0299 1.32999 93.0299 1.32999Z" fill="#110239"/>
</g>
<path d="M25.4909 115.972C26.1389 115.972 26.6909 115.896 27.1469 115.744C27.6109 115.592 27.9869 115.384 28.2749 115.12C28.5709 114.856 28.7869 114.544 28.9229 114.184C29.0589 113.816 29.1269 113.416 29.1269 112.984C29.1269 112.128 28.8309 111.456 28.2389 110.968C27.6469 110.472 26.7309 110.224 25.4909 110.224H21.8909V115.972H25.4909ZM21.8909 102.772V108.412H24.8309C26.0869 108.412 27.0189 108.16 27.6269 107.656C28.2429 107.144 28.5509 106.456 28.5509 105.592C28.5509 104.608 28.2589 103.892 27.6749 103.444C27.0909 102.996 26.1829 102.772 24.9509 102.772H21.8909ZM24.9509 100.768C26.0309 100.768 26.9549 100.872 27.7229 101.08C28.4989 101.288 29.1349 101.588 29.6309 101.98C30.1269 102.372 30.4909 102.848 30.7229 103.408C30.9629 103.96 31.0829 104.588 31.0829 105.292C31.0829 105.708 31.0189 106.108 30.8909 106.492C30.7629 106.876 30.5669 107.236 30.3029 107.572C30.0389 107.9 29.7069 108.196 29.3069 108.46C28.9069 108.724 28.4349 108.944 27.8909 109.12C30.3949 109.616 31.6469 110.924 31.6469 113.044C31.6469 113.78 31.5109 114.452 31.2389 115.06C30.9669 115.66 30.5709 116.18 30.0509 116.62C29.5309 117.06 28.8909 117.4 28.1309 117.64C27.3709 117.88 26.5069 118 25.5389 118H19.3349V100.768H24.9509ZM44.3465 105.808V118H42.9425C42.6225 118 42.4145 117.844 42.3185 117.532L42.1505 116.308C41.8865 116.588 41.6105 116.844 41.3225 117.076C41.0345 117.308 40.7265 117.508 40.3985 117.676C40.0705 117.836 39.7225 117.96 39.3545 118.048C38.9865 118.144 38.5905 118.192 38.1665 118.192C37.4945 118.192 36.9025 118.08 36.3905 117.856C35.8865 117.632 35.4625 117.32 35.1185 116.92C34.7745 116.512 34.5145 116.024 34.3385 115.456C34.1625 114.888 34.0745 114.26 34.0745 113.572V105.808H36.4265V113.572C36.4265 114.444 36.6265 115.124 37.0265 115.612C37.4265 116.092 38.0385 116.332 38.8625 116.332C39.4625 116.332 40.0225 116.192 40.5425 115.912C41.0625 115.624 41.5505 115.232 42.0065 114.736V105.808H44.3465ZM54.8008 107.908C54.7368 108.012 54.6688 108.088 54.5968 108.136C54.5248 108.176 54.4328 108.196 54.3208 108.196C54.1928 108.196 54.0488 108.152 53.8888 108.064C53.7368 107.976 53.5488 107.88 53.3248 107.776C53.1088 107.672 52.8528 107.576 52.5568 107.488C52.2608 107.4 51.9088 107.356 51.5008 107.356C51.1648 107.356 50.8568 107.4 50.5768 107.488C50.3048 107.568 50.0728 107.684 49.8808 107.836C49.6888 107.98 49.5408 108.156 49.4368 108.364C49.3328 108.564 49.2808 108.78 49.2808 109.012C49.2808 109.316 49.3688 109.568 49.5448 109.768C49.7288 109.968 49.9648 110.14 50.2528 110.284C50.5488 110.428 50.8808 110.56 51.2488 110.68C51.6248 110.792 52.0048 110.912 52.3888 111.04C52.7808 111.168 53.1608 111.316 53.5288 111.484C53.9048 111.644 54.2368 111.848 54.5248 112.096C54.8208 112.336 55.0568 112.628 55.2328 112.972C55.4168 113.316 55.5088 113.736 55.5088 114.232C55.5088 114.8 55.4048 115.328 55.1968 115.816C54.9968 116.296 54.6968 116.712 54.2968 117.064C53.9048 117.416 53.4168 117.692 52.8328 117.892C52.2488 118.092 51.5808 118.192 50.8288 118.192C49.9888 118.192 49.2128 118.052 48.5008 117.772C47.7888 117.492 47.1928 117.136 46.7128 116.704L47.2648 115.804C47.3288 115.692 47.4088 115.608 47.5048 115.552C47.6008 115.488 47.7288 115.456 47.8888 115.456C48.0408 115.456 48.1968 115.512 48.3568 115.624C48.5168 115.736 48.7088 115.86 48.9328 115.996C49.1568 116.124 49.4288 116.244 49.7488 116.356C50.0688 116.46 50.4688 116.512 50.9488 116.512C51.3488 116.512 51.6968 116.464 51.9928 116.368C52.2888 116.264 52.5328 116.128 52.7248 115.96C52.9248 115.784 53.0728 115.584 53.1688 115.36C53.2648 115.136 53.3128 114.9 53.3128 114.652C53.3128 114.332 53.2208 114.068 53.0368 113.86C52.8608 113.644 52.6248 113.46 52.3288 113.308C52.0408 113.156 51.7088 113.024 51.3328 112.912C50.9568 112.8 50.5728 112.68 50.1808 112.552C49.7888 112.424 49.4048 112.276 49.0288 112.108C48.6528 111.94 48.3168 111.728 48.0208 111.472C47.7328 111.216 47.4968 110.904 47.3128 110.536C47.1368 110.168 47.0488 109.72 47.0488 109.192C47.0488 108.72 47.1448 108.268 47.3368 107.836C47.5368 107.404 47.8208 107.024 48.1888 106.696C48.5648 106.368 49.0248 106.108 49.5688 105.916C50.1208 105.716 50.7488 105.616 51.4528 105.616C52.2608 105.616 52.9888 105.744 53.6368 106C54.2928 106.256 54.8528 106.608 55.3168 107.056L54.8008 107.908ZM60.4904 105.808V118H58.1504V105.808H60.4904ZM60.9344 102.04C60.9344 102.256 60.8904 102.464 60.8024 102.664C60.7144 102.856 60.5944 103.028 60.4424 103.18C60.2984 103.324 60.1264 103.44 59.9264 103.528C59.7264 103.608 59.5184 103.648 59.3024 103.648C59.0864 103.648 58.8824 103.608 58.6904 103.528C58.4984 103.44 58.3264 103.324 58.1744 103.18C58.0304 103.028 57.9144 102.856 57.8264 102.664C57.7464 102.464 57.7064 102.256 57.7064 102.04C57.7064 101.816 57.7464 101.608 57.8264 101.416C57.9144 101.216 58.0304 101.044 58.1744 100.9C58.3264 100.748 58.4984 100.632 58.6904 100.552C58.8824 100.464 59.0864 100.42 59.3024 100.42C59.5184 100.42 59.7264 100.464 59.9264 100.552C60.1264 100.632 60.2984 100.748 60.4424 100.9C60.5944 101.044 60.7144 101.216 60.8024 101.416C60.8904 101.608 60.9344 101.816 60.9344 102.04ZM66.0744 107.5C66.3384 107.22 66.6144 106.964 66.9024 106.732C67.1904 106.5 67.4944 106.304 67.8144 106.144C68.1424 105.976 68.4904 105.848 68.8584 105.76C69.2344 105.664 69.6344 105.616 70.0584 105.616C70.7304 105.616 71.3184 105.728 71.8224 105.952C72.3344 106.176 72.7624 106.492 73.1064 106.9C73.4504 107.3 73.7104 107.784 73.8864 108.352C74.0624 108.92 74.1504 109.548 74.1504 110.236V118H71.7984V110.236C71.7984 109.364 71.5984 108.688 71.1984 108.208C70.7984 107.72 70.1864 107.476 69.3624 107.476C68.7624 107.476 68.1984 107.62 67.6704 107.908C67.1504 108.188 66.6664 108.572 66.2184 109.06V118H63.8784V105.808H65.2824C65.6104 105.808 65.8144 105.964 65.8944 106.276L66.0744 107.5ZM85.3841 110.548C85.3841 110.084 85.3161 109.656 85.1801 109.264C85.0521 108.872 84.8601 108.532 84.6041 108.244C84.3481 107.956 84.0361 107.732 83.6681 107.572C83.3001 107.412 82.8761 107.332 82.3961 107.332C81.4121 107.332 80.6361 107.616 80.0681 108.184C79.5081 108.752 79.1521 109.54 79.0001 110.548H85.3841ZM87.3161 116.26C87.0281 116.596 86.6961 116.888 86.3201 117.136C85.9441 117.376 85.5441 117.572 85.1201 117.724C84.6961 117.876 84.2561 117.988 83.8001 118.06C83.3521 118.132 82.9081 118.168 82.4681 118.168C81.6281 118.168 80.8481 118.028 80.1281 117.748C79.4161 117.46 78.7961 117.044 78.2681 116.5C77.7481 115.948 77.3401 115.268 77.0441 114.46C76.7561 113.644 76.6121 112.708 76.6121 111.652C76.6121 110.804 76.7441 110.016 77.0081 109.288C77.2721 108.552 77.6481 107.912 78.1361 107.368C78.6321 106.824 79.2361 106.396 79.9481 106.084C80.6601 105.772 81.4601 105.616 82.3481 105.616C83.0921 105.616 83.7761 105.74 84.4001 105.988C85.0321 106.228 85.5761 106.58 86.0321 107.044C86.4881 107.508 86.8441 108.08 87.1001 108.76C87.3641 109.44 87.4961 110.216 87.4961 111.088C87.4961 111.448 87.4561 111.692 87.3761 111.82C87.2961 111.94 87.1481 112 86.9321 112H78.9401C78.9641 112.728 79.0681 113.364 79.2521 113.908C79.4361 114.444 79.6881 114.892 80.0081 115.252C80.3361 115.612 80.7241 115.88 81.1721 116.056C81.6201 116.232 82.1201 116.32 82.6721 116.32C83.1921 116.32 83.6401 116.26 84.0161 116.14C84.4001 116.02 84.7281 115.892 85.0001 115.756C85.2801 115.612 85.5121 115.48 85.6961 115.36C85.8881 115.24 86.0561 115.18 86.2001 115.18C86.3921 115.18 86.5401 115.252 86.6441 115.396L87.3161 116.26ZM97.1992 107.908C97.1352 108.012 97.0672 108.088 96.9952 108.136C96.9232 108.176 96.8312 108.196 96.7192 108.196C96.5912 108.196 96.4472 108.152 96.2872 108.064C96.1352 107.976 95.9472 107.88 95.7232 107.776C95.5072 107.672 95.2512 107.576 94.9552 107.488C94.6592 107.4 94.3072 107.356 93.8992 107.356C93.5632 107.356 93.2552 107.4 92.9752 107.488C92.7032 107.568 92.4712 107.684 92.2792 107.836C92.0872 107.98 91.9392 108.156 91.8352 108.364C91.7312 108.564 91.6792 108.78 91.6792 109.012C91.6792 109.316 91.7672 109.568 91.9432 109.768C92.1272 109.968 92.3632 110.14 92.6512 110.284C92.9472 110.428 93.2792 110.56 93.6472 110.68C94.0232 110.792 94.4032 110.912 94.7872 111.04C95.1792 111.168 95.5592 111.316 95.9272 111.484C96.3032 111.644 96.6352 111.848 96.9232 112.096C97.2192 112.336 97.4552 112.628 97.6312 112.972C97.8152 113.316 97.9072 113.736 97.9072 114.232C97.9072 114.8 97.8032 115.328 97.5952 115.816C97.3952 116.296 97.0952 116.712 96.6952 117.064C96.3032 117.416 95.8152 117.692 95.2312 117.892C94.6472 118.092 93.9792 118.192 93.2272 118.192C92.3872 118.192 91.6112 118.052 90.8992 117.772C90.1872 117.492 89.5912 117.136 89.1112 116.704L89.6632 115.804C89.7272 115.692 89.8072 115.608 89.9032 115.552C89.9992 115.488 90.1272 115.456 90.2872 115.456C90.4392 115.456 90.5952 115.512 90.7552 115.624C90.9152 115.736 91.1072 115.86 91.3312 115.996C91.5552 116.124 91.8272 116.244 92.1472 116.356C92.4672 116.46 92.8672 116.512 93.3472 116.512C93.7472 116.512 94.0952 116.464 94.3912 116.368C94.6872 116.264 94.9312 116.128 95.1232 115.96C95.3232 115.784 95.4712 115.584 95.5672 115.36C95.6632 115.136 95.7112 114.9 95.7112 114.652C95.7112 114.332 95.6192 114.068 95.4352 113.86C95.2592 113.644 95.0232 113.46 94.7272 113.308C94.4392 113.156 94.1072 113.024 93.7312 112.912C93.3552 112.8 92.9712 112.68 92.5792 112.552C92.1872 112.424 91.8032 112.276 91.4272 112.108C91.0512 111.94 90.7152 111.728 90.4192 111.472C90.1312 111.216 89.8952 110.904 89.7112 110.536C89.5352 110.168 89.4472 109.72 89.4472 109.192C89.4472 108.72 89.5432 108.268 89.7352 107.836C89.9352 107.404 90.2192 107.024 90.5872 106.696C90.9632 106.368 91.4232 106.108 91.9672 105.916C92.5192 105.716 93.1472 105.616 93.8512 105.616C94.6592 105.616 95.3872 105.744 96.0352 106C96.6912 106.256 97.2512 106.608 97.7152 107.056L97.1992 107.908ZM107.629 107.908C107.565 108.012 107.497 108.088 107.425 108.136C107.353 108.176 107.261 108.196 107.149 108.196C107.021 108.196 106.877 108.152 106.717 108.064C106.565 107.976 106.377 107.88 106.153 107.776C105.937 107.672 105.681 107.576 105.385 107.488C105.089 107.4 104.737 107.356 104.329 107.356C103.993 107.356 103.685 107.4 103.405 107.488C103.133 107.568 102.901 107.684 102.709 107.836C102.517 107.98 102.369 108.156 102.265 108.364C102.161 108.564 102.109 108.78 102.109 109.012C102.109 109.316 102.197 109.568 102.373 109.768C102.557 109.968 102.793 110.14 103.081 110.284C103.377 110.428 103.709 110.56 104.077 110.68C104.453 110.792 104.833 110.912 105.217 111.04C105.609 111.168 105.989 111.316 106.357 111.484C106.733 111.644 107.065 111.848 107.353 112.096C107.649 112.336 107.885 112.628 108.061 112.972C108.245 113.316 108.337 113.736 108.337 114.232C108.337 114.8 108.233 115.328 108.025 115.816C107.825 116.296 107.525 116.712 107.125 117.064C106.733 117.416 106.245 117.692 105.661 117.892C105.077 118.092 104.409 118.192 103.657 118.192C102.817 118.192 102.041 118.052 101.329 117.772C100.617 117.492 100.021 117.136 99.5409 116.704L100.093 115.804C100.157 115.692 100.237 115.608 100.333 115.552C100.429 115.488 100.557 115.456 100.717 115.456C100.869 115.456 101.025 115.512 101.185 115.624C101.345 115.736 101.537 115.86 101.761 115.996C101.985 116.124 102.257 116.244 102.577 116.356C102.897 116.46 103.297 116.512 103.777 116.512C104.177 116.512 104.525 116.464 104.821 116.368C105.117 116.264 105.361 116.128 105.553 115.96C105.753 115.784 105.901 115.584 105.997 115.36C106.093 115.136 106.141 114.9 106.141 114.652C106.141 114.332 106.049 114.068 105.865 113.86C105.689 113.644 105.453 113.46 105.157 113.308C104.869 113.156 104.537 113.024 104.161 112.912C103.785 112.8 103.401 112.68 103.009 112.552C102.617 112.424 102.233 112.276 101.857 112.108C101.481 111.94 101.145 111.728 100.849 111.472C100.561 111.216 100.325 110.904 100.141 110.536C99.9649 110.168 99.8769 109.72 99.8769 109.192C99.8769 108.72 99.9729 108.268 100.165 107.836C100.365 107.404 100.649 107.024 101.017 106.696C101.393 106.368 101.853 106.108 102.397 105.916C102.949 105.716 103.577 105.616 104.281 105.616C105.089 105.616 105.817 105.744 106.465 106C107.121 106.256 107.681 106.608 108.145 107.056L107.629 107.908ZM127.285 115.852V118H117.421V100.768H119.977V115.852H127.285ZM136.572 110.548C136.572 110.084 136.504 109.656 136.368 109.264C136.24 108.872 136.048 108.532 135.792 108.244C135.536 107.956 135.224 107.732 134.856 107.572C134.488 107.412 134.064 107.332 133.584 107.332C132.6 107.332 131.824 107.616 131.256 108.184C130.696 108.752 130.34 109.54 130.188 110.548H136.572ZM138.504 116.26C138.216 116.596 137.884 116.888 137.508 117.136C137.132 117.376 136.732 117.572 136.308 117.724C135.884 117.876 135.444 117.988 134.988 118.06C134.54 118.132 134.096 118.168 133.656 118.168C132.816 118.168 132.036 118.028 131.316 117.748C130.604 117.46 129.984 117.044 129.456 116.5C128.936 115.948 128.528 115.268 128.232 114.46C127.944 113.644 127.8 112.708 127.8 111.652C127.8 110.804 127.932 110.016 128.196 109.288C128.46 108.552 128.836 107.912 129.324 107.368C129.82 106.824 130.424 106.396 131.136 106.084C131.848 105.772 132.648 105.616 133.536 105.616C134.28 105.616 134.964 105.74 135.588 105.988C136.22 106.228 136.764 106.58 137.22 107.044C137.676 107.508 138.032 108.08 138.288 108.76C138.552 109.44 138.684 110.216 138.684 111.088C138.684 111.448 138.644 111.692 138.564 111.82C138.484 111.94 138.336 112 138.12 112H130.128C130.152 112.728 130.256 113.364 130.44 113.908C130.624 114.444 130.876 114.892 131.196 115.252C131.524 115.612 131.912 115.88 132.36 116.056C132.808 116.232 133.308 116.32 133.86 116.32C134.38 116.32 134.828 116.26 135.204 116.14C135.588 116.02 135.916 115.892 136.188 115.756C136.468 115.612 136.7 115.48 136.884 115.36C137.076 115.24 137.244 115.18 137.388 115.18C137.58 115.18 137.728 115.252 137.832 115.396L138.504 116.26ZM145.483 111.916C145.899 111.916 146.263 111.86 146.575 111.748C146.895 111.636 147.159 111.48 147.367 111.28C147.583 111.072 147.743 110.824 147.847 110.536C147.959 110.248 148.015 109.932 148.015 109.588C148.015 108.884 147.799 108.324 147.367 107.908C146.943 107.484 146.315 107.272 145.483 107.272C144.659 107.272 144.031 107.484 143.599 107.908C143.175 108.324 142.963 108.884 142.963 109.588C142.963 109.932 143.015 110.248 143.119 110.536C143.231 110.816 143.391 111.06 143.599 111.268C143.815 111.468 144.079 111.628 144.391 111.748C144.711 111.86 145.075 111.916 145.483 111.916ZM149.215 118.636C149.215 118.348 149.135 118.12 148.975 117.952C148.815 117.776 148.595 117.64 148.315 117.544C148.043 117.44 147.723 117.368 147.355 117.328C146.987 117.28 146.599 117.244 146.191 117.22C145.791 117.196 145.379 117.176 144.955 117.16C144.531 117.136 144.123 117.096 143.731 117.04C143.315 117.248 142.971 117.5 142.699 117.796C142.435 118.092 142.303 118.44 142.303 118.84C142.303 119.096 142.367 119.336 142.495 119.56C142.631 119.784 142.835 119.976 143.107 120.136C143.387 120.304 143.735 120.432 144.151 120.52C144.575 120.616 145.079 120.664 145.663 120.664C146.239 120.664 146.747 120.612 147.187 120.508C147.627 120.412 147.995 120.272 148.291 120.088C148.595 119.912 148.823 119.7 148.975 119.452C149.135 119.204 149.215 118.932 149.215 118.636ZM151.591 106.264V107.14C151.591 107.428 151.411 107.608 151.051 107.68L149.743 107.872C149.855 108.12 149.943 108.384 150.007 108.664C150.071 108.936 150.103 109.224 150.103 109.528C150.103 110.128 149.987 110.672 149.755 111.16C149.523 111.64 149.203 112.052 148.795 112.396C148.387 112.74 147.899 113.004 147.331 113.188C146.771 113.372 146.155 113.464 145.483 113.464C144.931 113.464 144.415 113.404 143.935 113.284C143.695 113.428 143.511 113.588 143.383 113.764C143.263 113.932 143.203 114.1 143.203 114.268C143.203 114.548 143.319 114.756 143.551 114.892C143.791 115.028 144.099 115.128 144.475 115.192C144.859 115.248 145.295 115.284 145.783 115.3C146.279 115.316 146.779 115.344 147.283 115.384C147.795 115.416 148.295 115.48 148.783 115.576C149.279 115.664 149.715 115.812 150.091 116.02C150.475 116.22 150.783 116.5 151.015 116.86C151.255 117.212 151.375 117.672 151.375 118.24C151.375 118.768 151.243 119.28 150.979 119.776C150.723 120.272 150.347 120.712 149.851 121.096C149.355 121.48 148.751 121.788 148.039 122.02C147.327 122.252 146.519 122.368 145.615 122.368C144.711 122.368 143.923 122.28 143.251 122.104C142.587 121.928 142.031 121.692 141.583 121.396C141.143 121.1 140.811 120.756 140.587 120.364C140.371 119.972 140.263 119.564 140.263 119.14C140.263 118.548 140.447 118.048 140.815 117.64C141.183 117.224 141.691 116.9 142.339 116.668C141.987 116.508 141.707 116.292 141.499 116.02C141.291 115.74 141.187 115.372 141.187 114.916C141.187 114.74 141.219 114.56 141.283 114.376C141.347 114.184 141.443 113.996 141.571 113.812C141.707 113.62 141.871 113.44 142.063 113.272C142.263 113.104 142.491 112.952 142.747 112.816C142.147 112.48 141.675 112.036 141.331 111.484C140.987 110.924 140.815 110.272 140.815 109.528C140.815 108.928 140.931 108.388 141.163 107.908C141.395 107.428 141.715 107.016 142.123 106.672C142.539 106.328 143.031 106.064 143.599 105.88C144.175 105.696 144.803 105.604 145.483 105.604C146.539 105.604 147.447 105.824 148.207 106.264H151.591ZM160.29 112.588C159.338 112.62 158.53 112.696 157.866 112.816C157.202 112.928 156.662 113.08 156.246 113.272C155.83 113.464 155.53 113.692 155.346 113.956C155.162 114.212 155.07 114.5 155.07 114.82C155.07 115.124 155.118 115.388 155.214 115.612C155.318 115.828 155.454 116.008 155.622 116.152C155.798 116.288 156.002 116.388 156.234 116.452C156.466 116.516 156.718 116.548 156.99 116.548C157.35 116.548 157.678 116.512 157.974 116.44C158.278 116.368 158.562 116.268 158.826 116.14C159.09 116.004 159.342 115.84 159.582 115.648C159.822 115.456 160.058 115.236 160.29 114.988V112.588ZM153.426 107.512C154.106 106.864 154.842 106.38 155.634 106.06C156.434 105.74 157.31 105.58 158.262 105.58C158.958 105.58 159.574 105.696 160.11 105.928C160.646 106.152 161.098 106.468 161.466 106.876C161.834 107.284 162.11 107.772 162.294 108.34C162.486 108.908 162.582 109.536 162.582 110.224V118H161.538C161.306 118 161.13 117.964 161.01 117.892C160.89 117.812 160.794 117.668 160.722 117.46L160.47 116.392C160.158 116.68 159.85 116.936 159.546 117.16C159.242 117.376 158.922 117.564 158.586 117.724C158.258 117.876 157.906 117.992 157.53 118.072C157.154 118.152 156.738 118.192 156.282 118.192C155.802 118.192 155.35 118.128 154.926 118C154.51 117.864 154.146 117.66 153.834 117.388C153.522 117.116 153.274 116.776 153.09 116.368C152.914 115.96 152.826 115.484 152.826 114.94C152.826 114.46 152.954 114 153.21 113.56C153.474 113.112 153.898 112.712 154.482 112.36C155.074 112.008 155.842 111.72 156.786 111.496C157.738 111.272 158.906 111.144 160.29 111.112V110.224C160.29 109.304 160.094 108.616 159.702 108.16C159.31 107.704 158.734 107.476 157.974 107.476C157.462 107.476 157.03 107.54 156.678 107.668C156.334 107.796 156.034 107.94 155.778 108.1C155.53 108.252 155.31 108.392 155.118 108.52C154.934 108.648 154.742 108.712 154.542 108.712C154.382 108.712 154.242 108.668 154.122 108.58C154.01 108.492 153.918 108.388 153.846 108.268L153.426 107.512ZM168.114 100.288V118H165.762V100.288H168.114ZM173.905 105.808V118H171.565V105.808H173.905ZM174.349 102.04C174.349 102.256 174.305 102.464 174.217 102.664C174.129 102.856 174.009 103.028 173.857 103.18C173.713 103.324 173.541 103.44 173.34 103.528C173.141 103.608 172.933 103.648 172.717 103.648C172.501 103.648 172.297 103.608 172.105 103.528C171.913 103.44 171.741 103.324 171.589 103.18C171.445 103.028 171.329 102.856 171.241 102.664C171.161 102.464 171.121 102.256 171.121 102.04C171.121 101.816 171.161 101.608 171.241 101.416C171.329 101.216 171.445 101.044 171.589 100.9C171.741 100.748 171.913 100.632 172.105 100.552C172.297 100.464 172.501 100.42 172.717 100.42C172.933 100.42 173.141 100.464 173.34 100.552C173.541 100.632 173.713 100.748 173.857 100.9C174.009 101.044 174.129 101.216 174.217 101.416C174.305 101.608 174.349 101.816 174.349 102.04ZM181.108 118.192C180.124 118.192 179.364 117.916 178.828 117.364C178.3 116.812 178.036 116.024 178.036 115V107.704H176.62C176.484 107.704 176.368 107.664 176.272 107.584C176.184 107.496 176.14 107.368 176.14 107.2V106.252L178.12 105.976L178.648 102.34C178.68 102.204 178.74 102.1 178.828 102.028C178.924 101.948 179.044 101.908 179.188 101.908H180.376V106H183.832V107.704H180.376V114.844C180.376 115.324 180.492 115.684 180.724 115.924C180.964 116.156 181.268 116.272 181.636 116.272C181.852 116.272 182.036 116.244 182.188 116.188C182.348 116.132 182.484 116.072 182.596 116.008C182.708 115.936 182.804 115.872 182.884 115.816C182.964 115.76 183.036 115.732 183.1 115.732C183.18 115.732 183.24 115.752 183.28 115.792C183.328 115.824 183.376 115.88 183.424 115.96L184.12 117.088C183.736 117.44 183.28 117.712 182.752 117.904C182.224 118.096 181.676 118.192 181.108 118.192ZM196.644 105.808L189.876 121.54C189.804 121.716 189.708 121.852 189.588 121.948C189.468 122.044 189.292 122.092 189.06 122.092H187.32L189.552 117.232L184.548 105.808H186.588C186.788 105.808 186.944 105.856 187.056 105.952C187.168 106.048 187.248 106.156 187.296 106.276L190.392 113.596C190.456 113.78 190.516 113.968 190.572 114.16C190.636 114.344 190.688 114.528 190.728 114.712C190.784 114.52 190.844 114.332 190.908 114.148C190.972 113.956 191.04 113.768 191.112 113.584L194.1 106.276C194.156 106.14 194.244 106.028 194.364 105.94C194.484 105.852 194.62 105.808 194.772 105.808H196.644Z" fill="black"/>
<defs>
<clipPath id="clip0_21_170">
<rect width="108.65" height="78.94" fill="white" transform="translate(45)"/>
</clipPath>
</defs>
</svg>
