<svg width="172" height="121" viewBox="0 0 172 121" fill="none" xmlns="http://www.w3.org/2000/svg">
<path d="M62.2878 106.58L59.7318 99.896C59.5478 99.44 59.3638 98.864 59.1798 98.168C59.0918 98.512 58.9998 98.832 58.9038 99.128C58.8158 99.424 58.7278 99.688 58.6398 99.92L56.0958 106.58H62.2878ZM67.3398 113H65.3718C65.1478 113 64.9638 112.944 64.8198 112.832C64.6758 112.72 64.5718 112.576 64.5078 112.4L62.9838 108.404H55.3878L53.8638 112.4C53.8078 112.552 53.7038 112.692 53.5518 112.82C53.3998 112.94 53.2158 113 52.9998 113H51.0318L57.8958 95.768H60.4758L67.3398 113ZM71.1723 103.148C71.5643 102.348 72.0363 101.72 72.5883 101.264C73.1403 100.808 73.8043 100.58 74.5803 100.58C74.8443 100.58 75.0923 100.612 75.3243 100.676C75.5643 100.732 75.7723 100.82 75.9483 100.94L75.7923 102.704C75.7363 102.92 75.6043 103.028 75.3963 103.028C75.2843 103.028 75.1163 103.008 74.8923 102.968C74.6683 102.92 74.4283 102.896 74.1723 102.896C73.7963 102.896 73.4643 102.952 73.1763 103.064C72.8883 103.168 72.6283 103.328 72.3963 103.544C72.1723 103.752 71.9723 104.012 71.7963 104.324C71.6203 104.628 71.4563 104.976 71.3043 105.368V113H68.9643V100.808H70.3083C70.5643 100.808 70.7363 100.856 70.8243 100.952C70.9203 101.04 70.9883 101.2 71.0283 101.432L71.1723 103.148ZM89.3094 113H86.9574V102.704H80.8374V109.844C80.8374 110.324 80.9534 110.684 81.1854 110.924C81.4254 111.156 81.7294 111.272 82.0974 111.272C82.3134 111.272 82.4974 111.244 82.6494 111.188C82.8094 111.132 82.9454 111.072 83.0574 111.008C83.1694 110.936 83.2654 110.872 83.3454 110.816C83.4254 110.76 83.4974 110.732 83.5614 110.732C83.6414 110.732 83.7014 110.752 83.7414 110.792C83.7894 110.824 83.8374 110.88 83.8854 110.96L84.5814 112.088C84.1974 112.44 83.7414 112.712 83.2134 112.904C82.6854 113.096 82.1374 113.192 81.5694 113.192C80.5854 113.192 79.8254 112.916 79.2894 112.364C78.7614 111.812 78.4974 111.024 78.4974 110V102.704H77.0814C76.9454 102.704 76.8294 102.664 76.7334 102.584C76.6454 102.496 76.6014 102.368 76.6014 102.2V101.252L78.5934 100.976L79.1094 97.34C79.1414 97.204 79.2014 97.1 79.2894 97.028C79.3854 96.948 79.5054 96.908 79.6494 96.908H80.8374V101H89.3094V113ZM89.8374 96.968C89.8374 97.184 89.7934 97.392 89.7054 97.592C89.6174 97.784 89.4974 97.956 89.3454 98.108C89.2014 98.252 89.0294 98.368 88.8294 98.456C88.6294 98.536 88.4214 98.576 88.2054 98.576C87.9894 98.576 87.7854 98.536 87.5934 98.456C87.4014 98.368 87.2294 98.252 87.0774 98.108C86.9334 97.956 86.8174 97.784 86.7294 97.592C86.6494 97.392 86.6094 97.184 86.6094 96.968C86.6094 96.744 86.6494 96.532 86.7294 96.332C86.8174 96.132 86.9334 95.96 87.0774 95.816C87.2294 95.664 87.4014 95.548 87.5934 95.468C87.7854 95.38 87.9894 95.336 88.2054 95.336C88.4214 95.336 88.6294 95.38 88.8294 95.468C89.0294 95.548 89.2014 95.664 89.3454 95.816C89.4974 95.96 89.6174 96.132 89.7054 96.332C89.7934 96.532 89.8374 96.744 89.8374 96.968ZM101.251 103.088C101.179 103.176 101.107 103.248 101.035 103.304C100.971 103.352 100.875 103.376 100.747 103.376C100.619 103.376 100.483 103.328 100.339 103.232C100.203 103.128 100.027 103.02 99.8105 102.908C99.6025 102.788 99.3465 102.68 99.0425 102.584C98.7465 102.48 98.3785 102.428 97.9385 102.428C97.3625 102.428 96.8545 102.532 96.4145 102.74C95.9745 102.948 95.6065 103.244 95.3105 103.628C95.0225 104.012 94.8025 104.48 94.6505 105.032C94.4985 105.584 94.4225 106.204 94.4225 106.892C94.4225 107.604 94.5025 108.24 94.6625 108.8C94.8225 109.352 95.0505 109.82 95.3465 110.204C95.6425 110.58 96.0025 110.868 96.4265 111.068C96.8505 111.26 97.3225 111.356 97.8425 111.356C98.3465 111.356 98.7625 111.296 99.0905 111.176C99.4185 111.048 99.6905 110.912 99.9065 110.768C100.123 110.624 100.303 110.492 100.447 110.372C100.591 110.244 100.739 110.18 100.891 110.18C101.083 110.18 101.231 110.252 101.335 110.396L102.007 111.26C101.727 111.604 101.411 111.896 101.059 112.136C100.715 112.376 100.347 112.572 99.9545 112.724C99.5625 112.876 99.1505 112.988 98.7185 113.06C98.2945 113.132 97.8625 113.168 97.4225 113.168C96.6625 113.168 95.9505 113.028 95.2865 112.748C94.6305 112.468 94.0585 112.06 93.5705 111.524C93.0905 110.988 92.7105 110.332 92.4305 109.556C92.1505 108.772 92.0105 107.884 92.0105 106.892C92.0105 105.988 92.1345 105.152 92.3825 104.384C92.6385 103.616 93.0105 102.956 93.4985 102.404C93.9945 101.844 94.6025 101.408 95.3225 101.096C96.0425 100.776 96.8665 100.616 97.7945 100.616C98.6665 100.616 99.4345 100.756 100.099 101.036C100.763 101.316 101.355 101.712 101.875 102.224L101.251 103.088ZM106.591 95.288V113H104.239V95.288H106.591ZM118.009 105.548C118.009 105.084 117.941 104.656 117.805 104.264C117.677 103.872 117.485 103.532 117.229 103.244C116.973 102.956 116.661 102.732 116.293 102.572C115.925 102.412 115.501 102.332 115.021 102.332C114.037 102.332 113.261 102.616 112.693 103.184C112.133 103.752 111.777 104.54 111.625 105.548H118.009ZM119.941 111.26C119.653 111.596 119.321 111.888 118.945 112.136C118.569 112.376 118.169 112.572 117.745 112.724C117.321 112.876 116.881 112.988 116.425 113.06C115.977 113.132 115.533 113.168 115.093 113.168C114.253 113.168 113.473 113.028 112.753 112.748C112.041 112.46 111.421 112.044 110.893 111.5C110.373 110.948 109.965 110.268 109.669 109.46C109.381 108.644 109.237 107.708 109.237 106.652C109.237 105.804 109.369 105.016 109.633 104.288C109.897 103.552 110.273 102.912 110.761 102.368C111.257 101.824 111.861 101.396 112.573 101.084C113.285 100.772 114.085 100.616 114.973 100.616C115.717 100.616 116.401 100.74 117.025 100.988C117.657 101.228 118.201 101.58 118.657 102.044C119.113 102.508 119.469 103.08 119.725 103.76C119.989 104.44 120.121 105.216 120.121 106.088C120.121 106.448 120.081 106.692 120.001 106.82C119.921 106.94 119.773 107 119.557 107H111.565C111.589 107.728 111.693 108.364 111.877 108.908C112.061 109.444 112.313 109.892 112.633 110.252C112.961 110.612 113.349 110.88 113.797 111.056C114.245 111.232 114.745 111.32 115.297 111.32C115.817 111.32 116.265 111.26 116.641 111.14C117.025 111.02 117.353 110.892 117.625 110.756C117.905 110.612 118.137 110.48 118.321 110.36C118.513 110.24 118.681 110.18 118.825 110.18C119.017 110.18 119.165 110.252 119.269 110.396L119.941 111.26Z" fill="black"/>
<g clip-path="url(#clip0_21_393)">
<path d="M64.2401 43.74L63.9101 77.99C63.9101 79.77 63.3901 80.8 60.8501 81.13C57.6901 81.54 56.7301 80.98 56.2601 80.13C55.3801 78.5 46.7501 45.76 45.3301 43.53C43.9101 41.3 64.2401 43.74 64.2401 43.74Z" fill="#01C7E2"/>
<path d="M64.14 51.11L64.21 43.74C64.21 43.74 43.87 41.29 45.3 43.51C45.63 44.04 46.96 48.26 47.95 51.51L64.14 51.11Z" fill="#00A7CC"/>
<path d="M32.21 31.94C31.3324 31.9343 30.4791 32.2287 29.7916 32.7743C29.1042 33.3199 28.6238 34.084 28.43 34.94C28.1382 36.2532 27.994 37.5948 28 38.94C27.8902 40.3965 28.0949 41.8596 28.6 43.23C28.9007 43.8622 29.3715 44.3982 29.9597 44.778C30.5478 45.1577 31.2301 45.3662 31.93 45.38C38.93 45.63 63.93 46.62 69.15 47.84C75.23 49.26 95.59 58.26 95.59 58.26L91.71 12.46C91.71 12.46 73 27.62 61.14 29.98C51.89 31.81 37.95 31.96 32.21 31.94Z" fill="#D0D1DE"/>
<path d="M44.95 45.88C47.54 46 50.23 46.14 52.88 46.29C51.22 40.93 51.88 34.79 52.73 31.13C50.08 31.38 47.37 31.56 44.73 31.68C43.5818 36.3536 43.6576 41.2442 44.95 45.88Z" fill="#110239"/>
<path d="M115.46 33.83C115.59 50.39 107.7 63.88 97.8399 63.95C87.9799 64.02 79.8899 50.67 79.7599 34.11C79.6299 17.55 87.5199 4.11 97.3699 4C107.22 3.89 115.33 17.26 115.46 33.83Z" fill="#E5E6ED"/>
<path d="M114.14 33.84C114.25 47.93 107.54 59.4 99.1401 59.47C90.7401 59.54 83.8701 48.17 83.7601 34.08C83.6501 19.99 90.3601 8.52998 98.7601 8.45998C107.16 8.38998 114.02 19.76 114.14 33.84Z" fill="#110239"/>
<path d="M95.7299 36.44C96.0899 31.44 92.8099 27.09 88.3899 26.78C86.9208 26.6791 85.4559 27.0279 84.1899 27.78C83.8923 29.8565 83.7486 31.9523 83.7599 34.05C83.7611 37.582 84.2251 41.0985 85.1399 44.51C85.7535 44.7433 86.3961 44.8913 87.0499 44.95C91.4999 45.26 95.3699 41.45 95.7299 36.44Z" fill="#FD425F"/>
<path d="M69.24 18.11C69.1279 17.5932 69.1949 17.0536 69.43 16.58C69.17 16.58 68.79 16.66 68.81 16.51C68.83 16.36 68.88 16.02 68.73 16.04C68.5903 16.0783 68.4607 16.1466 68.35 16.24C68.0764 16.3854 67.7698 16.4577 67.46 16.45C67.35 16.8 67.05 17.34 67.25 17.72C67.34 17.92 67.87 17.83 68.1 17.91C68.4674 18.0352 68.8519 18.1027 69.24 18.11Z" fill="#F88667"/>
<path d="M61.91 1.94C60.1019 1.97821 58.3266 2.42974 56.72 3.26L58.14 9.26C59.1774 8.69742 60.352 8.43755 61.53 8.51L61.91 1.94Z" fill="#FD425F"/>
<path d="M60.4501 5.12997C60.4501 4.12997 60.5301 3.12997 60.5501 2.12997C60.9991 2.04447 61.4536 1.991 61.9101 1.96997L61.5001 8.56997C60.9301 7.70997 60.6601 7.89997 60.5001 7.78997C60.5501 6.88997 60.4401 5.98997 60.4501 5.12997Z" fill="#E42244"/>
<path d="M73.9601 2.26001C73.9601 2.26001 66.06 -0.839993 60.89 0.260007L60.55 7.80001C60.55 7.80001 65.1401 6.80001 71.4901 9.57001L73.9601 2.26001Z" fill="#FD425F"/>
<path d="M73.6095 2.14281L67.3997 20.0253L68.042 20.2483L74.2519 2.36587L73.6095 2.14281Z" fill="#110239"/>
<path d="M67.8599 18.16V16.02C67.8599 16.02 61.4799 16.07 58.8099 15.3C56.1399 14.53 52.5499 11.39 51.1199 11.9C49.6899 12.41 48.7899 13.9 50.5599 15.25C52.3299 16.6 56.5599 17.85 58.3599 18.12C59.6199 18.32 66.8499 18.16 67.8599 18.16Z" fill="#01C7E2"/>
<path d="M57.1901 16.82C54.9401 15.89 52.8101 13.82 51.0001 11.95C49.6501 12.5 48.8401 13.95 50.5601 15.25C52.2801 16.55 56.5601 17.85 58.3601 18.12C58.9801 18.22 61.0401 18.23 63.1001 18.21C61.0717 18.0442 59.0797 17.5757 57.1901 16.82Z" fill="#00A7CC"/>
<path d="M57.1401 42.91C57.1401 42.91 55.9001 44.91 56.0801 45.4C56.2601 45.89 60.5901 48.4 61.1801 48.2C61.7701 48 61.8701 47.31 61.1001 46.61C60.3301 45.91 59.7201 45.82 59.2501 45.21C58.7801 44.6 59.2501 43.32 59.2501 43.32L57.1401 42.91Z" fill="#110239"/>
<path d="M49.85 25.85C50.3568 26.2545 50.9919 26.4638 51.64 26.44C52.55 26.32 61.47 27.25 62.39 28C63.31 28.75 59.56 43.85 59.56 43.85L56.46 43.34C56.46 43.34 57.57 32.34 57.38 32.22C57.19 32.1 52.51 32.16 44.53 32.16C42.58 32.16 40.4 28.06 42.87 25.16L49.85 25.85Z" fill="#FD425F"/>
<path d="M51.24 9.04001C50.9394 8.90406 50.6598 8.72557 50.41 8.51001C50.3096 9.79178 49.8213 11.0126 49.01 12.01C50.1249 12.4609 51.3384 12.6126 52.53 12.45C52.4253 11.3821 52.4724 10.3047 52.67 9.25001C52.1836 9.28998 51.6944 9.21815 51.24 9.04001Z" fill="#F88667"/>
<path d="M50.3 11.66C50.4638 11.2034 50.7654 10.809 51.1631 10.5313C51.5608 10.2536 52.035 10.1064 52.52 10.11C52.5436 9.81936 52.5938 9.53149 52.67 9.25001C52.1836 9.28998 51.6944 9.21815 51.24 9.04001C50.9394 8.90406 50.6598 8.72557 50.41 8.51001C50.3096 9.79178 49.8213 11.0126 49.01 12.01C49.3817 12.1522 49.7626 12.2692 50.15 12.36C50.1719 12.1215 50.2223 11.8865 50.3 11.66Z" fill="#E45940"/>
<path d="M50.6899 3.80999C50.6899 3.80999 52.9799 3.08999 53.6899 3.53999C54.0805 3.86832 54.3888 4.28351 54.5903 4.75234C54.7917 5.22118 54.8806 5.73064 54.8499 6.23999C54.7299 7.06999 55.6799 8.03999 55.6999 8.33999C55.7199 8.63999 54.9799 8.74999 54.9599 8.83999C54.9399 8.92999 54.8899 10.45 53.8899 10.7C52.4799 11.06 50.5899 9.92999 49.9399 9.07999C49.2899 8.22999 48.5399 4.31999 50.6899 3.80999Z" fill="#F88667"/>
<path d="M54.95 3.91002C54.83 3.79002 54.52 3.59002 54.44 3.44002C54.3937 3.30253 54.3368 3.1688 54.27 3.04002C54.02 2.67002 53.96 2.40002 52.91 2.04002C52.4286 1.92162 51.9264 1.91597 51.4424 2.02352C50.9585 2.13106 50.5059 2.34888 50.12 2.66002C49.851 2.8703 49.6267 3.13207 49.46 3.43002C49.46 3.52002 49.25 3.76002 49.29 3.86002C49.33 3.96002 49.67 4.06002 49.78 4.12002C49.9605 4.24309 50.131 4.38018 50.29 4.53002C51.29 5.38002 52.97 6.29002 54.12 5.11002C54.2738 4.95622 54.4175 4.79254 54.55 4.62002C54.7807 5.09245 54.8906 5.61469 54.87 6.14002C55.1009 5.95098 55.2627 5.69075 55.33 5.40002C55.4017 5.14007 55.4044 4.86589 55.3378 4.60458C55.2711 4.34327 55.1375 4.10386 54.95 3.91002Z" fill="#110239"/>
<path d="M50.14 3.84002C49.7842 3.73529 49.4058 3.73529 49.05 3.84002C48.7849 3.90481 48.5463 4.05019 48.3673 4.25613C48.1882 4.46208 48.0773 4.71847 48.05 4.99002C47.9837 5.34302 47.9469 5.70092 47.94 6.06002C47.9179 6.61608 48.0098 7.17079 48.21 7.69002C48.4221 8.26678 48.7643 8.7869 49.21 9.21002C49.61 9.57002 50.41 10 50.8 9.84002C51.0314 9.38864 51.1482 8.88722 51.14 8.38002C51.14 8.11002 50.96 8.10002 50.74 7.98002C50.52 7.86002 49.97 7.37002 50.24 6.92002C50.62 6.30002 51.33 6.58002 51.58 7.45002C51.58 7.45002 51.86 7.94002 52.01 7.87002C52.16 7.80002 52.78 5.26002 50.14 3.84002Z" fill="#110239"/>
<path d="M50.3999 6.97002C50.518 6.92615 50.6467 6.9199 50.7685 6.95213C50.8902 6.98436 50.999 7.05349 51.0799 7.15002C51.3599 7.47002 51.2299 7.98002 50.9599 7.79002C50.6899 7.60002 50.7999 7.43002 50.7499 7.27002C50.7173 7.19728 50.669 7.13267 50.6085 7.0808C50.548 7.02893 50.4768 6.9911 50.3999 6.97002Z" fill="#E45940"/>
<path d="M41.77 25.01C41.77 25.01 45 27.52 51.7 26.4C51.7118 25.1151 51.8934 23.8374 52.24 22.6C52.9756 20.1632 53.4549 17.6563 53.67 15.12C53.7141 14.5386 53.6324 13.9545 53.4305 13.4075C53.2286 12.8605 52.9112 12.3634 52.5 11.95C52.5 11.95 51.24 13.13 49.37 11.59C48.1866 11.9562 47.1013 12.5854 46.1956 13.4305C45.2899 14.2756 44.5871 15.3147 44.14 16.47C43.0658 19.2301 42.2718 22.0911 41.77 25.01Z" fill="#01C7E2"/>
<path d="M49.83 14.74C48.1 16.61 49.78 21.21 51.96 23.74C52.04 23.36 52.12 22.97 52.24 22.57C52.54 21.57 52.91 20.09 53.24 18.63C52.607 18.237 52.1164 17.6518 51.84 16.96C51.14 15.36 50.69 14.26 49.83 14.74Z" fill="#00A7CC"/>
<path d="M63.84 27.59C64.0707 27.8012 64.3539 27.9462 64.66 28.01C64.8034 28.0146 64.9437 28.0522 65.07 28.12C65.2182 28.1956 65.3765 28.2494 65.54 28.28C65.7018 28.3127 65.8529 28.3848 65.98 28.49C66.11 28.65 65.85 28.7 65.68 28.71C65.51 28.72 64.99 28.39 64.84 28.52C64.69 28.65 65.32 29.02 65.45 29.09C65.75 29.25 65.97 29.09 66.28 29.09C66.59 29.09 66.54 29.14 66.42 29.31C66.3639 29.3617 66.2974 29.4009 66.225 29.425C66.1526 29.4492 66.076 29.4577 66 29.45C65.6965 29.4738 65.3916 29.4259 65.11 29.31C65.3671 29.4343 65.6453 29.5089 65.93 29.53C66.09 29.53 66.78 29.47 66.78 29.73C66.78 30.24 65.25 29.91 65.02 29.73C65.2732 29.8644 65.5469 29.9556 65.83 30C65.99 30 66.39 30.11 66.17 30.32C65.95 30.53 65.09 30.12 64.71 29.95C64.9237 30.1178 65.1592 30.2557 65.41 30.36C65.73 30.53 65.49 30.71 65.14 30.59C64.99 30.54 64.71 30.39 64.64 30.36C64.1056 30.075 63.6803 29.6215 63.43 29.07C63.31 28.85 62.85 28.58 62.9 28.36C62.98 28 63.55 27.79 63.84 27.59Z" fill="#F88667"/>
<path d="M64.32 27.26L63.02 29.02C63.02 29.02 54.72 25.42 54.02 24.47C52.7147 22.7663 51.5221 20.9792 50.45 19.12C49.57 16.97 48.45 14.41 50.45 13.96C51.54 13.71 52.23 13.96 52.91 15.58C53.9077 17.9099 55.1125 20.1455 56.51 22.26C56.81 22.65 64.32 27.26 64.32 27.26Z" fill="#01C7E2"/>
<path d="M70.14 16.62C70.26 16.8 69.94 17.62 69.63 17.94C69.5314 18.0428 69.3984 18.1058 69.2564 18.1168C69.1144 18.1279 68.9733 18.0863 68.86 18C68.6 17.84 68.29 17.78 68.25 17.63C68.25 17.03 68.75 17.48 68.99 17.57C68.99 17.57 68.33 17.24 68.34 16.95C68.34 16.41 69.18 17.03 69.41 17.14C69.1654 17.0606 68.9474 16.9152 68.78 16.72C68.7582 16.6995 68.7409 16.6747 68.729 16.6472C68.7171 16.6196 68.711 16.59 68.711 16.56C68.711 16.5301 68.7171 16.5004 68.729 16.4729C68.7409 16.4454 68.7582 16.4206 68.78 16.4C68.96 16.24 69.66 16.74 69.66 16.74C69.66 16.74 69.02 16.46 69.23 16.23C69.44 16 69.57 16.23 69.7 16.23C69.7966 16.2604 69.8858 16.3109 69.9616 16.3781C70.0374 16.4453 70.0982 16.5277 70.14 16.62Z" fill="#F88667"/>
<path d="M68.5899 16.59L68.8099 16.52C68.8099 16.32 69.6199 16.27 69.8099 16.18C70.3299 15.9 70.1199 15.58 69.8799 15.65C69.6399 15.72 69.3499 15.81 69.2099 15.87C69.0335 15.9145 68.8518 15.9347 68.6699 15.93C68.4336 16.0673 68.2094 16.2245 67.9999 16.4C67.7199 16.56 68.2999 16.71 68.5899 16.59Z" fill="#F88667"/>
<path d="M126.62 22.71C126.8 23.18 125.25 24.18 123.17 24.94C121.09 25.7 119.26 25.94 119.08 25.48C118.9 25.02 120.46 24.01 122.54 23.25C124.62 22.49 126.45 22.26 126.62 22.71Z" fill="#D0D1DE"/>
<path d="M122.84 13.33C123.03 13.79 121.54 14.88 119.51 15.76C117.48 16.64 115.66 16.98 115.46 16.53C115.26 16.08 116.76 14.98 118.79 14.1C120.82 13.22 122.64 12.88 122.84 13.33Z" fill="#D0D1DE"/>
<path d="M125.64 47.74C125.49 48.21 123.64 48.07 121.54 47.41C119.44 46.75 117.82 45.84 117.97 45.36C118.12 44.88 119.97 45.03 122.07 45.69C124.17 46.35 125.79 47.26 125.64 47.74Z" fill="#D0D1DE"/>
<path d="M121.79 57.88C121.6 58.34 119.79 58.05 117.72 57.22C115.65 56.39 114.15 55.34 114.33 54.88C114.51 54.42 116.33 54.72 118.4 55.54C120.47 56.36 121.97 57.42 121.79 57.88Z" fill="#D0D1DE"/>
<path d="M127.78 35.34C127.78 35.84 125.94 36.15 123.72 36.03C121.5 35.91 119.72 35.42 119.72 34.92C119.72 34.42 121.57 34.12 123.78 34.23C125.99 34.34 127.8 34.84 127.78 35.34Z" fill="#D0D1DE"/>
</g>
<defs>
<clipPath id="clip0_21_393">
<rect width="99.78" height="81.27" fill="white" transform="translate(28)"/>
</clipPath>
</defs>
</svg>
