<svg width="216" height="180" viewBox="0 0 216 180" fill="none" xmlns="http://www.w3.org/2000/svg">
<g clip-path="url(#clip0_135_2002)">
<path d="M69.4178 150.929C107.756 150.929 138.836 119.772 138.836 81.3391C138.836 42.9058 107.756 11.7495 69.4178 11.7495C31.0794 11.7495 0 42.9058 0 81.3391C0 119.772 31.0794 150.929 69.4178 150.929Z" fill="#01C7E2"/>
<path d="M127.102 94.8876C134.541 62.9674 114.759 31.0456 82.9178 23.5882C51.0765 16.1308 19.2335 35.9618 11.7945 67.8819C4.35546 99.802 24.1375 131.724 55.9788 139.181C87.8201 146.639 119.663 126.808 127.102 94.8876Z" fill="#110239"/>
<path d="M69.4931 32.8785H69.468C68.829 32.8785 68.311 33.3978 68.311 34.0384V81.6669C68.311 82.3074 68.829 82.8267 69.468 82.8267H69.4931C70.1321 82.8267 70.6501 82.3074 70.6501 81.6669V34.0384C70.6501 33.3978 70.1321 32.8785 69.4931 32.8785Z" fill="#FEFEFE"/>
<path d="M70.4991 82.2972C70.355 82.5673 70.1101 82.7693 69.818 82.8591C69.5258 82.9488 69.2101 82.9191 68.9397 82.7763L40.7702 67.6481C40.5051 67.4993 40.3091 67.252 40.2244 66.9595C40.1397 66.667 40.1731 66.3529 40.3175 66.0849C40.4659 65.8191 40.7127 65.6226 41.0044 65.5377C41.2962 65.4527 41.6095 65.4863 41.8768 65.6311L70.0464 80.7592C70.3049 80.9078 70.4963 81.1507 70.5806 81.4372C70.665 81.7237 70.6357 82.0318 70.4991 82.2972Z" fill="#FEFEFE"/>
<path d="M216 83.7848H89.6143V162.199H216V83.7848Z" fill="#D0D1DE"/>
<path d="M152.82 126.471L216 87.2643V83.7848H89.6143V87.2643L152.82 126.471Z" fill="#110239"/>
<path d="M152.82 122.992L89.6143 83.7848H216L152.82 122.992Z" fill="#D0D1DE"/>
<g style="mix-blend-mode:multiply" opacity="0.32">
<path d="M89.6143 162.199H200.28V99.5686V96.0891H89.6143V162.199Z" fill="#B1B3C8"/>
</g>
<path d="M194.169 101.56H67.783V179.975H194.169V101.56Z" fill="#D0D1DE"/>
<path d="M130.963 144.247L194.169 105.04V101.56H67.783V105.04L130.963 144.247Z" fill="#110239"/>
<path d="M130.963 140.793L67.783 101.56H194.169L130.963 140.793Z" fill="#D0D1DE"/>
<path d="M158.806 14.9264L163.333 14.6239L167.86 14.2961C167.86 14.2961 170.023 26.5752 172.488 27.8863C172.488 27.8863 176.437 42.2832 165.32 43.0144C151.889 43.9725 156.114 28.9957 156.114 28.9957C158.378 27.4072 158.806 14.9264 158.806 14.9264Z" fill="#E45940"/>
<path d="M185.34 83.8353L190.245 57.1341C189.566 45.082 187.931 33.1811 187.931 33.1811C183.055 30.7024 177.857 28.9201 172.488 27.8863C170.253 29.763 167.485 30.8854 164.576 31.0936C161.668 31.3018 158.769 30.5853 156.291 29.0461C150.818 30.7974 145.631 33.346 140.898 36.6101C140.542 41.6649 140.795 46.7443 141.652 51.7383C142.8 58.6827 144.482 65.5276 146.683 72.2118L150.556 83.8605L185.34 83.8353Z" fill="#FD425F"/>
<path d="M185.34 83.8353L190.245 57.1341C190.094 54.6128 190.069 52.0914 190.119 49.8222C183.152 60.3111 175.028 70.573 161.798 67.2196C153.675 65.1521 148.192 55.1927 142.256 50.0239L140.973 48.9397C141.174 49.9987 141.376 51.0828 141.577 52.2427C142.736 59.0278 144.417 65.7126 146.607 72.2371L150.48 83.8353H185.34Z" fill="#E01F41"/>
<path d="M151.713 17.8764C152.87 16.3384 154.53 18.4311 154.53 18.4311C154.53 18.4311 151.889 10.388 153.7 6.65635C155.511 2.92473 162.377 4.33674 162.377 4.33674C162.377 4.33674 168.967 1.99185 171.281 5.42091C173.595 8.84996 172.111 17.1957 172.111 17.1957C172.111 17.1957 173.469 14.876 174.827 16.2376C176.185 17.5991 173.117 21.482 172.312 21.9863C172.312 21.9863 168.112 31.3909 164.213 31.643C160.315 31.8952 154.857 23.2217 154.857 23.2217C154.153 22.8183 150.556 19.4145 151.713 17.8764Z" fill="#F88667"/>
<path d="M164.289 7.46326C164.289 7.46326 169.319 7.99274 170.199 10.6906C170.463 12.0478 170.463 13.4433 170.199 14.8004C170.056 16.3098 170.056 17.8295 170.199 19.3388C170.313 19.3591 170.429 19.3562 170.542 19.3302C170.654 19.3042 170.76 19.2557 170.853 19.1876C171.481 18.5307 172.007 17.7828 172.412 16.9688C173.293 15.4812 174.701 15.6325 175.154 16.4898C175.154 16.4898 175.33 3.00048 169.696 2.92484C164.062 2.8492 164.289 7.46326 164.289 7.46326Z" fill="#110239"/>
<path d="M160.893 7.6902C160.893 7.6902 155.863 8.9509 155.486 11.7244C155.416 13.1003 155.604 14.477 156.039 15.7838C156.413 17.2566 156.665 18.7576 156.793 20.2719C156.692 20.3229 156.58 20.3494 156.466 20.3494C156.353 20.3494 156.241 20.3229 156.14 20.2719C155.42 19.7277 154.792 19.0723 154.278 18.3304C153.197 16.9688 151.763 17.2966 151.487 18.3304C151.487 18.3304 149.424 4.99239 154.983 4.10991C160.541 3.22744 160.893 7.6902 160.893 7.6902Z" fill="#110239"/>
<path d="M175.984 106.931C175.582 107.687 173.67 108.746 174.223 109.881C174.5 110.436 176.21 109.452 176.613 108.999C178.511 106.696 180.242 104.261 181.794 101.712C182.322 100.527 182.825 99.3417 183.404 98.2575C182.189 97.3643 181.091 96.3224 180.134 95.1562C178.298 95.837 176.286 96.8203 174.475 97.4506C173.494 97.8036 172.438 98.0054 171.457 98.2827C170.476 98.5601 169.495 98.6861 169.369 99.4929C169.243 100.3 170.576 100.224 171.079 100.149C171.582 100.073 173.242 99.4677 173.72 100.35C174.374 101.661 171.96 102.872 171.205 103.678C170.451 104.485 167.583 106.603 169.495 106.931C170.83 106.277 172.101 105.501 173.293 104.611C173.293 104.611 171.281 106.275 171.205 106.376C170.702 106.956 169.269 108.116 169.621 108.898C170.35 110.31 173.519 106.981 173.997 106.553L172.79 107.864C171.759 108.847 171.105 109.704 171.859 110.083C172.614 110.461 175.053 107.763 175.984 106.931Z" fill="#F88667"/>
<path d="M176.462 95.9377L182.825 100.754C182.825 100.754 204.883 77.0528 203.273 67.6985C200.632 52.3435 192.81 34.9208 188.182 33.3324C186.246 32.702 184.058 40.5435 186.598 51.6375C186.598 51.6375 191.15 67.9759 190.874 69.6652C190.597 71.3545 176.462 95.9377 176.462 95.9377Z" fill="#FD425F"/>
<path d="M152.518 119.941C152.87 120.723 154.681 121.933 154.052 123.017C153.725 123.572 152.09 122.412 151.738 121.958C150.018 119.507 148.488 116.928 147.161 114.243C146.733 113.033 146.331 111.722 145.828 110.688C147.116 109.899 148.299 108.951 149.349 107.864C151.135 108.696 153.046 109.856 154.807 110.612C155.762 111.041 156.794 111.318 157.749 111.696C158.705 112.075 159.661 112.251 159.711 113.058C159.761 113.865 158.479 113.688 157.976 113.587C157.473 113.486 155.863 112.73 155.461 113.587C155.058 114.445 156.995 116.26 157.775 117.092C158.554 117.924 161.145 120.294 159.208 120.496C157.94 119.723 156.745 118.837 155.637 117.848C155.637 117.975 157.473 119.664 157.573 119.79C158.026 120.395 159.334 121.681 158.957 122.311C158.101 123.673 155.209 120.093 154.756 119.639L155.863 121.025C156.819 122.11 157.397 122.992 156.618 123.345C155.838 123.698 153.348 120.824 152.518 119.941Z" fill="#F88667"/>
<path d="M152.141 109.024L146.129 113.033C146.129 113.033 125.43 87.4156 127.467 78.1622C130.837 63.0341 136.572 39.6863 141.225 36.1059C142.835 34.8957 147.991 44.6281 147.588 50.7298C147.588 50.7298 140.043 81.1122 140.043 82.8268C140.043 84.5413 152.141 109.024 152.141 109.024Z" fill="#FD425F"/>
<path d="M171.583 4.53843C171.552 3.82751 171.327 3.13877 170.932 2.54738C170.537 1.95599 169.988 1.48473 169.344 1.18505C167.668 0.412896 165.844 0.013092 163.999 0.013092C162.154 0.013092 160.331 0.412896 158.655 1.18505C154.957 3.05086 153.826 3.45429 152.769 2.84916C151.713 2.24404 152.367 1.61364 152.367 1.61364C152.367 1.61364 149.852 1.61367 150.053 5.34529C150.254 9.0769 154.781 13.7666 160.818 13.7666C170.023 13.7666 172.991 7.33714 171.583 4.53843Z" fill="#110239"/>
</g>
<defs>
<clipPath id="clip0_135_2002">
<rect width="216" height="180" fill="white"/>
</clipPath>
</defs>
</svg>
