<svg width="1481" height="520" viewBox="0 0 1481 520" fill="none" xmlns="http://www.w3.org/2000/svg">
<g filter="url(#filter0_d_155_3)">
<path d="M334.701 236.488C475.645 236.488 417.95 363.047 581.286 363.047C744.623 363.047 694.626 245.674 894.251 245.674C1093.88 245.674 1097.51 435.865 1266.23 435.865C1434.95 435.865 1461 319.713 1461 319.713V38.0191C1460.99 31.2162 1458.28 24.6962 1453.46 19.8902C1448.65 15.0842 1442.12 12.385 1435.32 12.385L46.6632 12.385C39.8555 12.385 33.3264 15.0886 28.5111 19.9013C23.6958 24.7141 20.9885 31.2421 20.9844 38.0505V492C216.885 492 193.741 236.488 334.701 236.488Z" fill="#01C7E2"/>
</g>
<path d="M176.344 260.432V270.056H188.488V275.024H176.344V284.84H191.752V290H169.864V255.296H191.752V260.432H176.344ZM217.801 284.672V290H197.473V255.296H203.929V284.672H217.801ZM228.891 260.432V270.056H241.035V275.024H228.891V284.84H244.299V290H222.411V255.296H244.299V260.432H228.891ZM279.756 255.296L265.74 290H259.908L245.892 255.296H251.076C251.636 255.296 252.092 255.432 252.444 255.704C252.796 255.976 253.06 256.328 253.236 256.76L261.42 277.928C261.692 278.616 261.948 279.376 262.188 280.208C262.444 281.024 262.684 281.88 262.908 282.776C263.1 281.88 263.308 281.024 263.532 280.208C263.756 279.376 264.004 278.616 264.276 277.928L272.412 256.76C272.54 256.392 272.788 256.056 273.156 255.752C273.54 255.448 274.004 255.296 274.548 255.296H279.756ZM298.919 276.896L294.695 265.352C294.487 264.84 294.271 264.232 294.047 263.528C293.823 262.824 293.599 262.064 293.375 261.248C293.167 262.064 292.951 262.832 292.727 263.552C292.503 264.256 292.287 264.872 292.079 265.4L287.879 276.896H298.919ZM310.319 290H305.327C304.767 290 304.311 289.864 303.959 289.592C303.607 289.304 303.343 288.952 303.167 288.536L300.575 281.456H286.199L283.607 288.536C283.479 288.904 283.231 289.24 282.863 289.544C282.495 289.848 282.039 290 281.495 290H276.455L290.111 255.296H296.687L310.319 290ZM334.776 260.6H324.312V290H317.856V260.6H307.392V255.296H334.776V260.6ZM354.278 276.896L350.054 265.352C349.846 264.84 349.63 264.232 349.406 263.528C349.182 262.824 348.958 262.064 348.734 261.248C348.526 262.064 348.31 262.832 348.086 263.552C347.862 264.256 347.646 264.872 347.438 265.4L343.238 276.896H354.278ZM365.678 290H360.686C360.126 290 359.67 289.864 359.318 289.592C358.966 289.304 358.702 288.952 358.526 288.536L355.934 281.456H341.558L338.966 288.536C338.838 288.904 338.59 289.24 338.222 289.544C337.854 289.848 337.398 290 336.854 290H331.814L345.47 255.296H352.046L365.678 290ZM380.55 272.744C381.734 272.744 382.766 272.6 383.646 272.312C384.526 272.008 385.254 271.584 385.83 271.04C386.422 270.48 386.862 269.808 387.15 269.024C387.438 268.224 387.582 267.336 387.582 266.36C387.582 265.432 387.438 264.592 387.15 263.84C386.862 263.088 386.43 262.448 385.854 261.92C385.278 261.392 384.55 260.992 383.67 260.72C382.79 260.432 381.75 260.288 380.55 260.288H375.726V272.744H380.55ZM380.55 255.296C382.87 255.296 384.878 255.568 386.574 256.112C388.27 256.656 389.67 257.416 390.774 258.392C391.878 259.368 392.694 260.536 393.222 261.896C393.766 263.256 394.038 264.744 394.038 266.36C394.038 268.04 393.758 269.584 393.198 270.992C392.638 272.384 391.798 273.584 390.678 274.592C389.558 275.6 388.15 276.384 386.454 276.944C384.774 277.504 382.806 277.784 380.55 277.784H375.726V290H369.27V255.296H380.55Z" fill="black"/>
<path d="M195.122 309.972V336H190.856V319.188C190.856 318.516 190.892 317.79 190.964 317.01L183.098 331.788C182.726 332.496 182.156 332.85 181.388 332.85H180.704C179.936 332.85 179.366 332.496 178.994 331.788L171.038 316.956C171.074 317.352 171.104 317.742 171.128 318.126C171.152 318.51 171.164 318.864 171.164 319.188V336H166.898V309.972H170.552C170.768 309.972 170.954 309.978 171.11 309.99C171.266 310.002 171.404 310.032 171.524 310.08C171.656 310.128 171.77 310.206 171.866 310.314C171.974 310.422 172.076 310.566 172.172 310.746L179.966 325.2C180.17 325.584 180.356 325.98 180.524 326.388C180.704 326.796 180.878 327.216 181.046 327.648C181.214 327.204 181.388 326.778 181.568 326.37C181.748 325.95 181.94 325.548 182.144 325.164L189.83 310.746C189.926 310.566 190.028 310.422 190.136 310.314C190.244 310.206 190.358 310.128 190.478 310.08C190.61 310.032 190.754 310.002 190.91 309.99C191.066 309.978 191.252 309.972 191.468 309.972H195.122ZM215.788 317.532V336H213.07C212.482 336 212.11 335.73 211.954 335.19L211.648 333.714C210.892 334.482 210.058 335.106 209.146 335.586C208.234 336.054 207.16 336.288 205.924 336.288C204.916 336.288 204.022 336.12 203.242 335.784C202.474 335.436 201.826 334.95 201.298 334.326C200.77 333.702 200.368 332.964 200.092 332.112C199.828 331.248 199.696 330.3 199.696 329.268V317.532H204.142V329.268C204.142 330.396 204.4 331.272 204.916 331.896C205.444 332.508 206.23 332.814 207.274 332.814C208.042 332.814 208.762 332.646 209.434 332.31C210.106 331.962 210.742 331.488 211.342 330.888V317.532H215.788ZM226.352 336.288C224.744 336.288 223.508 335.838 222.644 334.938C221.792 334.026 221.366 332.772 221.366 331.176V320.862H219.476C219.236 320.862 219.032 320.784 218.864 320.628C218.696 320.472 218.612 320.238 218.612 319.926V318.162L221.582 317.676L222.518 312.636C222.578 312.396 222.692 312.21 222.86 312.078C223.028 311.946 223.244 311.88 223.508 311.88H225.812V317.694H230.744V320.862H225.812V330.87C225.812 331.446 225.95 331.896 226.226 332.22C226.514 332.544 226.904 332.706 227.396 332.706C227.672 332.706 227.9 332.676 228.08 332.616C228.272 332.544 228.434 332.472 228.566 332.4C228.71 332.328 228.836 332.262 228.944 332.202C229.052 332.13 229.16 332.094 229.268 332.094C229.4 332.094 229.508 332.13 229.592 332.202C229.676 332.262 229.766 332.358 229.862 332.49L231.194 334.65C230.546 335.19 229.802 335.598 228.962 335.874C228.122 336.15 227.252 336.288 226.352 336.288ZM249.503 317.532V336H246.785C246.197 336 245.825 335.73 245.669 335.19L245.363 333.714C244.607 334.482 243.773 335.106 242.861 335.586C241.949 336.054 240.875 336.288 239.639 336.288C238.631 336.288 237.737 336.12 236.957 335.784C236.189 335.436 235.541 334.95 235.013 334.326C234.485 333.702 234.083 332.964 233.807 332.112C233.543 331.248 233.411 330.3 233.411 329.268V317.532H237.857V329.268C237.857 330.396 238.115 331.272 238.631 331.896C239.159 332.508 239.945 332.814 240.989 332.814C241.757 332.814 242.477 332.646 243.149 332.31C243.821 331.962 244.457 331.488 245.057 330.888V317.532H249.503ZM263.667 328.116C262.383 328.176 261.303 328.29 260.427 328.458C259.551 328.614 258.849 328.818 258.321 329.07C257.793 329.322 257.415 329.616 257.187 329.952C256.959 330.288 256.845 330.654 256.845 331.05C256.845 331.83 257.073 332.388 257.529 332.724C257.997 333.06 258.603 333.228 259.347 333.228C260.259 333.228 261.045 333.066 261.705 332.742C262.377 332.406 263.031 331.902 263.667 331.23V328.116ZM253.479 320.106C255.603 318.162 258.159 317.19 261.147 317.19C262.227 317.19 263.193 317.37 264.045 317.73C264.897 318.078 265.617 318.57 266.205 319.206C266.793 319.83 267.237 320.58 267.537 321.456C267.849 322.332 268.005 323.292 268.005 324.336V336H265.989C265.569 336 265.245 335.94 265.017 335.82C264.789 335.688 264.609 335.43 264.477 335.046L264.081 333.714C263.613 334.134 263.157 334.506 262.713 334.83C262.269 335.142 261.807 335.406 261.327 335.622C260.847 335.838 260.331 336 259.779 336.108C259.239 336.228 258.639 336.288 257.979 336.288C257.199 336.288 256.479 336.186 255.819 335.982C255.159 335.766 254.589 335.448 254.109 335.028C253.629 334.608 253.257 334.086 252.993 333.462C252.729 332.838 252.597 332.112 252.597 331.284C252.597 330.816 252.675 330.354 252.831 329.898C252.987 329.43 253.239 328.986 253.587 328.566C253.947 328.146 254.409 327.75 254.973 327.378C255.537 327.006 256.227 326.682 257.043 326.406C257.871 326.13 258.831 325.908 259.923 325.74C261.015 325.56 262.263 325.452 263.667 325.416V324.336C263.667 323.1 263.403 322.188 262.875 321.6C262.347 321 261.585 320.7 260.589 320.7C259.869 320.7 259.269 320.784 258.789 320.952C258.321 321.12 257.907 321.312 257.547 321.528C257.187 321.732 256.857 321.918 256.557 322.086C256.269 322.254 255.945 322.338 255.585 322.338C255.273 322.338 255.009 322.26 254.793 322.104C254.577 321.936 254.403 321.744 254.271 321.528L253.479 320.106ZM276.692 309.252V336H272.246V309.252H276.692ZM299.038 323.058C299.926 323.058 300.7 322.95 301.36 322.734C302.02 322.506 302.566 322.188 302.998 321.78C303.442 321.36 303.772 320.856 303.988 320.268C304.204 319.668 304.312 319.002 304.312 318.27C304.312 317.574 304.204 316.944 303.988 316.38C303.772 315.816 303.448 315.336 303.016 314.94C302.584 314.544 302.038 314.244 301.378 314.04C300.718 313.824 299.938 313.716 299.038 313.716H295.42V323.058H299.038ZM299.038 309.972C300.778 309.972 302.284 310.176 303.556 310.584C304.828 310.992 305.878 311.562 306.706 312.294C307.534 313.026 308.146 313.902 308.542 314.922C308.95 315.942 309.154 317.058 309.154 318.27C309.154 319.53 308.944 320.688 308.524 321.744C308.104 322.788 307.474 323.688 306.634 324.444C305.794 325.2 304.738 325.788 303.466 326.208C302.206 326.628 300.73 326.838 299.038 326.838H295.42V336H290.578V309.972H299.038ZM321.358 328.116C320.074 328.176 318.994 328.29 318.118 328.458C317.242 328.614 316.54 328.818 316.012 329.07C315.484 329.322 315.106 329.616 314.878 329.952C314.65 330.288 314.536 330.654 314.536 331.05C314.536 331.83 314.764 332.388 315.22 332.724C315.688 333.06 316.294 333.228 317.038 333.228C317.95 333.228 318.736 333.066 319.396 332.742C320.068 332.406 320.722 331.902 321.358 331.23V328.116ZM311.17 320.106C313.294 318.162 315.85 317.19 318.838 317.19C319.918 317.19 320.884 317.37 321.736 317.73C322.588 318.078 323.308 318.57 323.896 319.206C324.484 319.83 324.928 320.58 325.228 321.456C325.54 322.332 325.696 323.292 325.696 324.336V336H323.68C323.26 336 322.936 335.94 322.708 335.82C322.48 335.688 322.3 335.43 322.168 335.046L321.772 333.714C321.304 334.134 320.848 334.506 320.404 334.83C319.96 335.142 319.498 335.406 319.018 335.622C318.538 335.838 318.022 336 317.47 336.108C316.93 336.228 316.33 336.288 315.67 336.288C314.89 336.288 314.17 336.186 313.51 335.982C312.85 335.766 312.28 335.448 311.8 335.028C311.32 334.608 310.948 334.086 310.684 333.462C310.42 332.838 310.288 332.112 310.288 331.284C310.288 330.816 310.366 330.354 310.522 329.898C310.678 329.43 310.93 328.986 311.278 328.566C311.638 328.146 312.1 327.75 312.664 327.378C313.228 327.006 313.918 326.682 314.734 326.406C315.562 326.13 316.522 325.908 317.614 325.74C318.706 325.56 319.954 325.452 321.358 325.416V324.336C321.358 323.1 321.094 322.188 320.566 321.6C320.038 321 319.276 320.7 318.28 320.7C317.56 320.7 316.96 320.784 316.48 320.952C316.012 321.12 315.598 321.312 315.238 321.528C314.878 321.732 314.548 321.918 314.248 322.086C313.96 322.254 313.636 322.338 313.276 322.338C312.964 322.338 312.7 322.26 312.484 322.104C312.268 321.936 312.094 321.744 311.962 321.528L311.17 320.106ZM334.078 320.736C334.654 319.632 335.338 318.768 336.13 318.144C336.922 317.508 337.858 317.19 338.938 317.19C339.79 317.19 340.474 317.376 340.99 317.748L340.702 321.078C340.642 321.294 340.552 321.45 340.432 321.546C340.324 321.63 340.174 321.672 339.982 321.672C339.802 321.672 339.532 321.642 339.172 321.582C338.824 321.522 338.482 321.492 338.146 321.492C337.654 321.492 337.216 321.564 336.832 321.708C336.448 321.852 336.1 322.062 335.788 322.338C335.488 322.602 335.218 322.926 334.978 323.31C334.75 323.694 334.534 324.132 334.33 324.624V336H329.884V317.532H332.494C332.95 317.532 333.268 317.616 333.448 317.784C333.628 317.94 333.748 318.228 333.808 318.648L334.078 320.736ZM349.469 336.288C347.861 336.288 346.625 335.838 345.761 334.938C344.909 334.026 344.483 332.772 344.483 331.176V320.862H342.593C342.353 320.862 342.149 320.784 341.981 320.628C341.813 320.472 341.729 320.238 341.729 319.926V318.162L344.699 317.676L345.635 312.636C345.695 312.396 345.809 312.21 345.977 312.078C346.145 311.946 346.361 311.88 346.625 311.88H348.929V317.694H353.861V320.862H348.929V330.87C348.929 331.446 349.067 331.896 349.343 332.22C349.631 332.544 350.021 332.706 350.513 332.706C350.789 332.706 351.017 332.676 351.197 332.616C351.389 332.544 351.551 332.472 351.683 332.4C351.827 332.328 351.953 332.262 352.061 332.202C352.169 332.13 352.277 332.094 352.385 332.094C352.517 332.094 352.625 332.13 352.709 332.202C352.793 332.262 352.883 332.358 352.979 332.49L354.311 334.65C353.663 335.19 352.919 335.598 352.079 335.874C351.239 336.15 350.369 336.288 349.469 336.288ZM360.866 319.8C361.238 319.428 361.628 319.086 362.036 318.774C362.456 318.45 362.894 318.18 363.35 317.964C363.818 317.736 364.316 317.562 364.844 317.442C365.372 317.31 365.948 317.244 366.572 317.244C367.58 317.244 368.474 317.418 369.254 317.766C370.034 318.102 370.682 318.582 371.198 319.206C371.726 319.818 372.122 320.556 372.386 321.42C372.662 322.272 372.8 323.214 372.8 324.246V336H368.354V324.246C368.354 323.118 368.096 322.248 367.58 321.636C367.064 321.012 366.278 320.7 365.222 320.7C364.454 320.7 363.734 320.874 363.062 321.222C362.39 321.57 361.754 322.044 361.154 322.644V336H356.708V317.532H359.426C360.002 317.532 360.38 317.802 360.56 318.342L360.866 319.8ZM388.926 324.642C388.926 324.066 388.842 323.526 388.674 323.022C388.518 322.506 388.278 322.056 387.954 321.672C387.63 321.288 387.216 320.988 386.712 320.772C386.22 320.544 385.644 320.43 384.984 320.43C383.7 320.43 382.686 320.796 381.942 321.528C381.21 322.26 380.742 323.298 380.538 324.642H388.926ZM380.448 327.324C380.52 328.272 380.688 329.094 380.952 329.79C381.216 330.474 381.564 331.044 381.996 331.5C382.428 331.944 382.938 332.28 383.526 332.508C384.126 332.724 384.786 332.832 385.506 332.832C386.226 332.832 386.844 332.748 387.36 332.58C387.888 332.412 388.344 332.226 388.728 332.022C389.124 331.818 389.466 331.632 389.754 331.464C390.054 331.296 390.342 331.212 390.618 331.212C390.99 331.212 391.266 331.35 391.446 331.626L392.724 333.246C392.232 333.822 391.68 334.308 391.068 334.704C390.456 335.088 389.814 335.4 389.142 335.64C388.482 335.868 387.804 336.03 387.108 336.126C386.424 336.222 385.758 336.27 385.11 336.27C383.826 336.27 382.632 336.06 381.528 335.64C380.424 335.208 379.464 334.578 378.648 333.75C377.832 332.91 377.19 331.878 376.722 330.654C376.254 329.418 376.02 327.99 376.02 326.37C376.02 325.11 376.224 323.928 376.632 322.824C377.04 321.708 377.622 320.742 378.378 319.926C379.146 319.098 380.076 318.444 381.168 317.964C382.272 317.484 383.514 317.244 384.894 317.244C386.058 317.244 387.132 317.43 388.116 317.802C389.1 318.174 389.946 318.72 390.654 319.44C391.362 320.148 391.914 321.024 392.31 322.068C392.718 323.1 392.922 324.282 392.922 325.614C392.922 326.286 392.85 326.742 392.706 326.982C392.562 327.21 392.286 327.324 391.878 327.324H380.448ZM400.453 320.736C401.029 319.632 401.713 318.768 402.505 318.144C403.297 317.508 404.233 317.19 405.312 317.19C406.165 317.19 406.849 317.376 407.365 317.748L407.077 321.078C407.017 321.294 406.927 321.45 406.807 321.546C406.699 321.63 406.549 321.672 406.357 321.672C406.177 321.672 405.907 321.642 405.547 321.582C405.199 321.522 404.857 321.492 404.521 321.492C404.029 321.492 403.591 321.564 403.207 321.708C402.823 321.852 402.475 322.062 402.163 322.338C401.863 322.602 401.593 322.926 401.353 323.31C401.125 323.694 400.909 324.132 400.705 324.624V336H396.259V317.532H398.869C399.325 317.532 399.643 317.616 399.823 317.784C400.003 317.94 400.123 318.228 400.183 318.648L400.453 320.736ZM426.831 323.058C427.719 323.058 428.493 322.95 429.153 322.734C429.813 322.506 430.359 322.188 430.791 321.78C431.235 321.36 431.565 320.856 431.781 320.268C431.997 319.668 432.105 319.002 432.105 318.27C432.105 317.574 431.997 316.944 431.781 316.38C431.565 315.816 431.241 315.336 430.809 314.94C430.377 314.544 429.831 314.244 429.171 314.04C428.511 313.824 427.731 313.716 426.831 313.716H423.213V323.058H426.831ZM426.831 309.972C428.571 309.972 430.077 310.176 431.349 310.584C432.621 310.992 433.671 311.562 434.499 312.294C435.327 313.026 435.939 313.902 436.335 314.922C436.743 315.942 436.947 317.058 436.947 318.27C436.947 319.53 436.737 320.688 436.317 321.744C435.897 322.788 435.267 323.688 434.427 324.444C433.587 325.2 432.531 325.788 431.259 326.208C429.999 326.628 428.523 326.838 426.831 326.838H423.213V336H418.371V309.972H426.831ZM447.286 317.244C448.654 317.244 449.896 317.466 451.012 317.91C452.14 318.354 453.1 318.984 453.892 319.8C454.696 320.616 455.314 321.612 455.746 322.788C456.178 323.964 456.394 325.278 456.394 326.73C456.394 328.194 456.178 329.514 455.746 330.69C455.314 331.866 454.696 332.868 453.892 333.696C453.1 334.524 452.14 335.16 451.012 335.604C449.896 336.048 448.654 336.27 447.286 336.27C445.906 336.27 444.652 336.048 443.524 335.604C442.396 335.16 441.43 334.524 440.626 333.696C439.834 332.868 439.216 331.866 438.772 330.69C438.34 329.514 438.124 328.194 438.124 326.73C438.124 325.278 438.34 323.964 438.772 322.788C439.216 321.612 439.834 320.616 440.626 319.8C441.43 318.984 442.396 318.354 443.524 317.91C444.652 317.466 445.906 317.244 447.286 317.244ZM447.286 332.85C448.822 332.85 449.956 332.334 450.688 331.302C451.432 330.27 451.804 328.758 451.804 326.766C451.804 324.774 451.432 323.256 450.688 322.212C449.956 321.168 448.822 320.646 447.286 320.646C445.726 320.646 444.568 321.174 443.812 322.23C443.068 323.274 442.696 324.786 442.696 326.766C442.696 328.746 443.068 330.258 443.812 331.302C444.568 332.334 445.726 332.85 447.286 332.85ZM465.59 336.288C463.982 336.288 462.746 335.838 461.882 334.938C461.03 334.026 460.604 332.772 460.604 331.176V320.862H458.714C458.474 320.862 458.27 320.784 458.102 320.628C457.934 320.472 457.85 320.238 457.85 319.926V318.162L460.82 317.676L461.756 312.636C461.816 312.396 461.93 312.21 462.098 312.078C462.266 311.946 462.482 311.88 462.746 311.88H465.05V317.694H469.982V320.862H465.05V330.87C465.05 331.446 465.188 331.896 465.464 332.22C465.752 332.544 466.142 332.706 466.634 332.706C466.91 332.706 467.138 332.676 467.318 332.616C467.51 332.544 467.672 332.472 467.804 332.4C467.948 332.328 468.074 332.262 468.182 332.202C468.29 332.13 468.398 332.094 468.506 332.094C468.638 332.094 468.746 332.13 468.83 332.202C468.914 332.262 469.004 332.358 469.1 332.49L470.432 334.65C469.784 335.19 469.04 335.598 468.2 335.874C467.36 336.15 466.49 336.288 465.59 336.288ZM484.586 324.642C484.586 324.066 484.502 323.526 484.334 323.022C484.178 322.506 483.938 322.056 483.614 321.672C483.29 321.288 482.876 320.988 482.372 320.772C481.88 320.544 481.304 320.43 480.644 320.43C479.36 320.43 478.346 320.796 477.602 321.528C476.87 322.26 476.402 323.298 476.198 324.642H484.586ZM476.108 327.324C476.18 328.272 476.348 329.094 476.612 329.79C476.876 330.474 477.224 331.044 477.656 331.5C478.088 331.944 478.598 332.28 479.186 332.508C479.786 332.724 480.446 332.832 481.166 332.832C481.886 332.832 482.504 332.748 483.02 332.58C483.548 332.412 484.004 332.226 484.388 332.022C484.784 331.818 485.126 331.632 485.414 331.464C485.714 331.296 486.002 331.212 486.278 331.212C486.65 331.212 486.926 331.35 487.106 331.626L488.384 333.246C487.892 333.822 487.34 334.308 486.728 334.704C486.116 335.088 485.474 335.4 484.802 335.64C484.142 335.868 483.464 336.03 482.768 336.126C482.084 336.222 481.418 336.27 480.77 336.27C479.486 336.27 478.292 336.06 477.188 335.64C476.084 335.208 475.124 334.578 474.308 333.75C473.492 332.91 472.85 331.878 472.382 330.654C471.914 329.418 471.68 327.99 471.68 326.37C471.68 325.11 471.884 323.928 472.292 322.824C472.7 321.708 473.282 320.742 474.038 319.926C474.806 319.098 475.736 318.444 476.828 317.964C477.932 317.484 479.174 317.244 480.554 317.244C481.718 317.244 482.792 317.43 483.776 317.802C484.76 318.174 485.606 318.72 486.314 319.44C487.022 320.148 487.574 321.024 487.97 322.068C488.378 323.1 488.582 324.282 488.582 325.614C488.582 326.286 488.51 326.742 488.366 326.982C488.222 327.21 487.946 327.324 487.538 327.324H476.108ZM496.077 319.8C496.449 319.428 496.839 319.086 497.247 318.774C497.667 318.45 498.105 318.18 498.561 317.964C499.029 317.736 499.527 317.562 500.055 317.442C500.583 317.31 501.159 317.244 501.783 317.244C502.791 317.244 503.685 317.418 504.465 317.766C505.245 318.102 505.893 318.582 506.409 319.206C506.937 319.818 507.333 320.556 507.597 321.42C507.873 322.272 508.011 323.214 508.011 324.246V336H503.565V324.246C503.565 323.118 503.307 322.248 502.791 321.636C502.275 321.012 501.489 320.7 500.433 320.7C499.665 320.7 498.945 320.874 498.273 321.222C497.601 321.57 496.965 322.044 496.365 322.644V336H491.919V317.532H494.637C495.213 317.532 495.591 317.802 495.771 318.342L496.077 319.8ZM530.623 336H526.177V320.862H517.609V330.87C517.609 331.446 517.747 331.896 518.023 332.22C518.311 332.544 518.701 332.706 519.193 332.706C519.469 332.706 519.697 332.676 519.877 332.616C520.069 332.544 520.231 332.472 520.363 332.4C520.507 332.328 520.633 332.262 520.741 332.202C520.849 332.13 520.957 332.094 521.065 332.094C521.197 332.094 521.305 332.13 521.389 332.202C521.473 332.262 521.563 332.358 521.659 332.49L522.991 334.65C522.343 335.19 521.599 335.598 520.759 335.874C519.919 336.15 519.049 336.288 518.149 336.288C516.541 336.288 515.305 335.838 514.441 334.938C513.589 334.026 513.163 332.772 513.163 331.176V320.862H511.273C511.033 320.862 510.829 320.784 510.661 320.628C510.493 320.472 510.409 320.238 510.409 319.926V318.162L513.379 317.658L514.315 312.636C514.375 312.396 514.489 312.21 514.657 312.078C514.825 311.946 515.041 311.88 515.305 311.88H517.609V317.694H530.623V336ZM531.397 312.078C531.397 312.462 531.319 312.828 531.163 313.176C531.007 313.512 530.797 313.806 530.533 314.058C530.281 314.31 529.975 314.514 529.615 314.67C529.267 314.814 528.895 314.886 528.499 314.886C528.115 314.886 527.755 314.814 527.419 314.67C527.083 314.514 526.789 314.31 526.537 314.058C526.285 313.806 526.081 313.512 525.925 313.176C525.781 312.828 525.709 312.462 525.709 312.078C525.709 311.682 525.781 311.316 525.925 310.98C526.081 310.632 526.285 310.332 526.537 310.08C526.789 309.816 527.083 309.612 527.419 309.468C527.755 309.312 528.115 309.234 528.499 309.234C528.895 309.234 529.267 309.312 529.615 309.468C529.975 309.612 530.281 309.816 530.533 310.08C530.797 310.332 531.007 310.632 531.163 310.98C531.319 311.316 531.397 311.682 531.397 312.078ZM544.917 328.116C543.633 328.176 542.553 328.29 541.677 328.458C540.801 328.614 540.099 328.818 539.571 329.07C539.043 329.322 538.665 329.616 538.437 329.952C538.209 330.288 538.095 330.654 538.095 331.05C538.095 331.83 538.323 332.388 538.779 332.724C539.247 333.06 539.853 333.228 540.597 333.228C541.509 333.228 542.295 333.066 542.955 332.742C543.627 332.406 544.281 331.902 544.917 331.23V328.116ZM534.729 320.106C536.853 318.162 539.409 317.19 542.397 317.19C543.477 317.19 544.443 317.37 545.295 317.73C546.147 318.078 546.867 318.57 547.455 319.206C548.043 319.83 548.487 320.58 548.787 321.456C549.099 322.332 549.255 323.292 549.255 324.336V336H547.239C546.819 336 546.495 335.94 546.267 335.82C546.039 335.688 545.859 335.43 545.727 335.046L545.331 333.714C544.863 334.134 544.407 334.506 543.963 334.83C543.519 335.142 543.057 335.406 542.577 335.622C542.097 335.838 541.581 336 541.029 336.108C540.489 336.228 539.889 336.288 539.229 336.288C538.449 336.288 537.729 336.186 537.069 335.982C536.409 335.766 535.839 335.448 535.359 335.028C534.879 334.608 534.507 334.086 534.243 333.462C533.979 332.838 533.847 332.112 533.847 331.284C533.847 330.816 533.925 330.354 534.081 329.898C534.237 329.43 534.489 328.986 534.837 328.566C535.197 328.146 535.659 327.75 536.223 327.378C536.787 327.006 537.477 326.682 538.293 326.406C539.121 326.13 540.081 325.908 541.173 325.74C542.265 325.56 543.513 325.452 544.917 325.416V324.336C544.917 323.1 544.653 322.188 544.125 321.6C543.597 321 542.835 320.7 541.839 320.7C541.119 320.7 540.519 320.784 540.039 320.952C539.571 321.12 539.157 321.312 538.797 321.528C538.437 321.732 538.107 321.918 537.807 322.086C537.519 322.254 537.195 322.338 536.835 322.338C536.523 322.338 536.259 322.26 536.043 322.104C535.827 321.936 535.653 321.744 535.521 321.528L534.729 320.106ZM557.942 309.252V336H553.496V309.252H557.942Z" fill="black"/>
<g clip-path="url(#clip0_155_3)">
<path d="M1244.01 377.271H1025.96V409.232H1244.01V377.271Z" fill="#110239"/>
<path d="M1251.34 225.458H1018.63C1011.25 225.458 1005.27 231.43 1005.27 238.797V385.797C1005.27 393.164 1011.25 399.136 1018.63 399.136H1251.34C1258.71 399.136 1264.69 393.164 1264.69 385.797V238.797C1264.69 231.43 1258.71 225.458 1251.34 225.458Z" fill="#110239"/>
<path d="M1252.74 236.959H1017.22V385.83H1252.74V236.959Z" fill="#FEFEFE"/>
<path d="M980 445.505V450.253C980 452.894 982.879 455 986.393 455H1283.61C1287.12 455 1290 452.894 1290 450.253V445.505H980Z" fill="#110239"/>
<path d="M1135.02 408.864H1007.82C1007.41 409.332 987.398 427.218 981.306 440.491C978.695 446.174 980.402 449.183 985.255 449.183H1284.88C1289.77 449.183 1291.57 446.174 1288.86 440.491C1282.74 427.118 1262.75 409.332 1262.32 408.864H1135.02Z" fill="#110239"/>
<path d="M1273.9 442.363H1002.8L1021.57 414.581H1255.12L1273.9 442.363Z" fill="#9C9EB9"/>
<path d="M1270.62 437.616L1270.02 436.746H1251.94L1248.59 430.06H1265.5L1264.89 429.191H1248.16L1244.81 422.504H1260.38L1259.81 421.635H1244.28L1240.93 414.949H1239.39L1242.74 421.635H1223.35L1220.64 414.949H1219.1L1221.75 421.635H1202.37L1200.36 414.949H1198.78L1200.76 421.635H1181.41L1180.07 414.949H1178.5L1179.77 421.635H1160.42L1159.79 414.949H1158.21L1158.78 421.635H1140.51V414.949H1138.8V421.635H1119.72L1120.32 414.949H1118.75L1118.11 421.635H1098.76L1100.04 414.949H1098.46L1097.12 421.635H1077.78L1079.75 414.949H1078.18L1076.14 421.635H1056.82L1059.47 414.949H1057.93L1055.22 421.635H1035.83L1039.18 414.949H1037.61L1034.26 421.635H1017.16L1016.59 422.504H1033.83L1030.48 429.191H1012.07L1011.47 430.06H1030.04L1026.7 436.746H1006.61L1006.01 437.616H1026.09L1023.68 442.463H1025.46L1027.83 437.616H1048.72L1046.78 442.463H1048.55L1050.46 437.616H1071.35L1069.91 442.463H1071.68L1073.09 437.616H1093.98L1093.01 442.463H1094.82L1095.72 437.616H1116.61L1116.14 442.463H1117.91L1118.35 437.616H1138.77V442.463H1140.51V437.616H1160.26L1160.69 442.463H1162.47L1162 437.616H1182.88L1183.79 442.463H1185.6L1184.62 437.616H1205.51L1206.92 442.463H1208.69L1207.12 437.616H1228.01L1229.91 442.463H1231.69L1229.75 437.616H1250.6L1253.01 442.463H1254.79L1252.34 437.616H1270.62ZM1056.39 422.371H1075.84L1073.83 429.057H1053.74L1056.39 422.371ZM1035.3 422.371H1054.75L1052.07 429.057H1031.98L1035.3 422.371ZM1049.06 436.746H1028.24L1031.58 430.06H1051.67L1049.06 436.746ZM1071.58 436.746H1050.76L1053.41 430.06H1073.49L1071.58 436.746ZM1094.11 436.746H1073.32L1075.27 430.06H1095.35L1094.11 436.746ZM1095.58 429.124H1075.5L1077.44 422.438H1096.99L1095.58 429.124ZM1116.64 436.746H1095.85L1097.09 430.06H1117.18L1116.64 436.746ZM1117.34 429.124H1097.26L1098.53 422.438H1117.98L1117.34 429.124ZM1138.73 436.746H1118.38L1118.95 430.06H1138.73V436.746ZM1138.73 429.124H1119.02L1119.59 422.438H1138.73V429.124ZM1140.44 422.438H1158.92L1159.49 429.124H1140.51L1140.44 422.438ZM1140.44 436.813V430.127H1159.55L1160.12 436.813H1140.44ZM1243.2 422.438L1246.55 429.124H1226.47L1223.79 422.438H1243.2ZM1222.12 422.438L1224.76 429.124H1204.68L1202.67 422.438H1222.12ZM1160.52 422.438H1179.97L1181.24 429.124H1161.16L1160.52 422.438ZM1161.86 436.813L1161.23 430.127H1181.31L1182.55 436.813H1161.86ZM1181.61 422.438H1201.06L1203 429.124H1182.92L1181.61 422.438ZM1184.39 436.813L1183.09 430.127H1203.17L1205.11 436.813H1184.39ZM1206.92 436.813L1204.94 430.127H1225.03L1227.67 436.813H1206.92ZM1229.45 436.813L1226.77 430.127H1246.85L1250.2 436.813H1229.45Z" fill="#D0D1DE"/>
<path d="M1135.02 449.183H1121.83C1121.81 449.848 1122.05 450.494 1122.5 450.988C1122.77 451.232 1123.13 451.363 1123.5 451.356H1146.53C1146.89 451.362 1147.24 451.23 1147.5 450.988C1147.95 450.494 1148.19 449.848 1148.17 449.183H1135.02Z" fill="#110239"/>
<path d="M1252.74 236.959H1017.22V385.83H1252.74V236.959Z" fill="#FEFEFE"/>
<path d="M1139.37 312.882L1118.11 322.343L1091.23 295.498L1017.22 351.796V385.83H1252.74V210.915L1154.36 329.832L1139.37 312.882Z" fill="#01C7E2"/>
<path d="M1071.22 340.396H1063.68V346.08H1071.22V340.396Z" fill="#FEFEFE"/>
<path d="M1081.79 340.396H1074.26V346.08H1081.79V340.396Z" fill="#FEFEFE"/>
<path d="M1092.41 340.396H1084.87V346.08H1092.41V340.396Z" fill="#FD425F"/>
<path d="M1103.02 340.396H1095.48V346.08H1103.02V340.396Z" fill="#FEFEFE"/>
<path d="M1113.59 340.396H1106.06V346.08H1113.59V340.396Z" fill="#FEFEFE"/>
<path d="M1124.2 340.396H1116.67V346.08H1124.2V340.396Z" fill="#FD425F"/>
<path d="M1071.22 350.091H1063.68V355.775H1071.22V350.091Z" fill="#FEFEFE"/>
<path d="M1081.79 350.091H1074.26V355.775H1081.79V350.091Z" fill="#FEFEFE"/>
<path d="M1092.41 350.091H1084.87V355.775H1092.41V350.091Z" fill="#FEFEFE"/>
<path d="M1103.02 350.091H1095.48V355.775H1103.02V350.091Z" fill="#FEFEFE"/>
<path d="M1113.59 350.091H1106.06V355.775H1113.59V350.091Z" fill="#FD425F"/>
<path d="M1124.2 350.091H1116.67V355.775H1124.2V350.091Z" fill="#FEFEFE"/>
<path d="M1071.22 359.82H1063.68V365.503H1071.22V359.82Z" fill="#FEFEFE"/>
<path d="M1081.79 359.82H1074.26V365.503H1081.79V359.82Z" fill="#FD425F"/>
<path d="M1092.41 359.82H1084.87V365.503H1092.41V359.82Z" fill="#FEFEFE"/>
<path d="M1103.02 359.82H1095.48V365.503H1103.02V359.82Z" fill="#FEFEFE"/>
<path d="M1113.59 359.82H1106.06V365.503H1113.59V359.82Z" fill="#FEFEFE"/>
<path d="M1124.2 359.82H1116.67V365.503H1124.2V359.82Z" fill="#FEFEFE"/>
<path d="M1071.22 369.549H1063.68V375.232H1071.22V369.549Z" fill="#FEFEFE"/>
<path d="M1081.79 369.549H1074.26V375.232H1081.79V369.549Z" fill="#FEFEFE"/>
<path d="M1092.41 369.549H1084.87V375.232H1092.41V369.549Z" fill="#FD425F"/>
<path d="M1103.02 369.549H1095.48V375.232H1103.02V369.549Z" fill="#FEFEFE"/>
<path d="M1141.91 324.282L1141.14 323.547L1140.21 323.948L1139.6 322.477L1141.48 321.674L1142.95 323.145L1141.91 324.282Z" fill="white"/>
<path d="M1124.77 330.434L1124.17 328.929L1126.75 327.859L1127.35 329.33L1124.77 330.434ZM1129.93 328.26L1129.33 326.79L1131.9 325.686L1132.51 327.191L1129.93 328.26ZM1135.08 326.087L1134.48 324.616L1137.02 323.547L1137.63 325.018L1135.08 326.087Z" fill="white"/>
<path d="M1120.32 332.272L1118.78 330.935L1119.79 329.698L1120.59 330.434L1121.59 330.032L1122.2 331.503L1120.32 332.272Z" fill="white"/>
<path d="M1116.51 328.929L1114.23 326.957L1115.2 325.753L1117.51 327.726L1116.51 328.929ZM1111.95 324.951L1109.64 322.978L1110.65 321.775L1112.92 323.747L1111.95 324.951ZM1107.37 321.006L1105.09 319L1106.1 317.796L1108.37 319.769L1107.37 321.006ZM1102.81 317.028L1100.54 315.022L1101.54 313.818L1103.82 315.824L1102.81 317.028ZM1098.26 313.049L1095.99 311.043L1096.99 309.84L1099.27 311.846L1098.26 313.049Z" fill="white"/>
<path d="M1093.68 309.037L1092.94 308.402L1092.17 308.97L1091.27 307.633L1093.04 306.396L1094.68 307.834L1093.68 309.037Z" fill="white"/>
<path d="M1022.54 357.814L1021.64 356.477L1024.35 354.538L1025.29 355.909L1022.54 357.814ZM1028 353.969L1027.1 352.632L1029.84 350.727L1030.75 352.064L1028 353.969ZM1033.46 350.158L1032.55 348.821L1035.26 346.915L1036.17 348.253L1033.46 350.158ZM1038.91 346.347L1037.98 345.01L1040.69 343.104L1041.59 344.441L1038.91 346.347ZM1044.3 342.536L1043.4 341.199L1046.11 339.326L1047.01 340.664L1044.3 342.536ZM1049.69 338.758L1048.79 337.421L1051.5 335.549L1052.4 336.886L1049.69 338.758ZM1055.08 334.98L1054.18 333.643L1056.86 331.771L1057.76 333.108L1055.08 334.98ZM1060.44 331.236L1059.53 329.899L1062.21 328.027L1063.12 329.364L1060.44 331.236ZM1065.76 327.492L1064.86 326.154L1067.53 324.282L1068.44 325.619L1065.76 327.492ZM1071.08 323.747L1070.18 322.443L1072.82 320.571L1073.73 321.909L1071.08 323.747ZM1076.4 320.036L1075.5 318.733L1078.11 316.86L1079.02 318.198L1076.4 320.036ZM1081.66 316.325L1080.76 315.022L1083.4 313.183L1084.3 314.487L1081.66 316.325ZM1086.91 312.648L1086.01 311.344L1088.66 309.505L1089.56 310.809L1086.91 312.648Z" fill="white"/>
<path d="M1160.19 334.679L1159.05 333.576L1161.06 331.236L1162.23 332.306L1160.19 334.679ZM1164.24 329.966L1163.07 328.896L1165.08 326.556L1166.25 327.625L1164.24 329.966ZM1168.26 325.285L1167.08 324.215L1169.09 321.875L1170.26 322.945L1168.26 325.285ZM1172.27 320.638L1171.1 319.568L1173.11 317.228L1174.25 318.298L1172.27 320.638ZM1176.26 315.991L1175.09 314.921L1177.09 312.615L1178.23 313.684L1176.26 315.991ZM1180.24 311.344L1179.07 310.274L1181.08 307.968L1182.22 309.037L1180.24 311.344ZM1184.19 306.731L1183.05 305.694L1185.03 303.387L1186.16 304.457L1184.19 306.731ZM1188.14 302.15L1187 301.081L1188.98 298.807L1190.11 299.844L1188.14 302.15ZM1192.09 297.57L1190.95 296.5L1192.89 294.227L1194.03 295.297L1192.09 297.57ZM1196.01 292.99L1194.87 291.954L1196.81 289.68L1197.95 290.717L1196.01 292.99ZM1199.92 288.443L1198.78 287.407L1200.73 285.134L1201.86 286.17L1199.92 288.443ZM1203.81 283.93L1202.67 282.86L1204.61 280.62L1205.75 281.657L1203.81 283.93ZM1207.69 279.417L1206.55 278.347L1208.49 276.107L1209.63 277.144L1207.69 279.417ZM1211.57 274.904L1210.43 273.867L1212.34 271.594L1213.48 272.664L1211.57 274.904ZM1215.42 270.424L1214.28 269.354L1216.22 267.114L1217.33 268.184L1215.42 270.424ZM1219.27 265.944L1218.13 264.908L1220.04 262.668L1221.18 263.704L1219.27 265.944ZM1223.09 261.498L1221.95 260.428L1223.86 258.221L1224.99 259.258L1223.09 261.498ZM1226.9 257.051L1225.76 256.015L1227.54 253.741L1228.68 254.811L1226.9 257.051ZM1230.72 252.638L1229.58 251.568L1231.49 249.362L1232.59 250.432L1230.72 252.638ZM1234.5 248.225L1233.36 247.155L1235.27 244.982L1236.38 246.019L1234.5 248.225ZM1238.28 243.812L1237.15 242.776L1239.05 240.603L1240.16 241.639L1238.28 243.812ZM1242.03 239.433L1240.93 238.396L1242.8 236.223L1243.91 237.26L1242.03 239.433ZM1245.55 235.287L1244.44 234.251L1246.32 232.078L1247.42 233.114L1245.55 235.287ZM1249.06 231.142L1247.92 230.105L1249.8 227.932L1250.94 228.969L1249.06 231.142Z" fill="white"/>
<path d="M1156.64 338.791L1154.93 337.12L1155.97 335.983L1156.51 336.485L1157.01 335.916L1158.18 337.02L1156.64 338.791Z" fill="white"/>
<path d="M1152.32 334.546L1149.71 331.971L1150.78 330.835L1153.39 333.409L1152.32 334.546ZM1147.2 329.431L1144.59 326.856L1145.63 325.72L1148.24 328.294L1147.2 329.431Z" fill="white"/>
<path d="M1246.48 193.564L1154.7 309.806L1139.84 291.887L1118.08 302.184L1090.46 272.764L1017.22 332.205V339.36L1090.3 280.085L1117.51 309.104L1139.13 298.841L1154.83 317.796L1250.13 197.175C1248.83 196.067 1247.61 194.86 1246.48 193.564V193.564Z" fill="#FD425F"/>
<path d="M1260.71 183L1239.05 190.322L1253.38 204.63L1260.71 183Z" fill="#FD425F"/>
<path d="M1045.58 255.914C1050.46 256.282 1054.95 258.388 1054.98 263.269H1046.78C1046.78 261.431 1044.81 261.063 1043.63 261.063C1042.46 261.063 1040.45 261.063 1040.45 262.567C1040.45 265.911 1055.48 262.367 1055.55 271.828C1055.55 277.511 1051.17 279.651 1045.68 280.052L1046.08 286.103H1041.09L1041.36 280.019C1036.3 279.517 1031.55 277.177 1031.52 272.062H1039.68V272.262C1039.68 274.502 1042.26 274.937 1043.53 274.904C1044.81 274.87 1047.18 274.904 1047.18 273.165C1047.18 269.822 1032.15 272.965 1032.09 263.804C1032.09 258.522 1036.17 256.449 1041.22 255.981L1040.89 249.93H1045.84L1045.58 255.914Z" fill="#FD425F"/>
<path d="M1170 419.696C1170 419.696 1170.33 426.383 1169.39 427.319C1168.46 428.255 1155.27 429.726 1154.06 428.622C1152.86 427.519 1153.33 425.279 1156.1 424.41C1158.88 423.541 1160.59 424.042 1162.43 423.106C1164.27 422.17 1163.54 419.228 1163.54 419.228L1170 419.696Z" fill="#110239"/>
<path d="M1213.04 419.696C1213.04 419.696 1212.71 426.383 1213.68 427.319C1214.65 428.255 1227.77 429.726 1229.01 428.622C1230.25 427.519 1229.71 425.279 1226.97 424.41C1224.22 423.541 1222.45 424.042 1220.61 423.106C1218.77 422.17 1219.5 419.228 1219.5 419.228L1213.04 419.696Z" fill="#110239"/>
<path d="M1213.78 381.417C1210.48 369.94 1206.48 358.674 1201.8 347.684C1200.66 347.283 1199.39 346.915 1198.11 346.548C1198.45 345.01 1198.68 343.673 1198.92 342.503C1196.68 343.104 1194.33 343.405 1191.92 344.141L1190.85 344.475L1189.78 344.141C1187.37 343.405 1184.99 343.104 1182.78 342.503C1183.02 343.673 1183.25 345.01 1183.59 346.548C1182.32 346.915 1181.04 347.283 1179.91 347.684C1175.23 358.674 1171.22 369.94 1167.92 381.417C1165.95 391.446 1162.63 420.967 1162.63 420.967L1171.07 422.103C1171.07 422.103 1179.57 382.32 1180.78 380.147C1182.95 376.168 1185.23 372.691 1187.27 369.582C1187.66 368.989 1188.19 368.502 1188.82 368.165C1189.44 367.828 1190.14 367.651 1190.85 367.651C1191.56 367.651 1192.26 367.828 1192.89 368.165C1193.51 368.502 1194.04 368.989 1194.43 369.582C1196.47 372.691 1198.75 376.268 1200.93 380.147C1202.13 382.32 1210.63 422.103 1210.63 422.103L1219.07 420.967C1219.07 420.967 1215.76 391.38 1213.78 381.417Z" fill="#FD425F"/>
<path d="M1216.09 258.388C1215.59 255.045 1215.09 254.443 1213.95 253.741C1213.39 253.494 1212.88 253.129 1212.48 252.672C1212.02 252.145 1211.5 251.674 1210.94 251.267C1210.34 250.899 1209.86 250.364 1209.56 249.73C1209.3 248.927 1210.37 249.128 1211.07 249.395C1211.77 249.663 1213.25 251.735 1214.08 251.468C1214.92 251.201 1212.98 248.76 1212.61 248.125C1211.71 246.988 1210.6 247.155 1209.26 246.62C1207.92 246.085 1208.32 245.985 1209.06 245.517C1209.8 245.049 1210.37 245.517 1210.94 245.517C1212.21 245.905 1213.36 246.607 1214.28 247.556C1213.51 246.623 1212.54 245.871 1211.44 245.35C1210.84 245.049 1208.09 244.18 1208.42 243.177C1209.23 241.171 1214.72 244.949 1215.32 246.019C1214.57 245.063 1213.65 244.249 1212.61 243.612C1212.04 243.21 1210.63 242.274 1211.81 241.806C1213.58 241.104 1215.69 244.347 1216.89 245.651C1216.34 244.64 1215.65 243.708 1214.85 242.876C1213.88 241.706 1215.09 241.405 1216.29 242.441C1216.85 242.97 1217.36 243.54 1217.83 244.146C1219.36 246.141 1220.19 248.587 1220.17 251.1C1220.17 252.17 1220.17 253.909 1220.64 256.984C1220.84 259.024 1217.5 258.087 1216.09 258.388Z" fill="#F88667"/>
<path d="M1133.81 306.262C1130.46 305.059 1130.16 303.755 1129.76 302.485C1129.61 301.885 1129.35 301.319 1128.99 300.813C1128.58 300.248 1128.24 299.643 1127.95 299.008C1127.73 298.35 1127.31 297.778 1126.75 297.37C1126.01 296.902 1126.01 298.005 1126.11 298.74C1126.21 299.476 1127.95 301.381 1127.48 302.084C1127.02 302.786 1125.07 300.445 1124.67 299.944C1123.77 298.841 1124.14 297.804 1123.9 296.601C1123.74 295.865 1123.43 295.564 1122.83 296.2C1122.66 296.472 1122.55 296.775 1122.51 297.091C1122.46 297.407 1122.48 297.73 1122.56 298.038C1122.7 299.324 1123.14 300.56 1123.84 301.649C1123.12 300.639 1122.6 299.505 1122.3 298.306C1122.13 297.637 1121.89 294.695 1120.82 294.963C1118.68 295.33 1121.23 301.482 1122.13 302.284C1121.37 301.346 1120.78 300.283 1120.39 299.142C1120.09 298.473 1119.48 296.902 1118.78 297.971C1117.71 299.543 1120.42 302.284 1121.43 303.755C1120.58 302.991 1119.82 302.127 1119.18 301.181C1118.25 299.977 1117.68 301.181 1118.45 302.485C1118.84 303.127 1119.27 303.742 1119.75 304.323C1121.37 306.261 1123.6 307.592 1126.08 308.101C1127.95 308.586 1129.77 309.27 1131.5 310.141C1133.18 310.909 1133.28 307.633 1133.81 306.262Z" fill="#F88667"/>
<path d="M1195 299.844C1193.18 300.181 1191.32 300.271 1189.48 300.111C1188.82 300.042 1188.17 299.907 1187.54 299.71C1187.89 303.053 1187.36 306.431 1186 309.505C1186 309.505 1186.57 312.08 1191.29 312.146C1196.01 312.213 1196.57 309.505 1196.57 309.505C1195.38 306.43 1194.85 303.138 1195 299.844Z" fill="#F88667"/>
<path d="M1213.11 312.849C1209.86 309.932 1205.9 307.905 1201.63 306.965C1194.98 305.909 1188.2 305.909 1181.55 306.965C1178.13 307.137 1174.84 308.298 1172.07 310.308C1170.47 312.381 1175.25 323.848 1176.06 334.379C1176.72 343.138 1177.93 349.891 1177.93 349.891C1180.54 354.739 1201.19 354.872 1203.84 349.891C1203.84 349.891 1204.34 342.402 1205.75 334.245C1207.45 323.747 1214.75 314.921 1213.11 312.849Z" fill="#E5E6ED"/>
<path d="M1179.97 331.938C1180.56 328.452 1180.56 324.893 1179.97 321.407C1178.22 318.272 1175.37 315.892 1171.97 314.721C1173.72 321.201 1175.02 327.791 1175.89 334.445C1176.56 343.205 1177.76 349.958 1177.76 349.958C1178.52 351.021 1179.62 351.789 1180.88 352.131C1177.96 346.414 1179.7 337.321 1179.97 331.938Z" fill="#ABADC4"/>
<path d="M1201.36 287.173C1201.36 287.173 1191.59 281.456 1190.11 282.86C1188.64 284.265 1186.33 289.045 1185.19 289.781C1184.06 290.516 1182.35 291.218 1182.48 292.088C1182.62 292.957 1183.22 292.99 1183.18 293.859C1183.15 294.729 1181.14 298.874 1182.21 300.111C1184.01 301.363 1186.1 302.123 1188.28 302.317C1190.46 302.51 1192.65 302.13 1194.63 301.214C1198.92 298.239 1206.15 289.614 1201.36 287.173Z" fill="#F88667"/>
<path d="M1203.5 289.145H1195.3C1194.2 291.76 1192.46 294.059 1190.25 295.832C1190.25 295.832 1190.45 297.035 1191.32 296.801C1191.73 296.758 1192.12 296.621 1192.47 296.401C1192.82 296.181 1193.11 295.883 1193.33 295.531C1193.9 294.628 1195.67 292.188 1196.88 294.327C1198.08 296.467 1195.5 297.136 1194.43 297.136C1194.43 297.136 1190.68 301.649 1193.6 302.485C1196.85 301.458 1199.71 299.464 1201.8 296.768C1206.72 291.653 1205.71 288.744 1203.5 289.145Z" fill="#110239"/>
<path d="M1187.97 279.551C1187.97 279.551 1183.99 281.991 1188.61 286.839C1193.23 291.686 1204.11 289.146 1204.11 289.146C1204.11 289.146 1205.24 285.802 1201.33 282.66C1200.25 281.464 1198.86 280.59 1197.31 280.136C1195.76 279.681 1194.12 279.664 1192.56 280.086C1188.17 282.125 1187.97 279.551 1187.97 279.551Z" fill="#110239"/>
<path d="M1132.81 304.691L1129.46 310.274C1135.49 315.917 1141.94 321.082 1148.77 325.72C1154.77 329.698 1175.35 323.313 1178.53 322.377C1183.08 321.006 1186.5 311.411 1178.93 307.834C1174.48 305.728 1156.67 319.267 1152.16 316.961C1146.7 314.119 1132.81 304.691 1132.81 304.691Z" fill="#E5E6ED"/>
<path d="M1214.58 257.085L1221.51 255.914C1221.51 255.914 1226.1 275.973 1225.83 283.094C1225.56 290.215 1214.08 316.526 1211.47 318.499C1208.32 320.972 1199.62 313.852 1205.95 306.196C1212.27 298.54 1216.36 282.794 1216.53 282.158C1216.69 281.523 1214.58 257.085 1214.58 257.085Z" fill="#E5E6ED"/>
<path d="M1127.18 245.517H1071.28V250.532H1127.18V245.517Z" fill="#D0D1DE"/>
<path d="M1127.18 253.474H1071.28V258.489H1127.18V253.474Z" fill="#D0D1DE"/>
<path d="M1113.59 261.397H1071.28V266.412H1113.59V261.397Z" fill="#D0D1DE"/>
</g>
<g clip-path="url(#clip1_155_3)">
<path d="M904.18 253.05L961.18 310.05C963.18 310.43 965.18 310.72 967.26 310.93L903.26 246.93C903.51 249.02 903.8 251.06 904.18 253.05Z" fill="#F2F2F2"/>
<path d="M908.57 211.69L1002.57 305.69C1003.77 305.18 1004.96 304.69 1006.14 304.06L910.22 208.12C909.65 209.3 909.1 210.5 908.57 211.69Z" fill="#F2F2F2"/>
<path d="M976.94 168.04C976.14 168.04 975.35 168.04 974.56 168.04C973.77 168.04 972.69 168.04 971.75 168.09L1046.2 242.54C1046.27 240.82 1046.27 239.09 1046.2 237.36L976.94 168.04Z" fill="#F2F2F2"/>
<path d="M1013.99 179.75L1034.48 200.24C1029.11 192.094 1022.14 185.123 1013.99 179.75V179.75Z" fill="#F2F2F2"/>
<path d="M903 236.61L977.64 311.26C979.25 311.19 980.87 311.07 982.48 310.89L903.36 231.75C903.19 233.38 903.06 235 903 236.61Z" fill="#F2F2F2"/>
<path d="M913.82 201.66L1012.57 300.44C1013.63 299.77 1014.68 299.08 1015.7 298.36L915.89 198.53C915.18 199.55 914.48 200.6 913.82 201.66Z" fill="#F2F2F2"/>
<path d="M904.84 223.2L991.06 309.42C992.45 309.09 993.82 308.72 995.17 308.32L905.93 219.08C905.57 220.43 905.16 221.8 904.84 223.2Z" fill="#F2F2F2"/>
<path d="M995.15 171C992.883 170.321 990.584 169.756 988.26 169.31L1044.95 225.99C1044.5 223.67 1043.95 221.36 1043.26 219.1L995.15 171Z" fill="#F2F2F2"/>
<path d="M923.92 290.34C930.475 296.926 938.259 302.162 946.83 305.75L908.5 267.43C912.091 276.002 917.33 283.786 923.92 290.34V290.34Z" fill="#F2F2F2"/>
<path d="M958.3 169.86L1044.39 255.95C1044.72 254.51 1045.01 253.06 1045.26 251.61L962.64 169C961.19 169.24 959.74 169.53 958.3 169.86Z" fill="#F2F2F2"/>
<path d="M927.93 185.27L1028.99 286.27C1029.79 285.33 1030.57 284.37 1031.33 283.4L930.8 182.93C929.83 183.68 928.87 184.46 927.93 185.27Z" fill="#F2F2F2"/>
<path d="M946.78 173.6L1040.66 267.47C1041.18 266.23 1041.66 264.98 1042.11 263.73L950.57 172.14C949.27 172.59 948.02 173.07 946.78 173.6Z" fill="#F2F2F2"/>
<path d="M920.3 192.89L1021.37 293.96C1022.29 293.16 1023.2 292.33 1024.09 291.48L922.78 190.16C921.93 191.05 921.1 191.96 920.3 192.89Z" fill="#F2F2F2"/>
<path d="M936.73 178.8L1035.45 277.53C1036.12 276.45 1036.77 275.35 1037.38 274.25L940.01 176.88C938.9 177.49 937.8 178.13 936.73 178.8Z" fill="#F2F2F2"/>
</g>
<g clip-path="url(#clip2_155_3)">
<path d="M754.45 431C750.75 431 748.95 427.53 747.37 424.46C745.92 421.65 744.55 419 742.06 419C739.57 419 738.21 421.65 736.76 424.46C735.18 427.52 733.38 431 729.68 431C725.98 431 724.18 427.52 722.6 424.46C721.15 421.65 719.78 419 717.29 419C714.8 419 713.44 421.65 711.99 424.46C710.41 427.52 708.61 431 704.91 431C701.21 431 699.41 427.52 697.83 424.46C696.38 421.65 695.02 419 692.53 419C690.04 419 688.68 421.65 687.23 424.46C685.64 427.53 683.85 431 680.15 431C676.45 431 674.65 427.52 673.07 424.46C671.62 421.65 670.25 419 667.76 419C665.27 419 663.91 421.65 662.46 424.46C660.88 427.52 659.09 431 655.38 431C651.67 431 649.88 427.52 648.3 424.46C646.85 421.65 645.48 419 643 419V417C646.7 417 648.5 420.47 650.08 423.54C651.53 426.35 652.89 429 655.38 429C657.87 429 659.24 426.35 660.68 423.54C662.27 420.48 664.06 417 667.76 417C671.46 417 673.26 420.48 674.84 423.54C676.29 426.35 677.66 429 680.15 429C682.64 429 684 426.35 685.45 423.54C687.03 420.48 688.82 417 692.53 417C696.24 417 698.03 420.48 699.61 423.54C701.06 426.35 702.42 429 704.91 429C707.4 429 708.76 426.35 710.21 423.54C711.79 420.48 713.59 417 717.29 417C720.99 417 722.79 420.48 724.37 423.54C725.82 426.35 727.19 429 729.68 429C732.17 429 733.53 426.35 734.98 423.54C736.56 420.48 738.36 417 742.06 417C745.76 417 747.56 420.48 749.15 423.54C750.6 426.35 751.97 429 754.45 429C756.93 429 758.31 426.35 759.76 423.54C761.34 420.48 763.14 417 766.85 417V419C764.36 419 762.99 421.65 761.54 424.46C759.95 427.53 758.14 431 754.45 431Z" fill="#01C7E2"/>
<path d="M754.45 444.99C750.75 444.99 748.95 441.52 747.37 438.45C745.92 435.64 744.55 432.99 742.06 432.99C739.57 432.99 738.21 435.64 736.76 438.45C735.18 441.52 733.38 444.99 729.68 444.99C725.98 444.99 724.18 441.52 722.6 438.45C721.15 435.64 719.78 432.99 717.29 432.99C714.8 432.99 713.44 435.64 711.99 438.45C710.41 441.52 708.61 444.99 704.91 444.99C701.21 444.99 699.41 441.52 697.83 438.45C696.38 435.64 695.02 432.99 692.53 432.99C690.04 432.99 688.68 435.64 687.23 438.45C685.64 441.52 683.85 444.99 680.15 444.99C676.45 444.99 674.65 441.52 673.07 438.45C671.62 435.64 670.25 432.99 667.76 432.99C665.27 432.99 663.91 435.64 662.46 438.45C660.88 441.52 659.09 444.99 655.38 444.99C651.67 444.99 649.88 441.52 648.3 438.45C646.85 435.64 645.48 432.99 643 432.99V430.99C646.7 430.99 648.5 434.47 650.08 437.53C651.53 440.34 652.89 442.99 655.38 442.99C657.87 442.99 659.24 440.34 660.68 437.53C662.27 434.47 664.06 430.99 667.76 430.99C671.46 430.99 673.26 434.47 674.84 437.53C676.29 440.34 677.66 442.99 680.15 442.99C682.64 442.99 684 440.34 685.45 437.53C687.03 434.47 688.82 430.99 692.53 430.99C696.24 430.99 698.03 434.47 699.61 437.53C701.06 440.34 702.42 442.99 704.91 442.99C707.4 442.99 708.76 440.34 710.21 437.53C711.79 434.47 713.59 430.99 717.29 430.99C720.99 430.99 722.79 434.47 724.37 437.53C725.82 440.34 727.19 442.99 729.68 442.99C732.17 442.99 733.53 440.34 734.98 437.53C736.56 434.47 738.36 430.99 742.06 430.99C745.76 430.99 747.56 434.47 749.15 437.53C750.6 440.34 751.97 442.99 754.45 442.99C756.93 442.99 758.31 440.34 759.76 437.53C761.34 434.47 763.14 430.99 766.85 430.99V432.99C764.36 432.99 762.99 435.64 761.54 438.45C759.95 441.52 758.14 444.99 754.45 444.99Z" fill="#01C7E2"/>
</g>
<g clip-path="url(#clip3_155_3)">
<path d="M416.45 163C412.75 163 410.95 159.53 409.37 156.46C407.92 153.65 406.55 151 404.06 151C401.57 151 400.21 153.65 398.76 156.46C397.18 159.52 395.38 163 391.68 163C387.98 163 386.18 159.52 384.6 156.46C383.15 153.65 381.78 151 379.29 151C376.8 151 375.44 153.65 373.99 156.46C372.41 159.52 370.61 163 366.91 163C363.21 163 361.41 159.52 359.83 156.46C358.38 153.65 357.02 151 354.53 151C352.04 151 350.68 153.65 349.23 156.46C347.64 159.53 345.85 163 342.15 163C338.45 163 336.65 159.52 335.07 156.46C333.62 153.65 332.25 151 329.76 151C327.27 151 325.91 153.65 324.46 156.46C322.88 159.52 321.09 163 317.38 163C313.67 163 311.88 159.52 310.3 156.46C308.85 153.65 307.48 151 305 151V149C308.7 149 310.5 152.47 312.08 155.54C313.53 158.35 314.89 161 317.38 161C319.87 161 321.24 158.35 322.68 155.54C324.27 152.48 326.06 149 329.76 149C333.46 149 335.26 152.48 336.84 155.54C338.29 158.35 339.66 161 342.15 161C344.64 161 346 158.35 347.45 155.54C349.03 152.48 350.82 149 354.53 149C358.24 149 360.03 152.48 361.61 155.54C363.06 158.35 364.42 161 366.91 161C369.4 161 370.76 158.35 372.21 155.54C373.79 152.48 375.59 149 379.29 149C382.99 149 384.79 152.48 386.37 155.54C387.82 158.35 389.19 161 391.68 161C394.17 161 395.53 158.35 396.98 155.54C398.56 152.48 400.36 149 404.06 149C407.76 149 409.56 152.48 411.15 155.54C412.6 158.35 413.97 161 416.45 161C418.93 161 420.31 158.35 421.76 155.54C423.34 152.48 425.14 149 428.85 149V151C426.36 151 424.99 153.65 423.54 156.46C421.95 159.53 420.14 163 416.45 163Z" fill="white"/>
<path d="M416.45 176.99C412.75 176.99 410.95 173.52 409.37 170.45C407.92 167.64 406.55 164.99 404.06 164.99C401.57 164.99 400.21 167.64 398.76 170.45C397.18 173.52 395.38 176.99 391.68 176.99C387.98 176.99 386.18 173.52 384.6 170.45C383.15 167.64 381.78 164.99 379.29 164.99C376.8 164.99 375.44 167.64 373.99 170.45C372.41 173.52 370.61 176.99 366.91 176.99C363.21 176.99 361.41 173.52 359.83 170.45C358.38 167.64 357.02 164.99 354.53 164.99C352.04 164.99 350.68 167.64 349.23 170.45C347.64 173.52 345.85 176.99 342.15 176.99C338.45 176.99 336.65 173.52 335.07 170.45C333.62 167.64 332.25 164.99 329.76 164.99C327.27 164.99 325.91 167.64 324.46 170.45C322.88 173.52 321.09 176.99 317.38 176.99C313.67 176.99 311.88 173.52 310.3 170.45C308.85 167.64 307.48 164.99 305 164.99V162.99C308.7 162.99 310.5 166.47 312.08 169.53C313.53 172.34 314.89 174.99 317.38 174.99C319.87 174.99 321.24 172.34 322.68 169.53C324.27 166.47 326.06 162.99 329.76 162.99C333.46 162.99 335.26 166.47 336.84 169.53C338.29 172.34 339.66 174.99 342.15 174.99C344.64 174.99 346 172.34 347.45 169.53C349.03 166.47 350.82 162.99 354.53 162.99C358.24 162.99 360.03 166.47 361.61 169.53C363.06 172.34 364.42 174.99 366.91 174.99C369.4 174.99 370.76 172.34 372.21 169.53C373.79 166.47 375.59 162.99 379.29 162.99C382.99 162.99 384.79 166.47 386.37 169.53C387.82 172.34 389.19 174.99 391.68 174.99C394.17 174.99 395.53 172.34 396.98 169.53C398.56 166.47 400.36 162.99 404.06 162.99C407.76 162.99 409.56 166.47 411.15 169.53C412.6 172.34 413.97 174.99 416.45 174.99C418.93 174.99 420.31 172.34 421.76 169.53C423.34 166.47 425.14 162.99 428.85 162.99V164.99C426.36 164.99 424.99 167.64 423.54 170.45C421.95 173.52 420.14 176.99 416.45 176.99Z" fill="white"/>
</g>
<g clip-path="url(#clip4_155_3)">
<path d="M89 466.95L105 482.95L120.95 466.95L105 450.95L89 466.95ZM105 473.06L98.89 466.95L105 460.85L111.1 466.95L105 473.06Z" fill="#FF6678"/>
</g>
<g clip-path="url(#clip5_155_3)">
<path d="M372 387.95L388 403.95L403.95 387.95L388 371.95L372 387.95ZM388 394.06L381.89 387.95L388 381.85L394.1 387.95L388 394.06Z" fill="#FF6678"/>
</g>
<g clip-path="url(#clip6_155_3)">
<path d="M1335 321.95L1351 337.95L1366.95 321.95L1351 305.95L1335 321.95ZM1351 328.06L1344.89 321.95L1351 315.85L1357.1 321.95L1351 328.06Z" fill="#FF6678"/>
</g>
<defs>
<filter id="filter0_d_155_3" x="0.984375" y="0.38501" width="1480.02" height="519.615" filterUnits="userSpaceOnUse" color-interpolation-filters="sRGB">
<feFlood flood-opacity="0" result="BackgroundImageFix"/>
<feColorMatrix in="SourceAlpha" type="matrix" values="0 0 0 0 0 0 0 0 0 0 0 0 0 0 0 0 0 0 127 0" result="hardAlpha"/>
<feOffset dy="8"/>
<feGaussianBlur stdDeviation="10"/>
<feComposite in2="hardAlpha" operator="out"/>
<feColorMatrix type="matrix" values="0 0 0 0 0.215135 0 0 0 0 0.233444 0 0 0 0 0.2375 0 0 0 0.4 0"/>
<feBlend mode="normal" in2="BackgroundImageFix" result="effect1_dropShadow_155_3"/>
<feBlend mode="normal" in="SourceGraphic" in2="effect1_dropShadow_155_3" result="shape"/>
</filter>
<clipPath id="clip0_155_3">
<rect width="310" height="272" fill="white" transform="translate(980 183)"/>
</clipPath>
<clipPath id="clip1_155_3">
<rect width="143.26" height="143.26" fill="white" transform="translate(903 168)"/>
</clipPath>
<clipPath id="clip2_155_3">
<rect width="123.85" height="27.99" fill="white" transform="translate(643 417)"/>
</clipPath>
<clipPath id="clip3_155_3">
<rect width="123.85" height="27.99" fill="white" transform="translate(305 149)"/>
</clipPath>
<clipPath id="clip4_155_3">
<rect width="31.9" height="31.9" fill="white" transform="translate(89 451)"/>
</clipPath>
<clipPath id="clip5_155_3">
<rect width="31.9" height="31.9" fill="white" transform="translate(372 372)"/>
</clipPath>
<clipPath id="clip6_155_3">
<rect width="31.9" height="31.9" fill="white" transform="translate(1335 306)"/>
</clipPath>
</defs>
</svg>
