<svg width="163" height="188" viewBox="0 0 163 188" fill="none" xmlns="http://www.w3.org/2000/svg">
<path d="M145.366 16.5068C145.366 16.5068 153.376 18.6702 162.603 28.557L151.524 53.328C148.378 49.6053 144.45 47.0286 140.179 45.8859L145.366 16.5068Z" fill="#FD425F"/>
<path d="M147.36 32.2131C148.33 27.7781 149.124 23.2783 150.059 18.8433C148.545 17.9204 146.976 17.1394 145.366 16.5068L140.179 45.8859C143.073 42.7922 143.849 43.9604 144.361 43.7225C145.225 39.8283 146.601 36.0207 147.36 32.2131Z" fill="#E42244"/>
<path d="M102.053 2.98553C102.053 2.98553 133.352 -0.843693 150.747 10.1897L144.361 43.6359C144.361 43.6359 129.011 33.5328 103.535 37.8596L102.053 2.98553Z" fill="#FD425F"/>
<path d="M104.523 0H102.018V131.535H104.523V0Z" fill="#110239"/>
<path d="M106.446 127.576H100.112V133.742H106.446V127.576Z" fill="#110239"/>
<path d="M108.916 132.4H97.6426V135.494H108.916V132.4Z" fill="#110239"/>
<path d="M57.2227 58.1956V80.1325H61.6863V64.6858C61.6863 63.9342 61.9298 63.2133 62.3632 62.6818C62.7967 62.1503 63.3845 61.8517 63.9975 61.8517H83.1752C83.4779 61.8517 83.7776 61.9252 84.057 62.0679C84.3365 62.2106 84.5901 62.4197 84.8033 62.6831C85.0165 62.9466 85.1851 63.2592 85.2993 63.6029C85.4135 63.9466 85.4711 64.3147 85.4688 64.6858V80.1325H89.9324V58.1956C89.9324 57.8263 89.8731 57.4605 89.7578 57.1193C89.6426 56.7781 89.4736 56.468 89.2607 56.2069C89.0477 55.9457 88.7948 55.7386 88.5166 55.5972C88.2383 55.4559 87.94 55.3832 87.6388 55.3832H59.5339C58.9239 55.3831 58.3387 55.6787 57.9058 56.2056C57.4729 56.7324 57.2273 57.4477 57.2227 58.1956Z" fill="#D0D1DE"/>
<path d="M138.891 72.6904H8.28165C3.95538 72.6904 0.448242 76.991 0.448242 82.2959V178.394C0.448242 183.699 3.95538 188 8.28165 188H138.891C143.218 188 146.725 183.699 146.725 178.394V82.2959C146.725 76.991 143.218 72.6904 138.891 72.6904Z" fill="#110239"/>
<path d="M146.725 104.817V82.3176C146.727 81.0543 146.526 79.803 146.133 78.6351C145.741 77.4672 145.164 76.4057 144.436 75.5114C143.709 74.6172 142.845 73.9077 141.893 73.4237C140.941 72.9396 139.921 72.6904 138.891 72.6904H8.33441C7.30422 72.6904 6.28412 72.9396 5.33258 73.4237C4.38103 73.9077 3.51673 74.6172 2.7891 75.5114C2.06147 76.4057 1.4848 77.4672 1.09218 78.6351C0.69955 79.803 0.498676 81.0543 0.500996 82.3176V104.817C0.500996 108.067 1.02306 111.285 2.03737 114.288C3.05168 117.291 4.53839 120.019 6.41259 122.317C8.28679 124.616 10.5118 126.439 12.9605 127.682C15.4093 128.926 18.0339 129.566 20.6844 129.566H126.541C129.192 129.566 131.816 128.926 134.265 127.682C136.714 126.439 138.939 124.616 140.813 122.317C142.687 120.019 144.174 117.291 145.188 114.288C146.203 111.285 146.725 108.067 146.725 104.817Z" fill="#453964"/>
<path d="M78.2353 124.374H68.9375V137.333H78.2353V124.374Z" fill="#D0D1DE"/>
<path d="M75.0774 130.583H72.0781V133.785H75.0774V130.583Z" fill="#110239"/>
<path d="M35.4514 15.5982H30.5467C30.5467 15.5982 29.841 23.7759 28.5707 24.7494C28.5707 24.7494 27.0004 34.4198 32.999 34.4198C40.2678 34.4198 37.4273 24.7494 37.4273 24.7494C36.1394 23.7759 35.4514 15.5982 35.4514 15.5982Z" fill="#F88667"/>
<path d="M35.4514 15.5982H30.5467C30.5467 15.5982 29.841 23.7759 28.5707 24.7494C28.5707 24.7494 27.0004 34.4198 32.999 34.4198C40.2678 34.4198 37.4273 24.7494 37.4273 24.7494C36.1394 23.7759 35.4514 15.5982 35.4514 15.5982Z" fill="#E45940"/>
<path d="M39.3506 17.199C38.6626 16.2472 37.851 17.6967 37.851 17.6967C37.851 17.6967 38.9801 12.2881 37.851 9.93C36.7218 7.57189 33.1051 8.80506 33.1051 8.80506C33.1051 8.80506 29.4707 7.55026 28.3592 9.93C27.2477 12.3098 28.3592 17.6967 28.3592 17.6967C28.3592 17.6967 27.5476 16.2472 26.8595 17.199C26.1715 18.1509 27.9887 20.574 28.3945 20.8552C28.3945 20.8552 31.0056 26.8479 33.1051 26.8479C35.2046 26.8479 37.8157 20.8552 37.8157 20.8552C38.2215 20.574 40.0211 18.1509 39.3506 17.199Z" fill="#F88667"/>
<path d="M32.1878 10.9468C32.1878 10.9468 29.4355 11.5309 29.1356 13.3482C29.05 14.2527 29.0978 15.1687 29.2767 16.0524C29.4213 17.0311 29.5039 18.022 29.5237 19.0163C29.4687 19.0489 29.4084 19.0658 29.3473 19.0658C29.2862 19.0658 29.2259 19.0489 29.1709 19.0163C28.8083 18.6102 28.4936 18.1442 28.2358 17.6317C27.7065 16.7015 26.9655 16.8529 26.7538 17.4587C26.7538 17.4587 26.1363 8.56706 29.1709 8.26418C32.2054 7.9613 32.1878 10.9468 32.1878 10.9468Z" fill="#110239"/>
<path d="M33.9873 10.9468C33.9873 10.9468 36.7219 11.5309 37.0395 13.3482C37.1279 14.2537 37.074 15.1717 36.8807 16.0524C36.7319 17.0299 36.6551 18.0219 36.6513 19.0163C36.7067 19.0474 36.7669 19.0635 36.8278 19.0635C36.8887 19.0635 36.9489 19.0474 37.0042 19.0163C37.3668 18.6102 37.6815 18.1442 37.9393 17.6317C38.4509 16.7015 39.2096 16.8529 39.4213 17.4587C39.4213 17.4587 40.0388 8.56706 37.0042 8.26418C33.9696 7.9613 33.9873 10.9468 33.9873 10.9468Z" fill="#110239"/>
<path d="M38.5216 9.45408C38.3978 8.80515 38.1535 8.20002 37.8077 7.68591C37.4619 7.17181 37.0239 6.76259 36.5279 6.49019C34.6768 5.57245 32.6306 5.42798 30.7058 6.07914C30.0388 6.18823 29.4074 6.51294 28.8765 7.01995C28.3456 7.52697 27.9343 8.19804 27.6846 8.96433C27.435 9.73062 27.3562 10.5645 27.4561 11.3805C27.5561 12.1965 27.8313 12.9653 28.2535 13.6078C28.7172 14.1672 29.2696 14.6037 29.8766 14.8902C30.4836 15.1768 31.1322 15.3073 31.782 15.2736C37.1102 15.2736 39.3331 11.4228 38.5216 9.45408Z" fill="#110239"/>
<path d="M37.4101 24.7494C37.1455 32.9703 32.9818 32.1266 32.9818 32.1266C32.9818 32.1266 28.8004 32.9703 28.5534 24.7494C25.1001 25.904 21.7715 27.5599 18.6382 29.6819C19.5212 34.6606 20.0116 39.7319 20.1025 44.8258L23.9134 62.9119L32.9818 63.4527L42.0326 62.9119L45.8434 44.8258C45.935 39.7308 46.4313 34.6589 47.3254 29.6819C44.1921 27.5599 40.8634 25.904 37.4101 24.7494Z" fill="#00BAD1"/>
<g style="mix-blend-mode:multiply" opacity="0.32">
<path d="M45.1904 34.4198C41.0444 37.1241 39.0331 43.3547 35.0106 46.4051C30.988 49.4555 27.9534 43.1816 25.8892 39.9148C24.1981 37.0372 21.8896 34.7907 19.2202 33.4246C19.7523 37.2062 20.0472 41.0322 20.1024 44.8691L23.9132 62.9551L32.9816 63.496L42.0324 62.9551L45.8433 44.8691C45.9141 41.0916 46.203 37.3251 46.7077 33.5977C46.1961 33.8357 45.6668 34.1818 45.1904 34.4198Z" fill="#00547A"/>
</g>
<path d="M49.7776 70.2458C49.7776 63.8853 43.3556 59.71 43.3556 59.71H21.7785C21.7785 59.71 15.3564 63.8853 15.3564 70.2458C15.4242 71.8905 15.6012 73.5256 15.8858 75.1351H23.1017C22.8017 75.7841 22.5371 76.3899 22.3254 76.8874C22.2676 77.0432 22.2029 77.1949 22.1313 77.3417H27.4242C27.8123 77.3417 27.6888 77.5365 27.5653 76.8225C27.4418 76.1086 26.8949 75.2432 27.4065 74.1832C28.2603 73.2497 29.3511 72.707 30.494 72.6471H34.3754C34.8062 72.6666 35.2331 72.7538 35.6457 72.9067C35.9985 72.9067 37.0924 72.9067 37.5511 73.6207C37.7898 74.0799 37.9182 74.6122 37.9216 75.1567C37.9074 75.8833 37.8425 76.6071 37.7276 77.3201H44.2554C43.7614 76.5197 43.3556 75.8057 43.0027 75.1567H49.3894C49.6207 73.5342 49.7504 71.8925 49.7776 70.2458Z" fill="#FD425F"/>
<path d="M49.7776 70.2458C49.7776 63.8853 43.3556 59.71 43.3556 59.71H21.7785C21.7785 59.71 15.3564 63.8853 15.3564 70.2458C15.4242 71.8905 15.6012 73.5256 15.8858 75.1351H23.1017C22.8017 75.7841 22.5371 76.3899 22.3254 76.8874C22.2676 77.0432 22.2029 77.1949 22.1313 77.3417H27.4242C27.8123 77.3417 27.6888 77.5365 27.5653 76.8225C27.4418 76.1086 26.8949 75.2432 27.4065 74.1832C28.2603 73.2497 29.3511 72.707 30.494 72.6471H34.3754C34.8062 72.6666 35.2331 72.7538 35.6457 72.9067C35.9985 72.9067 37.0924 72.9067 37.5511 73.6207C37.7898 74.0799 37.9182 74.6122 37.9216 75.1567C37.9074 75.8833 37.8425 76.6071 37.7276 77.3201H44.2554C43.7614 76.5197 43.3556 75.8057 43.0027 75.1567H49.3894C49.6207 73.5342 49.7504 71.8925 49.7776 70.2458Z" fill="#BD1337"/>
<path d="M18.6378 29.6819C18.6378 29.6819 10.3987 51.5107 10.9985 54.4313C11.1397 55.1452 21.1784 62.5657 25.889 61.5056L27.8121 61.0729C27.8121 61.0729 20.8079 29.5305 18.6378 29.6819Z" fill="#00BAD1"/>
<path d="M47.3076 29.6819C47.3076 29.6819 55.5468 51.5107 54.9469 54.4313C54.8058 55.1452 44.767 62.5657 40.0564 61.5056L38.1333 61.0729C38.1333 61.0729 45.1375 29.5305 47.3076 29.6819Z" fill="#00BAD1"/>
<g style="mix-blend-mode:multiply" opacity="0.32">
<path d="M21.8492 37.3188C21.834 38.3895 21.7275 39.4554 21.5316 40.499C20.8082 44.458 19.6615 48.5685 20.8612 52.5924C21.9104 55.7058 23.155 58.7148 24.5838 61.5922C25.0173 61.6582 25.4558 61.6582 25.8893 61.5922L27.8125 61.1595C27.8125 61.1595 24.6015 46.6214 21.8492 37.3188Z" fill="#00547A"/>
</g>
<g style="mix-blend-mode:multiply" opacity="0.32">
<path d="M42.8084 61.3975C43.4363 59.5559 43.7427 57.5735 43.7082 55.5779C43.6023 51.554 43.5847 47.5084 43.7082 43.4845C43.7082 41.7321 43.7082 40.0446 43.8493 38.4005C41.1853 47.6815 38.2036 61.0729 38.2036 61.0729L40.1267 61.5057C41.0193 61.6511 41.9255 61.6145 42.8084 61.3975Z" fill="#00547A"/>
</g>
<path d="M24.76 108.019C22.6807 110.976 20.7313 114.067 18.9202 117.278C18.3027 118.901 19.8024 120.934 21.8313 120.112C23.8602 119.29 25.0599 117.581 25.0952 116.499C25.1305 115.418 26.2067 114.834 26.6831 114.747C27.1594 114.661 29.8764 110.875 29.6118 109.836C29.2142 108.964 28.6515 108.222 27.971 107.673L24.76 108.019Z" fill="black"/>
<path d="M40.3914 108.019C42.4642 110.977 44.4077 114.068 46.2135 117.278C46.831 118.901 45.3314 120.934 43.3025 120.112C41.2736 119.29 40.0739 117.581 40.0386 116.499C40.0033 115.418 38.9271 114.834 38.4507 114.747C37.9744 114.661 35.2574 110.875 35.522 109.836C35.9196 108.964 36.4823 108.222 37.1628 107.673L40.3914 108.019Z" fill="black"/>
<path d="M26.63 69.8997C26.0125 68.0824 25.8891 64.2532 21.6901 64.2532C13.6273 64.2532 15.515 72.1713 15.6385 73.3611C16.8559 85.1733 22.6957 108.754 22.6957 108.754H30.7937C30.7937 108.754 27.8474 79.873 27.3887 75.4164C27.2817 73.5517 27.0277 71.7042 26.63 69.8997Z" fill="#FD425F"/>
<path d="M38.5742 69.8997C39.1917 68.0824 39.3153 64.2532 43.5143 64.2532C51.5947 64.2532 49.6892 72.1713 49.5657 73.3611C48.3484 85.1733 42.5086 108.754 42.5086 108.754H34.4282C34.4282 108.754 37.3569 79.873 37.8156 75.4164C37.94 73.5543 38.1938 71.7087 38.5742 69.8997Z" fill="#FD425F"/>
<path d="M44.8551 61.3325H21.1079V63.0633H44.8551V61.3325Z" fill="#110239"/>
<path d="M48.3486 41.148H17.6149C17.3986 41.1462 17.185 41.2053 16.9903 41.3208C16.7957 41.4364 16.6253 41.6051 16.4924 41.8142C16.3594 42.0232 16.2674 42.267 16.2234 42.5266C16.1794 42.7861 16.1846 43.0547 16.2387 43.3114C16.5209 45.5829 20.4024 61.4623 21.1787 61.4623H44.7848C45.4728 61.4623 49.4424 45.5829 49.7247 43.3114C49.7788 43.0547 49.7841 42.7861 49.7401 42.5266C49.6961 42.267 49.604 42.0232 49.471 41.8142C49.338 41.6051 49.1677 41.4364 48.9731 41.3208C48.7785 41.2053 48.5648 41.1462 48.3486 41.148Z" fill="#110239"/>
<path d="M34.252 52.1164C34.252 52.4245 34.1775 52.7257 34.0379 52.9818C33.8984 53.238 33.6999 53.4376 33.4678 53.5555C33.2357 53.6734 32.9803 53.7043 32.7339 53.6442C32.4875 53.5841 32.2611 53.4357 32.0835 53.2179C31.9058 53 31.7848 52.7225 31.7358 52.4203C31.6868 52.1182 31.712 51.805 31.8081 51.5203C31.9043 51.2357 32.0671 50.9925 32.276 50.8213C32.4849 50.6502 32.7305 50.5588 32.9817 50.5588C33.3172 50.5644 33.6377 50.7303 33.8749 51.0212C34.1121 51.3121 34.2474 51.7051 34.252 52.1164Z" fill="#D0D1DE"/>
<path d="M64.6681 159.27L66.0972 164.657H70.7196L66.9793 167.988L68.4084 173.354L64.6681 170.044L60.9455 173.354L62.3569 167.988L58.6343 164.657H63.239L64.6681 159.27Z" fill="#D0D1DE"/>
<path d="M81.1466 159.27L82.5757 164.657H87.1981L83.4578 167.988L84.8869 173.354L81.1466 170.044L77.424 173.354L78.8531 167.988L75.1128 164.657H79.7352L81.1466 159.27Z" fill="#D0D1DE"/>
<path d="M97.6423 159.27L99.0714 164.657H103.676L99.9359 167.988L101.365 173.354L97.6423 170.044L93.902 173.354L95.3311 167.988L91.5908 164.657H96.2132L97.6423 159.27Z" fill="#D0D1DE"/>
<path d="M114.121 159.27L115.55 164.657H120.155L116.432 167.988L117.861 173.354L114.121 170.044L110.38 173.354L111.81 167.988L108.087 164.657H112.692L114.121 159.27Z" fill="#D0D1DE"/>
<path d="M130.599 159.27L132.028 164.657H136.633L132.91 167.988L134.34 173.354L130.599 170.044L126.877 173.354L128.288 167.988L124.565 164.657H129.17L130.599 159.27Z" fill="#D0D1DE"/>
</svg>
