<svg width="259" height="188" viewBox="0 0 259 188" fill="none" xmlns="http://www.w3.org/2000/svg">
<g clip-path="url(#clip0_138_153)">
<path d="M210.625 159.636C205.147 153.444 188.929 145.013 193.168 135.344C196.812 127.127 214.197 128.199 212.102 118.244C210.863 112.362 209.267 107.361 213.054 100.716C217.174 93.4523 229.487 97.4056 233.75 90.6658C237.441 84.8548 232.654 75.924 240.252 72.042C246.968 68.6126 255.089 75.3286 256.303 81.2587C257.827 88.7129 250.468 92.19 249.516 98.6678C248.92 102.788 252.683 104.217 254.827 107.099C257.088 110.05 258.489 113.57 258.875 117.268C259.28 127.556 248.015 128.866 242.681 135.415C237.727 141.464 246.848 145.37 245.467 151.943C243.991 159.088 233.893 162.922 226.772 162.827C221.723 162.755 213.912 163.47 210.625 159.636Z" fill="#01C7E2"/>
<path d="M217.77 163.018H217.651C217.598 162.996 217.55 162.962 217.512 162.92C217.474 162.877 217.446 162.827 217.43 162.772C217.414 162.717 217.41 162.659 217.42 162.603C217.429 162.546 217.451 162.493 217.484 162.446C223.878 152.102 227.572 140.318 228.225 128.175C228.606 115.505 233.869 107.384 238.18 100.74C240.799 96.715 243.062 93.2141 243.419 89.6894C243.437 89.5482 243.509 89.4195 243.62 89.3306C243.731 89.2417 243.873 89.1995 244.014 89.213C244.082 89.2086 244.15 89.2195 244.213 89.245C244.277 89.2705 244.333 89.3099 244.379 89.3602C244.425 89.4106 244.459 89.4706 244.478 89.5358C244.497 89.6011 244.502 89.6698 244.491 89.737C244.11 93.4998 241.776 97.096 239.085 101.24C234.822 107.765 229.558 115.744 229.225 128.151C228.559 140.45 224.808 152.383 218.317 162.851C218.252 162.929 218.166 162.986 218.068 163.016C217.971 163.045 217.867 163.046 217.77 163.018Z" fill="white"/>
<path d="M228.987 128.199C228.873 128.176 228.772 128.113 228.702 128.021C228.632 127.929 228.598 127.814 228.606 127.699C228.634 127.571 228.707 127.457 228.812 127.379C228.917 127.3 229.046 127.262 229.177 127.27C233.416 127.532 239.108 125.032 240.847 120.888L241.585 119.387C242.633 116.577 243.967 113.076 246.682 111.838C248.147 111.24 249.789 111.24 251.254 111.838C251.314 111.859 251.369 111.892 251.415 111.935C251.462 111.978 251.498 112.031 251.523 112.089C251.548 112.147 251.56 112.21 251.559 112.274C251.557 112.337 251.543 112.4 251.516 112.457C251.463 112.581 251.365 112.681 251.24 112.734C251.116 112.787 250.976 112.79 250.849 112.743C250.255 112.487 249.615 112.355 248.968 112.355C248.321 112.355 247.681 112.487 247.086 112.743C244.705 113.814 243.538 117.077 242.562 119.697C242.347 120.269 242.133 120.84 241.919 121.34C239.966 126.103 233.797 128.652 229.177 128.366L228.987 128.199Z" fill="white"/>
<path d="M225.962 127.723C224.211 127.41 222.626 126.491 221.485 125.127C220.654 123.815 220.157 122.319 220.037 120.771C219.916 119.223 220.176 117.669 220.794 116.244C220.794 115.863 221.032 115.434 221.199 114.958C222.08 112.243 223.438 108.123 222.104 105.836C221.87 105.446 221.556 105.111 221.182 104.852C220.809 104.593 220.384 104.417 219.937 104.336C219.81 104.297 219.702 104.212 219.636 104.097C219.57 103.982 219.549 103.846 219.579 103.717C219.623 103.583 219.717 103.471 219.841 103.405C219.965 103.338 220.11 103.322 220.246 103.359C220.821 103.482 221.365 103.72 221.844 104.06C222.323 104.4 222.727 104.834 223.033 105.336C224.581 108.004 223.033 112.362 222.199 115.22C222.032 115.672 221.913 116.101 221.794 116.482C221.236 117.774 220.994 119.181 221.09 120.585C221.185 121.989 221.614 123.351 222.342 124.555C223.124 125.409 224.084 126.079 225.154 126.52C226.224 126.96 227.378 127.159 228.534 127.104C228.598 127.103 228.661 127.116 228.719 127.142C228.777 127.168 228.829 127.205 228.872 127.253C228.915 127.3 228.947 127.355 228.967 127.416C228.987 127.476 228.993 127.54 228.987 127.604C228.969 127.732 228.902 127.849 228.799 127.929C228.697 128.009 228.568 128.046 228.439 128.032C227.606 127.997 226.778 127.893 225.962 127.723Z" fill="white"/>
<path d="M223.533 157.04C222.956 156.932 222.401 156.731 221.889 156.444C221.845 156.409 221.809 156.363 221.784 156.312C221.759 156.26 221.746 156.204 221.746 156.147C221.746 156.089 221.759 156.033 221.784 155.981C221.809 155.93 221.845 155.885 221.889 155.849C221.975 155.755 222.089 155.693 222.214 155.671C222.339 155.65 222.468 155.67 222.58 155.73C225.128 157.278 230.296 155.277 232.511 153.729C233.524 152.869 234.406 151.866 235.131 150.752C236.703 148.609 238.346 146.37 240.918 146.299C240.978 146.292 241.039 146.298 241.097 146.317C241.154 146.335 241.207 146.366 241.252 146.406C241.297 146.447 241.333 146.496 241.358 146.552C241.382 146.607 241.395 146.667 241.394 146.728C241.377 146.85 241.318 146.962 241.227 147.045C241.135 147.128 241.017 147.176 240.894 147.18C238.846 147.18 237.369 149.252 235.964 151.181C235.181 152.385 234.217 153.462 233.106 154.372C230.309 156.32 226.934 157.26 223.533 157.04Z" fill="white"/>
<path d="M219.365 156.111C218.752 155.987 218.159 155.779 217.603 155.492C216.144 154.491 214.896 153.212 213.932 151.729C212.967 150.246 212.305 148.586 211.983 146.847C211.859 145.127 212.053 143.4 212.554 141.75C213.245 138.678 213.983 135.463 211.983 134.01C211.937 133.97 211.9 133.92 211.875 133.865C211.85 133.81 211.837 133.749 211.837 133.689C211.837 133.628 211.85 133.568 211.875 133.512C211.9 133.457 211.937 133.407 211.983 133.367C212.086 133.28 212.217 133.232 212.352 133.232C212.487 133.232 212.618 133.28 212.721 133.367C215.102 135.177 214.34 138.797 213.626 141.988C213.137 143.526 212.935 145.141 213.03 146.751C213.632 150.015 215.487 152.913 218.198 154.825C219.292 155.415 220.569 155.568 221.771 155.254C221.888 155.215 222.015 155.223 222.126 155.277C222.237 155.33 222.323 155.424 222.366 155.539C222.38 155.596 222.382 155.654 222.373 155.712C222.364 155.769 222.343 155.824 222.312 155.873C222.281 155.922 222.24 155.964 222.192 155.997C222.144 156.03 222.09 156.052 222.033 156.063C221.158 156.278 220.247 156.295 219.365 156.111Z" fill="white"/>
<path d="M47.0832 159.397C38.8669 164.946 32.2461 169.067 23.4106 160.755C21.2655 158.871 19.6558 156.454 18.7442 153.748C17.8326 151.043 17.6514 148.144 18.2188 145.346C18.9333 140.107 19.6477 137.702 16.4326 133.439C11.3837 126.603 3.54839 123.912 0.666706 115.267C-2.52458 105.741 6.88259 99.4061 4.33432 90.3562C2.07184 82.378 -2.81035 74.9714 2.95302 67.2313C7.85902 60.682 16.9089 63.5875 19.7906 70.494C21.4339 74.4236 21.3148 78.9009 23.5297 82.5923C25.7445 86.2837 29.031 86.9506 32.651 88.1175C40.7483 90.7611 47.8215 95.5004 46.9403 105.789C46.3688 111.957 46.2259 116.958 52.2512 119.649C58.7052 122.531 62.3014 124.412 61.7774 133.486C61.4202 140.297 58.1098 143.894 54.4899 148.895C51.1081 153.539 47.75 160.803 42.2248 162.827L47.0832 159.397Z" fill="#C2C3D4"/>
<path d="M48.1072 156.111C46.7323 156.013 45.3973 155.606 44.2014 154.92C39.2954 152.11 37.9618 144.941 36.7472 138.487C36.3512 135.649 35.6485 132.862 34.6514 130.176C32.1402 124.694 28.2101 119.983 23.2676 116.529C16.5754 111.409 15.2179 107.551 14.7893 99.1203C14.4082 91.9757 13.6699 84.831 10.8121 80.5681C10.7028 80.39 10.6665 80.1765 10.7109 79.9724C10.7552 79.7682 10.8768 79.5891 11.0502 79.4725C11.1171 79.4004 11.1981 79.3428 11.2883 79.3034C11.3785 79.2641 11.4758 79.2438 11.5741 79.2438C11.6725 79.2438 11.7698 79.2641 11.86 79.3034C11.9502 79.3428 12.0312 79.4004 12.0981 79.4725C15.1465 83.9975 15.9086 91.4994 16.2896 98.7869C16.6945 106.932 17.9091 110.433 24.2916 115.315C29.4276 118.91 33.5329 123.787 36.1994 129.461C37.242 132.255 37.9767 135.154 38.3904 138.106C39.5336 144.322 40.772 151.229 45.2017 153.753C47.1693 154.787 49.4416 155.082 51.6081 154.587C51.7944 154.535 51.9936 154.558 52.1628 154.652C52.332 154.745 52.4578 154.902 52.5131 155.087C52.5266 155.18 52.5202 155.275 52.4943 155.366C52.4684 155.456 52.4235 155.54 52.3628 155.612C52.302 155.684 52.2267 155.743 52.1418 155.784C52.0568 155.824 51.9642 155.847 51.8701 155.849C50.6336 156.108 49.3676 156.196 48.1072 156.111Z" fill="white"/>
<path d="M29.6268 121.769C29.4641 121.753 29.3083 121.696 29.1742 121.602C29.1038 121.542 29.0473 121.467 29.0085 121.383C28.9698 121.298 28.9497 121.207 28.9497 121.114C28.9497 121.021 28.9698 120.93 29.0085 120.845C29.0473 120.761 29.1038 120.686 29.1742 120.626C31.7701 117.982 30.9604 113.672 30.1031 109.028C29.341 104.931 28.555 100.668 30.1031 97.1198C30.191 96.9254 30.3431 96.7672 30.534 96.6718C30.7248 96.5764 30.9427 96.5495 31.1509 96.5958C31.2455 96.6202 31.3333 96.6659 31.4076 96.7292C31.4819 96.7926 31.5408 96.8721 31.5798 96.9616C31.6188 97.0511 31.637 97.1483 31.6328 97.2459C31.6286 97.3435 31.6023 97.4388 31.5558 97.5247C30.1507 100.645 30.889 104.669 31.5558 108.575C32.4608 113.338 33.3658 118.292 30.1745 121.483C30.0257 121.633 29.8344 121.732 29.6268 121.769Z" fill="white"/>
<path d="M35.9381 131.295H35.6523C34.7636 130.902 33.9109 130.432 33.1041 129.89C31.9109 129.005 30.507 128.446 29.0316 128.271C28.1117 128.212 27.1889 128.212 26.269 128.271C24.2613 128.481 22.2345 128.135 20.4104 127.27C16.8764 125.155 13.8386 122.304 11.5034 118.911C11.0985 118.363 10.5984 117.482 10.0506 116.53C9.28852 115.22 7.88339 112.767 7.288 112.6C7.19931 112.581 7.11562 112.544 7.04238 112.49C6.96914 112.437 6.90803 112.369 6.86305 112.29C6.81807 112.211 6.79024 112.124 6.78139 112.034C6.77254 111.943 6.78287 111.852 6.8117 111.766C6.86185 111.592 6.97462 111.442 7.1284 111.345C7.28218 111.249 7.4662 111.212 7.64526 111.242C8.74077 111.433 9.76483 113.1 11.3128 115.791C11.7273 116.557 12.1886 117.297 12.6941 118.006C14.9443 121.248 17.8487 123.982 21.2201 126.032C22.8115 126.796 24.589 127.085 26.3404 126.866C27.3319 126.807 28.3259 126.807 29.3174 126.866C31.0372 127.054 32.6786 127.685 34.0805 128.699C34.8327 129.201 35.63 129.632 36.4621 129.985C36.5477 130.017 36.6252 130.068 36.6889 130.134C36.7526 130.199 36.801 130.278 36.8306 130.365C36.8602 130.451 36.8703 130.543 36.8601 130.634C36.8499 130.725 36.8197 130.812 36.7717 130.89C36.684 131.029 36.5596 131.14 36.4124 131.211C36.2652 131.283 36.1009 131.312 35.9381 131.295Z" fill="white"/>
<path d="M92.1897 23.2916C93.0471 24.6014 93.9044 27.1735 95.3334 28.0547C97.4429 28.9194 99.7362 29.2388 102.002 28.9835C100.811 26.34 100.478 20.3147 103.121 17.9808C101.383 16.9091 101.311 20.3623 100.001 18.9334C99.5249 18.4094 95.8573 12.7413 95.5239 12.0983C94.4998 13.3129 94.9047 17.433 93.9283 20.791C93.8082 21.2886 93.5878 21.7564 93.2807 22.1659C92.9736 22.5754 92.5861 22.9179 92.1421 23.1725L92.1897 23.2916Z" fill="#E45940"/>
<path d="M100.739 3.6676C100.739 3.6676 110.004 4.71551 110.48 7.26378C110.956 9.81204 109.337 12.9318 109.289 14.5751C109.242 16.2184 110.671 18.5761 110.647 19.3382C110.623 20.1003 108.575 20.4099 108.265 20.7672C107.956 21.1244 105.05 25.5303 103.192 25.8637C101.335 26.1971 94.476 20.2194 94.0949 15.7897C94.0949 14.9562 92.8565 13.4082 93.0708 12.2888C93.9282 8.00202 98.5484 3.88194 100.739 3.6676Z" fill="#F88667"/>
<path d="M98.8347 0.619232C95.0004 2.72989e-05 97.3581 2.11963 93.0951 3.83435C92.5502 4.07604 92.067 4.4378 91.6816 4.89263C91.2963 5.34746 91.0188 5.88354 90.8699 6.46076C90.721 7.03798 90.7046 7.64138 90.8219 8.22585C90.9391 8.81031 91.1871 9.36072 91.5471 9.83584C91.9282 10.4312 91.7615 11.0266 91.1899 12.0507C90.8565 14.1464 94.5003 18.8381 95.6196 17.4092C95.8816 17.0758 94.8575 14.8848 94.9289 13.956C94.7146 12.4079 96.0721 10.8361 97.3105 12.2174C97.5615 12.4255 97.7672 12.683 97.9147 12.9738C98.0621 13.2647 98.1483 13.5827 98.1678 13.9083C98.1678 15.7421 98.6918 16.2898 99.5015 15.623C100.668 14.718 99.311 11.0504 100.24 10.2883C101.458 9.24919 102.371 7.89941 102.883 6.38256C104.669 4.54876 102.693 1.21462 98.8347 0.619232Z" fill="#110239"/>
<path d="M213.911 67.9458H43.0347V177.188H213.911V67.9458Z" fill="#E5E6ED"/>
<path d="M60.9682 88.2843H52.8232V156.825H60.9682V88.2843Z" fill="#110239"/>
<path d="M68.0171 88.2843H64.0161V156.825H68.0171V88.2843Z" fill="#110239"/>
<path d="M83.9495 88.2843H75.6855V156.825H83.9495V88.2843Z" fill="#110239"/>
<path d="M91.6185 88.2843H88.5225V156.825H91.6185V88.2843Z" fill="#110239"/>
<path d="M104.55 88.2843H101.883V156.825H104.55V88.2843Z" fill="#110239"/>
<path d="M73.2093 88.2843H70.542V156.825H73.2093V88.2843Z" fill="#110239"/>
<path d="M99.0727 88.2843H95.0479V156.825H99.0727V88.2843Z" fill="#110239"/>
<path d="M115.911 88.2843H109.552V156.825H115.911V88.2843Z" fill="#110239"/>
<path d="M122.84 88.2843H118.839V156.825H122.84V88.2843Z" fill="#110239"/>
<path d="M128.461 88.2843H126.461V156.825H128.461V88.2843Z" fill="#110239"/>
<path d="M143.75 88.2843H142.369V156.825H143.75V88.2843Z" fill="#110239"/>
<path d="M135.439 88.2843H132.058V156.825H135.439V88.2843Z" fill="#110239"/>
<path d="M153.372 88.2843H151.681V156.825H153.372V88.2843Z" fill="#110239"/>
<path d="M173.758 88.2843H171.424V156.825H173.758V88.2843Z" fill="#110239"/>
<path d="M196.431 88.2843H194.097V156.825H196.431V88.2843Z" fill="#110239"/>
<path d="M156.23 88.2843H154.92V156.825H156.23V88.2843Z" fill="#110239"/>
<path d="M169.353 88.2843H168.329V156.825H169.353V88.2843Z" fill="#110239"/>
<path d="M191.906 88.2843H190.381V156.825H191.906V88.2843Z" fill="#110239"/>
<path d="M140.203 88.2843H136.821V156.825H140.203V88.2843Z" fill="#110239"/>
<path d="M149.99 88.2843H146.323V156.825H149.99V88.2843Z" fill="#110239"/>
<path d="M167.519 88.2843H164.661V156.825H167.519V88.2843Z" fill="#110239"/>
<path d="M162.946 88.2843H158.469V156.825H162.946V88.2843Z" fill="#110239"/>
<path d="M181.95 88.2843H175.663V156.825H181.95V88.2843Z" fill="#110239"/>
<path d="M188.619 88.2843H184.88V156.825H188.619V88.2843Z" fill="#110239"/>
<path d="M204.528 88.2843H199.551V156.825H204.528V88.2843Z" fill="#110239"/>
<path d="M110.337 33.7943C110.337 33.7943 111.028 34.3897 111.695 37.2952C114.076 47.1548 116.267 60.6582 117.267 63.4923C118.482 66.9455 127.056 84.7358 127.056 84.7358L120.125 89.6655C120.125 89.6655 109.956 70.1368 108.646 66.8264L100.882 46.7975L110.337 33.7943Z" fill="#01C7E2"/>
<path d="M113.243 66.9932C109.737 59.3947 107.332 51.3355 106.099 43.0585L100.907 46.8452L108.671 66.8503C109.98 70.1606 120.15 89.6894 120.15 89.6894L121.912 88.4748C118.911 80.6394 117.268 74.2569 113.243 66.9932Z" fill="#00A7CC"/>
<path d="M77.5675 44.416C75.186 50.0365 71.2564 65.469 69.8989 67.9696H103.455C105.336 60.9678 107.599 52.3704 108.432 48.4171C109.531 43.5933 110.13 38.6692 110.219 33.7228C110.219 33.7228 105.194 29.3408 101.312 26.721C101.312 26.721 97.0963 30.6983 92.2617 23.0297C92.2617 23.0297 81.1398 26.0543 78.7345 26.9116C77.8533 27.2688 80.2111 38.1525 77.5675 44.416Z" fill="#01C7E2"/>
<path d="M82.1402 35.628C80.4493 38.6526 78.3773 41.9868 76.9484 44.7256C74.5668 50.5128 71.5661 65.5166 70.2324 67.9696H84.7599C84.7599 66.8265 84.1883 64.945 84.1883 63.659C84.0176 60.071 84.5934 56.4865 85.8792 53.1325C87.2129 50.0603 85.522 39.8196 84.9266 39.1052C83.9502 37.962 83.0214 36.795 82.1402 35.628Z" fill="#00A7CC"/>
<path d="M204.528 64.4687C181.665 75.3762 187.095 73.59 183.379 74.5665C179.664 75.5429 157.801 76.948 157.801 76.948L155.42 86.3314C155.42 86.3314 182.046 84.8548 185.689 83.9498C189.333 83.0448 204.599 77.3291 204.599 77.3291L204.528 64.4687Z" fill="#FD425F"/>
<path d="M167.757 77.5197C168.111 78.1516 168.636 78.6703 169.273 79.0159C169.909 79.3615 170.63 79.5198 171.353 79.4725C174.96 79.433 178.562 79.1865 182.141 78.7342C184.217 78.5646 186.269 78.1734 188.262 77.5673C191.862 76.5366 195.381 75.239 198.788 73.6853C200.681 72.9514 202.613 72.3233 204.576 71.8039V77.4005C204.576 77.4005 189.286 83.1877 185.666 84.0213C182.046 84.8548 155.396 86.4028 155.396 86.4028L157.778 77.1148C161.041 77.3529 164.375 77.5197 167.757 77.5197Z" fill="#E01F41"/>
<path d="M207.648 175.02C208.2 176.644 208.528 178.334 208.624 180.046C208.624 182.237 208.482 184.547 207.815 185.094C206.481 186.19 189.524 186.333 188.143 184.785C186.762 183.237 187.691 180.665 191.263 179.807C193.562 179.458 195.837 178.965 198.074 178.331C198.76 178.037 199.32 177.51 199.656 176.843C199.991 176.177 200.081 175.413 199.908 174.687L207.648 175.02Z" fill="#110239"/>
<path d="M244.824 171.782C245.923 173.096 246.836 174.554 247.539 176.116C248.325 178.14 248.992 180.379 248.563 181.117C247.706 182.618 231.892 188.81 230.082 187.833C228.272 186.857 228.177 184.166 231.225 182.07C233.243 180.923 235.191 179.659 237.06 178.283C237.598 177.763 237.936 177.069 238.014 176.325C238.092 175.58 237.906 174.832 237.489 174.211L244.824 171.782Z" fill="#110239"/>
<path d="M207.767 102.978L230.606 105.527C230.606 105.527 210.172 138.178 208.624 143.417C207.076 148.657 209.195 177.164 209.195 177.164H198.86C198.86 177.164 196.645 143.513 197.145 140.964C197.645 138.416 207.767 102.978 207.767 102.978Z" fill="#110239"/>
<path d="M208.625 104.669H234.822C234.822 104.669 237.87 112.671 236.465 118.768C235.177 125.805 234.444 132.932 234.274 140.083C234.393 142.465 247.134 172.83 247.134 172.83L237.608 176.354C237.608 176.354 224.533 147.323 223.319 144.013C222.104 140.702 208.625 104.669 208.625 104.669Z" fill="#110239"/>
<path d="M209.743 50.7272C211.851 50.8477 213.965 50.6875 216.031 50.2508C216.771 50.0753 217.489 49.8198 218.174 49.4887C218.388 52.1084 219.127 58.229 221.294 60.5153C221.294 60.5153 221.008 63.6113 215.578 64.3734C210.148 65.1355 209.053 61.1107 209.053 61.1107C209.614 57.6795 209.846 54.2025 209.743 50.7272Z" fill="#F88667"/>
<path d="M221.27 60.6106C221.28 60.6897 221.28 60.7696 221.27 60.8488C221.229 60.9623 221.181 61.0736 221.128 61.1821L220.889 61.587C220.637 61.9476 220.341 62.2756 220.008 62.5635C219.796 62.7466 219.564 62.9062 219.318 63.0398C219.025 63.2015 218.723 63.3446 218.413 63.4684C218.059 62.0856 217.334 60.8257 216.317 59.8246C214.576 58.0846 212.229 57.086 209.768 57.0383C210.026 54.8653 210.098 52.6742 209.982 50.489C212.09 50.6096 214.204 50.4494 216.269 50.0126C217.009 49.8372 217.728 49.5816 218.413 49.2505C218.627 51.8702 219.365 57.9909 221.532 60.2771L221.27 60.6106Z" fill="#E45940"/>
<path d="M218.532 35.1518C218.532 35.1518 209.458 32.9131 208.124 35.1518C206.791 37.3904 207.219 40.8675 206.695 42.4393C206.171 44.0111 204.028 45.7497 203.814 46.3689C203.599 46.9881 205.386 48.0836 205.648 48.5599C205.909 49.0362 207.053 54.0613 208.648 55.1092C210.244 56.1571 218.46 52.7276 220.342 48.7743C222.223 44.8209 220.985 36.3425 218.532 35.1518Z" fill="#F88667"/>
<path d="M209.053 60.2057C209.053 60.2057 215.411 63.3732 220.579 59.5627C220.579 59.5627 230.439 61.2774 231.63 61.7775C232.821 62.2777 230.01 76.186 231.154 83.2115C232.297 90.2371 236.869 107.313 236.869 107.313C236.869 107.313 224.819 116.577 204.123 110.742C204.123 110.742 203.456 86.8077 203.67 80.1632C204.004 70.4464 204.051 64.683 204.051 64.683C205.635 63.1003 207.305 61.6056 209.053 60.2057Z" fill="#FD425F"/>
<path d="M224.105 98.9298C225.182 95.3184 225.482 91.5199 224.986 87.7842C224.295 83.6403 227.367 78.2579 227.82 73.9711C228.272 69.6843 228.868 66.3978 231.845 63.8972C231.654 68.1601 230.273 77.7816 231.154 83.2354C232.297 90.38 236.87 107.337 236.87 107.337C230.568 111.359 223.128 113.223 215.674 112.648C221.009 109.409 222.533 105.098 224.105 98.9298Z" fill="#E01F41"/>
<path d="M214.625 36.4378C214.593 38.0365 214.988 39.6148 215.768 41.0104C216.364 42.0583 213.816 45.0352 214.625 46.2974C215.149 47.131 215.864 46.869 216.459 45.1543C216.587 44.8527 216.776 44.5808 217.013 44.3554C217.251 44.13 217.532 43.9561 217.84 43.8444C219.984 42.7966 220.651 46.226 218.722 47.1786C217.388 47.9407 218.364 51.394 218.364 51.394C219.889 52.4657 224.699 50.87 224.009 47.3215C223.58 45.0828 223.389 44.2255 224.152 43.6301C224.653 43.3095 225.077 42.8803 225.391 42.3742C225.704 41.8681 225.9 41.298 225.964 40.7059C226.028 40.1139 225.959 39.515 225.76 38.9536C225.562 38.3921 225.24 37.8823 224.818 37.4619C221.389 34.3659 224.318 33.1989 220.508 32.4368C216.697 31.6747 213.696 34.1039 214.625 36.4378Z" fill="#110239"/>
<path d="M221.223 34.2229C220.961 33.4132 219.436 32.4129 218.674 31.8414C217.47 31.073 216.127 30.5472 214.721 30.2934C213.302 29.9722 211.829 29.9722 210.41 30.2934C209.196 30.5792 208.196 31.1746 206.957 31.3651C206.43 31.5068 205.879 31.5398 205.339 31.462C204.798 31.3843 204.279 31.1973 203.813 30.9126C203.647 31.8499 203.647 32.8093 203.813 33.7466C204.186 34.8678 204.777 35.9039 205.552 36.795C206.835 38.2007 208.517 39.1817 210.372 39.6072C212.227 40.0327 214.168 39.8825 215.936 39.1766C217.527 38.6604 218.895 37.6191 219.817 36.2234C220.186 35.4919 220.66 34.8179 221.223 34.2229Z" fill="#110239"/>
<path d="M77.067 119.721C76.2865 119.553 75.5275 119.298 74.8046 118.959L73.8996 118.53C72.5657 118.001 71.363 117.189 70.3749 116.148C69.4496 115.147 68.8302 113.902 68.5896 112.56C68.3491 111.218 68.4975 109.835 69.0174 108.575C69.4806 107.12 70.2493 105.781 71.272 104.648C72.2947 103.514 73.5478 102.612 74.9475 102.002C76.1682 101.462 77.4739 101.14 78.8056 101.049H79.2105C80.9592 100.628 82.5528 99.7194 83.8069 98.4297L84.045 98.2391C84.6166 97.739 85.1405 97.2627 85.6883 96.7388C86.236 96.2148 86.4266 96.0005 86.8314 95.6433C92.1661 90.8801 99.8109 91.7137 105.265 93.2617L104.955 94.3334C99.7633 92.833 92.5234 91.9518 87.5697 96.4291L86.4504 97.477C85.9026 98.001 85.3549 98.5249 84.7595 99.0489L84.5213 99.2394C83.1058 100.665 81.3129 101.656 79.3534 102.097H78.9485C77.7327 102.176 76.5399 102.466 75.4238 102.955C74.1613 103.496 73.0309 104.304 72.1101 105.324C71.1893 106.343 70.4999 107.55 70.0891 108.861C69.6044 109.932 69.452 111.124 69.6515 112.283C69.851 113.442 70.3934 114.515 71.2084 115.363C72.0945 116.255 73.1685 116.938 74.3521 117.363L75.3047 117.816C77.3398 118.645 79.5555 118.933 81.7349 118.649C83.0665 118.543 84.4044 118.543 85.7359 118.649C87.2457 118.814 88.7733 118.666 90.2236 118.216C91.674 117.765 93.0161 117.021 94.1666 116.029L94.381 115.863C97.5591 113.056 101.28 110.932 105.312 109.623L105.979 109.432C109.289 108.48 111.504 107.861 113.41 104.931C114.295 103.692 114.876 102.26 115.104 100.754C115.331 99.2474 115.2 97.7085 114.719 96.2625C114.328 95.4956 113.736 94.8493 113.006 94.3922C112.276 93.9351 111.436 93.6843 110.576 93.6666V92.571C111.625 92.6052 112.646 92.922 113.53 93.4879C114.414 94.0537 115.13 94.8477 115.601 95.7861C116.15 97.4044 116.31 99.1291 116.071 100.821C115.831 102.513 115.196 104.125 114.219 105.527C113.289 106.863 112.095 107.993 110.71 108.85C109.326 109.706 107.78 110.269 106.17 110.504L105.503 110.671C101.601 111.953 98.0026 114.02 94.9287 116.744L94.7382 116.911C93.4726 117.996 91.9964 118.808 90.4021 119.295C88.8079 119.783 87.1301 119.936 85.4739 119.745C84.206 119.638 82.9314 119.638 81.6635 119.745C80.1363 119.928 78.5922 119.92 77.067 119.721Z" fill="white"/>
<path d="M209.553 88.6415L127.842 71.7563C125.442 71.2516 122.944 71.5097 120.697 72.4945L105.979 78.9009C104.246 79.6634 102.72 80.8281 101.527 82.2985C100.334 83.7688 99.5091 85.5024 99.1203 87.3554L98.0724 92.4044C97.7182 94.238 97.8056 96.1296 98.3274 97.9228C98.8492 99.7159 99.7904 101.359 101.073 102.716L112.028 114.458C113.7 116.237 115.878 117.459 118.268 117.958L199.979 134.891C203.047 135.506 206.233 134.888 208.849 133.173C211.465 131.457 213.3 128.781 213.959 125.722L218.722 102.526C219.309 99.4727 218.678 96.311 216.965 93.7166C215.252 91.1222 212.591 89.3007 209.553 88.6415ZM121.078 100.335C119.485 101.087 117.674 101.239 115.978 100.763C114.281 100.286 112.814 99.2129 111.846 97.7406C110.878 96.2684 110.475 94.4962 110.709 92.75C110.944 91.0037 111.801 89.401 113.124 88.2367C113.548 87.8069 114.06 87.4738 114.624 87.2602C116.216 86.5232 118.02 86.3829 119.706 86.8651C121.393 87.3472 122.849 88.4196 123.811 89.8865C124.773 91.3535 125.175 93.1173 124.944 94.8561C124.714 96.595 123.866 98.1929 122.555 99.3585C122.133 99.78 121.631 100.112 121.078 100.335Z" fill="#01C7E2"/>
<path d="M133.581 107.146L139.606 88.2367L144.369 89.2369C145.008 89.3675 145.637 89.5426 146.251 89.7608C146.769 89.9702 147.264 90.2337 147.727 90.5468C148.135 90.8559 148.475 91.2448 148.728 91.6899C148.96 92.1806 149.074 92.7189 149.061 93.2617C149.107 93.6494 149.107 94.041 149.061 94.4287C149.004 94.7358 148.925 95.0383 148.823 95.3337C148.061 97.7152 146.703 98.7155 144.751 98.5964C145.191 98.746 145.597 98.982 145.945 99.2903C146.293 99.5987 146.577 99.9733 146.778 100.392C146.98 100.811 147.096 101.266 147.12 101.731C147.144 102.195 147.075 102.66 146.918 103.098C146.918 103.383 146.775 103.645 146.703 103.955C146.297 105.541 145.312 106.918 143.941 107.813C142.517 108.55 140.869 108.728 139.321 108.313L133.581 107.146ZM138.344 105.289L139.44 105.503C139.832 105.634 140.248 105.679 140.659 105.634C141.07 105.588 141.467 105.454 141.821 105.241C142.474 104.698 142.927 103.952 143.107 103.121C143.201 102.874 143.272 102.619 143.322 102.359C143.496 101.793 143.496 101.187 143.322 100.621C143.122 100.282 142.841 99.9981 142.504 99.7945C142.167 99.5909 141.785 99.4738 141.393 99.4538L140.416 99.2394L138.344 105.289ZM141.083 96.6673L142.059 96.8817C142.797 97.1017 143.592 97.0248 144.274 96.6673C144.88 96.155 145.305 95.4623 145.489 94.6907C145.54 94.543 145.579 94.3917 145.608 94.2382C145.686 93.9827 145.706 93.7127 145.664 93.4487C145.623 93.1846 145.522 92.9333 145.37 92.7139C144.789 92.1793 144.057 91.8381 143.274 91.7376L142.702 91.6184L141.083 96.6673Z" fill="white"/>
<path d="M147.204 109.861L153.229 90.9516L157.993 91.9519C158.712 92.0999 159.421 92.2988 160.112 92.5473C160.679 92.7461 161.21 93.0356 161.684 93.4046C162.112 93.7182 162.462 94.1256 162.708 94.5954C162.937 95.0955 163.051 95.6409 163.041 96.1911C163.098 96.586 163.098 96.9869 163.041 97.3818C163.041 97.6676 162.899 97.9772 162.803 98.2868C162.503 99.3222 161.983 100.281 161.279 101.097C160.639 101.769 159.807 102.226 158.898 102.407V112.243L155.063 111.457L155.397 102.407L153.992 102.121L151.086 110.766L147.204 109.861ZM154.515 99.811L155.468 100.001C156.221 100.229 157.034 100.152 157.731 99.7872C158.375 99.2868 158.829 98.5808 159.017 97.7867C159.017 97.5485 159.16 97.3342 159.207 97.1198C159.355 96.6306 159.355 96.1087 159.207 95.6194C159.026 95.3206 158.775 95.0696 158.477 94.8873C158.179 94.705 157.841 94.5968 157.492 94.5716L156.325 94.3335L154.515 99.811Z" fill="white"/>
<path d="M159.803 112.576L169.662 94.4525L173.854 95.3337L171.591 115.029L168.019 114.267L168.638 109.909L165.518 109.266L163.447 113.338L159.803 112.576ZM166.662 106.98L169.043 107.456L170.282 99.6443L166.662 106.98Z" fill="white"/>
<path d="M173.52 115.41L179.545 96.5007L182.237 97.0722L183.427 107.956L186.619 97.9772L189.834 98.6441L183.785 117.554L181.236 117.006L180.188 105.503L176.807 116.101L173.52 115.41Z" fill="white"/>
<path d="M186.666 118.149L192.691 99.2394L197.454 100.216C198.47 100.396 199.456 100.717 200.384 101.168C201.046 101.498 201.6 102.01 201.979 102.645C202.294 103.28 202.442 103.985 202.408 104.693C202.394 105.126 202.338 105.557 202.241 105.979C202.139 106.47 202.012 106.955 201.86 107.432L199.669 114.267C199.324 115.486 198.759 116.632 198.002 117.649C197.344 118.433 196.45 118.984 195.454 119.221C194.161 119.515 192.818 119.515 191.524 119.221L186.666 118.149ZM191.429 116.315L192.286 116.482C192.571 116.514 192.859 116.514 193.144 116.482H193.787C193.982 116.444 194.163 116.353 194.311 116.22C194.463 116.103 194.599 115.967 194.716 115.815C194.871 115.645 194.985 115.441 195.049 115.22C195.156 114.995 195.252 114.764 195.335 114.529C195.458 114.242 195.561 113.948 195.644 113.648L198.026 106.194C198.026 105.789 198.264 105.408 198.336 105.074C198.407 104.741 198.336 104.669 198.336 104.503C198.366 104.31 198.352 104.114 198.295 103.928C198.237 103.742 198.137 103.572 198.002 103.431C197.568 103.111 197.06 102.906 196.526 102.836L195.716 102.669L191.429 116.315Z" fill="white"/>
<path d="M116.268 97.9534C115.937 98.1503 115.586 98.3101 115.22 98.4297C115.399 100.436 114.97 102.449 113.989 104.208C113.008 105.966 111.52 107.388 109.719 108.289C108.856 108.697 107.965 109.039 107.051 109.313L107.742 110.242C108.554 109.973 109.349 109.654 110.123 109.29C112.199 108.275 113.904 106.636 115.002 104.603C116.099 102.57 116.534 100.245 116.244 97.9534H116.268Z" fill="white"/>
<path d="M151.205 75.8049C151.959 75.0853 152.915 74.6131 153.945 74.4513C154.975 74.2896 156.03 74.4461 156.968 74.8999C158.349 75.4953 158.421 76.9718 158.635 79.1629C158.874 80.2726 158.8 81.4271 158.421 82.4971C156.682 83.7831 156.611 78.8533 156.325 77.5911C156.325 77.5911 157.016 82.8066 156.087 83.2591C154.372 84.0451 154.444 79.2344 154.229 78.0198C154.542 79.1851 154.591 80.4055 154.372 81.5921C154.372 82.5209 153.634 82.3542 153.467 82.2351C152.586 81.7111 152.586 77.7577 152.586 77.7577C152.586 78.4722 153.134 81.0443 152.015 80.5204C151.276 80.1631 151.229 79.0676 151.086 78.4723C150.807 77.5973 150.849 76.6515 151.205 75.8049Z" fill="#F88667"/>
<path d="M226.272 98.7155C224.462 98.7155 222.295 99.0013 220.461 99.0013C219.603 99.0013 218.746 98.8583 217.913 98.8107C217.079 98.7631 216.293 98.6202 215.983 99.1918C215.674 99.7633 216.722 100.073 217.127 100.168C217.531 100.263 218.984 100.168 219.103 101.026C219.222 101.883 217.079 102.502 216.222 102.883C215.364 103.264 213.316 103.979 214.697 104.741C215.626 105.265 217.579 104.074 218.365 103.764C217.361 104.046 216.393 104.445 215.483 104.955C214.959 105.265 213.888 105.693 213.888 106.289C213.888 106.884 215.864 106.646 216.269 106.432C217.052 106.14 217.79 105.739 218.46 105.241C217.627 105.67 214.602 106.956 215.602 108.004C216.198 108.647 218.579 106.837 219.508 106.456C218.984 106.932 217.436 107.194 217.555 108.194C217.555 108.718 218.508 108.313 218.937 108.075C219.365 107.837 220.056 107.289 220.651 107.003C221.103 106.754 221.533 106.467 221.937 106.146C223.002 105.613 224.001 104.958 224.914 104.193C225.717 103.268 226.576 102.393 227.486 101.573C225.819 100.93 227.582 99.6443 226.272 98.7155Z" fill="#F88667"/>
<path d="M223.652 98.2391L226.177 104.122C226.177 104.122 252.374 95.6194 251.159 88.7368C250.088 82.6876 234.822 62.5396 231.511 61.7299C227.058 60.7535 225.248 71.399 227.82 73.9711C233.226 79.401 240.942 87.0696 240.299 88.2604C239.656 89.4512 223.652 98.2391 223.652 98.2391Z" fill="#FD425F"/>
<path d="M84.6168 96.9769C84.8311 97.6914 86.2601 98.8822 85.617 99.7395C85.2836 100.168 84.0214 99.0489 83.7356 98.6202C82.5218 96.3856 81.4635 94.07 80.5681 91.6899C80.3062 90.6182 80.068 89.5465 79.7822 88.5462C80.9407 88.0005 82.0218 87.3038 82.9973 86.4743C84.4501 87.3554 85.9743 88.4986 87.4032 89.3083C88.1653 89.7608 89.0227 90.0942 89.7848 90.4753C90.5469 90.8563 91.3566 91.1183 91.3328 91.8328C91.309 92.5472 90.2134 92.2376 89.7848 92.1185C89.3561 91.9995 88.0939 91.1898 87.5699 91.8566C87.046 92.5234 88.6416 94.2382 89.2132 95.0479C89.7848 95.8576 91.7853 98.0725 90.1182 98.0487C89.1141 97.2854 88.1814 96.4325 87.3318 95.5004C87.3318 95.5004 88.7369 97.2151 88.7845 97.3104C89.1179 97.882 90.1182 99.0727 89.7372 99.5728C88.9036 100.645 86.7602 97.358 86.4268 96.9293L87.2365 98.2153C87.9272 99.1918 88.3558 100.002 87.6414 100.216C86.9269 100.43 85.2598 97.9534 84.6168 96.9769Z" fill="#F88667"/>
<path d="M85.0457 86.7124L78.9965 90.4515C78.9965 90.4515 65.6836 67.3027 65.4454 60.6344C65.2549 55.252 66.3504 48.5837 71.5898 36.8188C74.924 29.2693 78.544 26.2448 80.0444 26.8401C81.1161 27.2688 87.1891 29.9599 84.1883 39.2242C83.1404 42.4631 76.353 56.2285 76.2339 57.5622C76.1148 58.8959 85.0457 86.7124 85.0457 86.7124Z" fill="#01C7E2"/>
<path d="M117.22 89.5465C117.967 90.2783 118.924 90.7588 119.957 90.921C120.99 91.0832 122.048 90.9191 122.983 90.4515C124.365 89.8799 124.436 88.3796 124.651 86.2123C124.891 85.1027 124.817 83.9479 124.436 82.8782C122.698 81.5921 122.626 86.5219 122.34 87.7603C122.34 87.7603 123.031 82.5686 122.102 82.1161C120.388 81.3301 120.459 86.1409 120.245 87.3317C120.557 86.1743 120.606 84.9618 120.388 83.7831C120.388 82.8305 119.649 83.021 119.483 83.1163C118.601 83.664 118.601 87.5936 118.601 87.5936C118.601 86.903 119.149 84.3309 118.03 84.8548C117.292 85.1883 117.244 86.3075 117.101 86.9029C116.81 87.7682 116.853 88.7108 117.22 89.5465Z" fill="#F88667"/>
<path d="M114.386 3.1675C114.386 3.1675 116.982 6.90648 110.933 9.43093C104.883 11.9554 96.167 5.33465 96.167 5.33465C96.167 5.33465 96.4051 2.0481 101.216 0.571538C104.836 -0.476347 108.218 -0.333453 110.051 1.76232C113.195 5.38228 114.386 3.1675 114.386 3.1675Z" fill="#110239"/>
</g>
<defs>
<clipPath id="clip0_138_153">
<rect width="258.756" height="188" fill="white"/>
</clipPath>
</defs>
</svg>
