<svg width="220" height="188" viewBox="0 0 220 188" fill="none" xmlns="http://www.w3.org/2000/svg">
<path d="M134.419 183.449H100.487L103.288 142.54H131.642L134.419 183.449Z" fill="#110239"/>
<path d="M138.877 176.892C138.667 176.596 138.391 176.354 138.071 176.184C137.751 176.014 137.396 175.921 137.033 175.912H97.8977C97.5324 175.905 97.1713 175.991 96.8487 176.162C96.5261 176.334 96.2526 176.585 96.0541 176.892L90.92 184.523C90.7319 184.863 90.6318 185.245 90.629 185.635C90.6261 186.024 90.7207 186.407 90.9039 186.75C91.0871 187.094 91.3531 187.386 91.6779 187.6C92.0027 187.814 92.3759 187.943 92.7636 187.977H142.144C142.532 187.943 142.905 187.814 143.23 187.6C143.554 187.386 143.821 187.094 144.004 186.75C144.187 186.407 144.281 186.024 144.279 185.635C144.276 185.245 144.176 184.863 143.988 184.523L138.877 176.892Z" fill="#110239"/>
<path d="M200.532 29.2408H34.3982C29.1268 29.2408 24.8535 33.5141 24.8535 38.7855V143.87C24.8535 149.142 29.1268 153.415 34.3982 153.415H200.532C205.803 153.415 210.077 149.142 210.077 143.87V38.7855C210.077 33.5141 205.803 29.2408 200.532 29.2408Z" fill="#110239"/>
<path d="M201.536 37.4787H33.3716V143.917H201.536V37.4787Z" fill="#FEFEFE"/>
<path d="M197.335 49.077H37.5723V143.917H197.335V49.077Z" fill="#E5E6ED"/>
<path d="M197.335 49.077H37.5723V56.9181H197.335V49.077Z" fill="#B3EEF6"/>
<path d="M189.587 82.495H139.974V89.0526H189.587V82.495Z" fill="#FEFEFE"/>
<path d="M189.587 94.07H139.974V100.628H189.587V94.07Z" fill="#FEFEFE"/>
<path d="M189.587 105.668H139.974V112.226H189.587V105.668Z" fill="#FEFEFE"/>
<path d="M101.934 64.7825H52.3203V71.3401H101.934V64.7825Z" fill="#FEFEFE"/>
<path d="M101.934 76.3575H52.3203V82.9151H101.934V76.3575Z" fill="#FEFEFE"/>
<path d="M99.6006 78.3878H5.92712C4.3591 78.394 2.85742 79.0212 1.75084 80.1321C0.644255 81.2431 0.0229371 82.7473 0.0229492 84.3153V114.536C0.0229492 115.315 0.1763 116.085 0.474186 116.805C0.772071 117.524 1.20868 118.177 1.7591 118.728C2.30952 119.278 2.96296 119.715 3.68212 120.013C4.40128 120.31 5.17207 120.464 5.95048 120.464H64.6422L86.9987 139.483L76.3806 120.464H99.7172C101.291 120.464 102.802 119.84 103.917 118.729C105.032 117.618 105.662 116.11 105.668 114.536V84.3153C105.665 83.5259 105.505 82.7449 105.197 82.0179C104.89 81.2909 104.44 80.6324 103.876 80.0808C103.311 79.5291 102.642 79.0954 101.908 78.8047C101.174 78.514 100.39 78.3723 99.6006 78.3878Z" fill="#FD425F"/>
<path d="M98.4343 86.5323H35.3086V90.1728H98.4343V86.5323Z" fill="white"/>
<path d="M98.4343 93.9533H35.3086V97.5938H98.4343V93.9533Z" fill="white"/>
<path d="M98.4343 101.374H35.3086V105.015H98.4343V101.374Z" fill="white"/>
<path d="M77.1979 108.772H35.3086V112.413H77.1979V108.772Z" fill="white"/>
<path d="M30.3606 98.784C30.3606 101.193 29.6461 103.549 28.3076 105.552C26.969 107.555 25.0665 109.116 22.8406 110.038C20.6147 110.96 18.1653 111.202 15.8023 110.732C13.4392 110.262 11.2687 109.101 9.56501 107.398C7.86136 105.694 6.70119 103.524 6.23116 101.161C5.76112 98.7975 6.00231 96.3482 6.92432 94.1223C7.84633 91.8964 9.4077 89.9938 11.411 88.6553C13.4143 87.3167 15.7695 86.6023 18.1788 86.6023C19.7794 86.5992 21.3649 86.9122 22.8442 87.5233C24.3236 88.1344 25.6677 89.0316 26.7994 90.1634C27.9312 91.2952 28.8285 92.6393 29.4396 94.1187C30.0507 95.598 30.3636 97.1834 30.3606 98.784Z" fill="#110239"/>
<path d="M18.1092 98.714C20.0038 98.714 21.5397 97.1259 21.5397 95.1668C21.5397 93.2078 20.0038 91.6197 18.1092 91.6197C16.2146 91.6197 14.6787 93.2078 14.6787 95.1668C14.6787 97.1259 16.2146 98.714 18.1092 98.714Z" fill="white"/>
<path d="M18.1791 99.2507C17.3762 99.2507 16.5812 99.4089 15.8393 99.7161C15.0975 100.023 14.4235 100.474 13.8557 101.042C13.288 101.609 12.8376 102.283 12.5304 103.025C12.2231 103.767 12.0649 104.562 12.0649 105.365V109.239C13.9215 110.368 16.0527 110.965 18.2258 110.965C20.3988 110.965 22.5301 110.368 24.3867 109.239V105.365C24.39 104.553 24.2309 103.749 23.9189 103C23.607 102.25 23.1483 101.571 22.57 101.001C21.9917 100.431 21.3054 99.9832 20.5513 99.6826C19.7973 99.382 18.9907 99.2352 18.1791 99.2507Z" fill="white"/>
<path d="M213.274 1.78353e-10H119.577C118.799 1.78286e-10 118.028 0.153315 117.309 0.4512C116.589 0.749085 115.936 1.18569 115.386 1.73611C114.835 2.28653 114.398 2.93998 114.101 3.65913C113.803 4.37829 113.649 5.14908 113.649 5.92749V36.2418C113.649 37.0202 113.803 37.791 114.101 38.5102C114.398 39.2293 114.835 39.8828 115.386 40.4332C115.936 40.9836 116.589 41.4202 117.309 41.7181C118.028 42.016 118.799 42.1693 119.577 42.1693H146.717L139.436 61.1887L158.456 42.1693H213.274C214.846 42.1693 216.353 41.5448 217.465 40.4332C218.577 39.3216 219.201 37.8139 219.201 36.2418V5.90417C219.195 4.33614 218.568 2.83443 217.457 1.72785C216.346 0.621269 214.842 -1.21522e-05 213.274 1.78353e-10Z" fill="#D0D1DE"/>
<path d="M212.084 8.14449H148.958V11.785H212.084V8.14449Z" fill="white"/>
<path d="M212.084 15.5655H148.958V19.2061H212.084V15.5655Z" fill="white"/>
<path d="M212.084 22.9866H148.958V26.6271H212.084V22.9866Z" fill="white"/>
<path d="M190.847 30.3843H148.958V34.0248H190.847V30.3843Z" fill="white"/>
<path d="M143.941 20.3962C143.941 22.8055 143.226 25.1607 141.888 27.164C140.549 29.1673 138.647 30.7287 136.421 31.6507C134.195 32.5727 131.745 32.8139 129.382 32.3439C127.019 31.8739 124.849 30.7136 123.145 29.01C121.441 27.3063 120.281 25.1358 119.811 22.7727C119.341 20.4097 119.582 17.9604 120.504 15.7345C121.426 13.5085 122.988 11.606 124.991 10.2675C126.994 8.92895 129.35 8.2145 131.759 8.2145C133.36 8.21142 134.945 8.52439 136.424 9.13549C137.904 9.74659 139.248 10.6438 140.38 11.7756C141.511 12.9074 142.409 14.2515 143.02 15.7308C143.631 17.2102 143.944 18.7956 143.941 20.3962Z" fill="#110239"/>
<path d="M135.213 16.7557C135.199 17.4357 134.985 18.0964 134.597 18.6551C134.209 19.2138 133.665 19.6456 133.033 19.8963C132.401 20.147 131.708 20.2055 131.043 20.0644C130.378 19.9233 129.769 19.589 129.293 19.1033C128.817 18.6176 128.495 18.0022 128.367 17.3342C128.239 16.6662 128.312 15.9754 128.575 15.3483C128.838 14.7213 129.281 14.186 129.847 13.8095C130.414 13.433 131.079 13.232 131.759 13.2319C132.683 13.2442 133.565 13.6216 134.212 14.2818C134.859 14.942 135.219 15.8313 135.213 16.7557Z" fill="white"/>
<path d="M131.829 20.8396H131.712C130.09 20.8396 128.535 21.4838 127.389 22.6304C126.242 23.7771 125.598 25.3322 125.598 26.9538V30.8277C127.459 31.9565 129.594 32.5534 131.77 32.5534C133.947 32.5534 136.082 31.9565 137.943 30.8277V26.9071C137.93 25.2937 137.281 23.7505 136.136 22.6139C134.99 21.4774 133.442 20.8396 131.829 20.8396Z" fill="white"/>
<path d="M187.02 122.844H149.845C146.829 122.844 144.384 125.289 144.384 128.305V132.645C144.384 135.661 146.829 138.106 149.845 138.106H187.02C190.036 138.106 192.481 135.661 192.481 132.645V128.305C192.481 125.289 190.036 122.844 187.02 122.844Z" fill="#FD425F"/>
<path d="M163.613 128.585C163.617 128.96 163.491 129.325 163.257 129.618C163.024 129.911 162.696 130.115 162.33 130.195C162.766 130.278 163.159 130.514 163.437 130.861C163.715 131.207 163.86 131.641 163.847 132.085C163.847 133.346 162.727 134.162 160.976 134.162H157.312V126.718H160.836C162.54 126.718 163.613 127.441 163.613 128.585ZM161.606 128.935C161.606 128.492 161.28 128.212 160.743 128.235H159.249V129.588H160.743C161.28 129.588 161.606 129.402 161.606 128.935ZM161.84 131.829C161.84 131.385 161.42 131.082 160.743 131.082H159.249V132.645H160.743C161.42 132.645 161.84 132.342 161.84 131.922V131.829Z" fill="white"/>
<path d="M168.234 132.575C168.434 132.583 168.634 132.548 168.819 132.472C169.004 132.396 169.171 132.281 169.309 132.135C169.446 131.989 169.55 131.815 169.614 131.626C169.678 131.436 169.701 131.235 169.681 131.035V126.718H171.618V131.035C171.641 131.477 171.567 131.919 171.403 132.33C171.238 132.741 170.986 133.111 170.665 133.415C170.343 133.719 169.959 133.95 169.539 134.091C169.12 134.232 168.674 134.28 168.234 134.232C167.79 134.283 167.341 134.237 166.916 134.098C166.491 133.959 166.102 133.73 165.774 133.426C165.446 133.123 165.187 132.752 165.016 132.339C164.844 131.927 164.764 131.482 164.78 131.035V126.718H166.717V131.035C166.704 131.239 166.734 131.443 166.805 131.635C166.876 131.826 166.987 132 167.13 132.146C167.273 132.291 167.446 132.405 167.636 132.479C167.826 132.553 168.03 132.586 168.234 132.575Z" fill="white"/>
<path d="M176.846 131.782V134.116H174.909V131.782L172.155 126.671H174.116L175.866 129.868L177.593 126.671H179.53L176.846 131.782Z" fill="white"/>
<path d="M123.124 74.3972C120.647 74.8607 118.118 74.9784 115.609 74.7473C114.711 74.6555 113.826 74.4597 112.972 74.1638C113.089 77.291 113.112 84.6187 110.896 87.6524C110.896 87.6524 111.689 91.2696 118.2 91.3863C124.711 91.503 125.458 86.579 125.458 86.579C124.293 82.6022 123.511 78.523 123.124 74.3972Z" fill="#F88667"/>
<path d="M110.919 87.7691C110.913 87.8545 110.913 87.9404 110.919 88.0258C110.981 88.1546 111.051 88.2793 111.129 88.3992L111.456 88.8659C111.785 89.271 112.179 89.6181 112.623 89.8927C112.879 90.0561 113.183 90.1961 113.509 90.3595H113.626C114 90.5129 114.381 90.6453 114.77 90.7562C114.963 89.0491 115.634 87.4313 116.707 86.0889C118.511 83.7786 121.135 82.2499 124.034 81.8183C123.411 79.2914 123.013 76.7143 122.844 74.1172C120.368 74.5806 117.839 74.6984 115.33 74.4673C114.431 74.3755 113.546 74.1797 112.693 73.8838C112.809 77.0109 112.833 84.3386 110.616 87.3724L110.919 87.7691Z" fill="#E45940"/>
<path d="M114.093 56.848C114.093 56.848 124.781 53.6976 126.485 56.2646C128.188 58.8316 127.861 63.0322 128.561 64.8758C129.262 66.7194 131.922 68.6564 132.202 69.3799C132.482 70.1033 130.428 71.5268 130.148 72.0868C129.868 72.6469 128.795 78.7145 126.928 80.0446C125.061 81.3748 115.143 77.851 112.693 73.0437C110.242 68.2363 111.246 58.3882 114.093 56.848Z" fill="#F88667"/>
<path d="M119.041 58.715C119.171 60.6182 118.784 62.5213 117.92 64.2224C117.267 65.5059 120.464 68.8897 119.577 70.43C118.971 71.4568 118.107 71.2 117.244 69.1698C116.876 68.4779 116.258 67.9522 115.517 67.6996C112.903 66.5795 112.296 70.5466 114.63 71.7368C116.287 72.5536 115.307 76.7075 115.307 76.7075C113.533 78.061 107.722 76.4275 108.306 72.1802C108.726 69.4732 108.889 68.4463 107.956 67.7929C107.331 67.4475 106.794 66.9635 106.386 66.3781C105.978 65.7927 105.709 65.1214 105.601 64.416C105.493 63.7105 105.548 62.9896 105.762 62.3088C105.976 61.6279 106.343 61.0053 106.835 60.4886C110.709 56.6147 107.162 55.3779 111.666 54.281C116.17 53.1842 119.951 55.8913 119.041 58.715Z" fill="#110239"/>
<path d="M111.012 56.428C111.246 55.4478 113.019 54.0943 113.906 53.5342C115.313 52.5464 116.898 51.841 118.573 51.4573C120.252 51.0305 122.004 50.9748 123.707 51.294C125.178 51.574 126.391 52.2041 127.885 52.3908C128.52 52.5245 129.176 52.5294 129.813 52.4051C130.451 52.2808 131.057 52.0299 131.595 51.6673C131.859 52.775 131.922 53.9211 131.782 55.0511C131.401 56.4043 130.75 57.6664 129.868 58.7616C128.416 60.494 126.466 61.7385 124.283 62.327C122.101 62.9155 119.79 62.8195 117.663 62.0521C115.736 61.5555 114.043 60.3995 112.879 58.785C112.369 57.9167 111.741 57.1234 111.012 56.428Z" fill="#110239"/>
<path d="M168.047 63.4057L178.362 86.2989C178.362 86.2989 175.352 89.6827 174.348 88.9359C173.345 88.1891 157.849 69.6132 156.356 68.6331C154.862 67.6529 168.047 63.4057 168.047 63.4057Z" fill="#110239"/>
<path d="M142.377 66.2527C142.377 66.2527 142.377 72.8336 146.438 74.3505C146.438 74.3505 167.067 65.786 171.221 65.0159C175.375 64.2458 190.474 64.0824 190.474 64.0824L175.258 36.8952C175.258 36.8952 167.954 51.4806 161.256 56.2646C155.255 60.1182 148.939 63.4594 142.377 66.2527Z" fill="#FD425F"/>
<path d="M155.749 70.57C157.383 69.9166 159.087 69.2398 160.767 68.6097C158.575 65.9018 157.085 62.6958 156.426 59.2751C154.863 60.1619 153.252 61.0253 151.759 61.8188C152.321 65.0283 153.695 68.0408 155.749 70.57Z" fill="#110239"/>
<path d="M196.052 43.8496C200.346 54.2111 198.829 64.6892 192.645 67.1862C186.46 69.6833 177.989 63.429 173.695 53.1842C169.401 42.9395 170.918 32.3213 177.102 29.8476C183.287 27.3739 191.804 33.4648 196.052 43.8496Z" fill="#01C7E2"/>
<path d="M195.258 44.1762C198.922 52.9975 197.592 61.9121 192.388 64.0824C187.184 66.2527 179.903 60.8853 176.262 52.064C172.622 43.2428 173.928 34.3282 179.132 32.1579C184.337 29.9876 191.618 35.3783 195.258 44.1762Z" fill="#110239"/>
<path d="M166.6 79.8814C166.11 79.578 166.25 77.7343 166.344 77.2676C166.437 76.8009 167.02 75.5407 166.507 74.8173C165.574 73.5571 164.29 76.9643 164.173 77.4543C163.831 78.1828 163.749 79.0063 163.94 79.788C164.382 80.9005 165.049 81.9095 165.9 82.7517C165.81 83.1148 165.701 83.4732 165.574 83.8253C166.431 84.1937 167.265 84.6145 168.071 85.0854C169.051 85.6688 169.004 86.3689 169.938 87.0224L170.871 84.8754C169.573 83.107 168.146 81.4377 166.6 79.8814Z" fill="#F88667"/>
<path d="M173.205 72.3902C172.318 71.4334 170.871 71.8068 169.844 72.577C168.817 73.3471 166.787 74.9106 167.51 76.3341C168.234 77.7576 170.941 74.9806 170.941 74.9806C169.867 75.9141 167.86 76.6375 168.374 77.571C168.887 78.5044 171.478 77.1276 172.038 76.7309C171.478 76.8709 168.631 78.5978 169.704 79.5079C170.474 80.1147 172.574 78.8311 173.205 78.3878C172.364 78.6445 171.221 79.3912 171.431 80.558C171.804 81.1881 173.065 80.7681 173.765 80.558C174.838 80.138 175.842 79.9747 175.935 78.6445C175.958 78.4039 175.958 78.1616 175.935 77.921C175.831 76.9015 175.513 75.9154 175.002 75.0273C174.519 74.0744 173.915 73.188 173.205 72.3902Z" fill="#F88667"/>
<path d="M64.596 79.998C64.1103 79.1947 63.7113 78.342 63.4058 77.4544C63.1491 76.6842 62.9623 75.9141 62.7056 75.1207C62.372 74.3876 62.1971 73.5924 62.1923 72.787C62.2325 72.3208 62.3185 71.8596 62.449 71.4102C62.6123 70.8268 62.8223 70.2666 62.939 69.6832C63.0557 69.0998 62.939 68.6331 63.1024 68.1197C63.2492 67.1127 63.5565 66.1357 64.0125 65.226C64.3946 64.5767 64.8402 63.967 65.3427 63.4057C65.5746 63.1039 65.8323 62.8228 66.1128 62.5656C66.434 62.3455 66.6851 62.0376 66.8363 61.6788C66.8793 61.5642 66.8976 61.4418 66.8897 61.3196C66.8819 61.1974 66.8481 61.0784 66.7908 60.9702C66.7334 60.8621 66.6536 60.7674 66.5569 60.6924C66.4601 60.6174 66.3485 60.5639 66.2295 60.5353C65.702 60.4305 65.1564 60.4635 64.6455 60.6311C64.1345 60.7987 63.6753 61.0952 63.3124 61.4921C62.5189 62.5656 62.1689 63.8257 61.2821 64.8992C58.6451 68.0497 56.1714 64.3392 53.0676 63.009C52.0099 62.4736 51.009 61.8325 50.0805 61.0953C49.5438 60.6753 47.1634 58.435 46.0433 59.0184C44.9231 59.6018 46.8367 61.3521 47.6069 61.7955C47.9336 61.9822 50.5706 64.1292 50.9206 64.1292C49.3062 63.462 47.8092 62.5401 46.4867 61.3987C45.3198 60.4653 44.153 59.5785 43.5462 60.0919C41.5626 61.7021 49.287 65.3893 49.8704 65.716C49.2404 65.716 43.1962 61.5154 42.6361 63.079C42.3094 63.9424 43.5696 64.8059 44.5964 65.4126C45.6232 66.0194 48.0269 66.6028 48.5169 66.9762C47.6068 67.2796 43.6162 64.6425 43.6162 66.2294C43.6162 67.3029 46.09 68.1197 47.0234 68.3997C47.9569 68.6798 50.8273 70.6167 51.6908 71.0601C54.6779 72.4837 55.9147 72.2969 57.0815 74.0939C57.8283 75.2374 59.1585 81.2582 60.2553 83.4285L64.596 79.998Z" fill="#F88667"/>
<path d="M164.944 82.9151C162.283 90.6629 156.589 104.361 154.722 103.405C151.198 101.584 143.614 95.4002 137.943 91.5963C135.879 90.1228 133.675 88.8565 131.362 87.8158L135.306 106.485C135.306 106.485 153.976 120.674 157.896 118.503C160.977 116.8 168.561 95.1668 171.245 86.2522L164.944 82.9151Z" fill="#01C7E2"/>
<path d="M146.437 109.636C142.609 105.266 138.493 101.157 134.116 97.3371L134.746 106.205C134.746 106.205 153.579 120.37 157.756 118.62C153.557 116.206 149.742 113.177 146.437 109.636Z" fill="#00A7CC"/>
<path d="M99.6478 88.8426C99.6478 88.8426 76.6611 98.1772 74.1641 97.4771C71.667 96.777 63.3125 73.1137 63.3125 73.1137L56.3115 75.9375C56.3115 75.9375 63.7559 110.126 68.5399 111.736C73.3239 113.346 101.841 105.085 101.841 105.085C102.036 99.5856 101.294 94.0932 99.6478 88.8426Z" fill="#01C7E2"/>
<path d="M80.0213 109.589C78.0144 110.312 75.9374 111.036 73.8838 111.643C83.3298 109.963 92.6781 107.774 101.888 105.085C101.982 102.182 101.818 99.2772 101.398 96.4037C95.3994 102.407 88.0785 106.923 80.0213 109.589Z" fill="#00A7CC"/>
<path d="M184.383 50.5005C184.003 49.0204 183.055 47.7497 181.745 46.9635C180.434 46.1773 178.867 45.9389 177.382 46.2999C176.445 46.6213 175.63 47.2244 175.048 48.0268C175.379 49.4072 175.824 50.7577 176.379 52.0641C177.276 54.2761 178.47 56.3564 179.926 58.2482C180.368 58.2336 180.808 58.1631 181.233 58.0382C182.64 57.4444 183.758 56.3222 184.347 54.9128C184.936 53.5034 184.949 51.9192 184.383 50.5005Z" fill="#D0D1DE"/>
<path d="M99.6709 116.8C98.8775 124.781 98.2474 141.56 97.7573 143.894H135.376C135.985 131.454 135.931 118.99 135.213 106.555C134.723 100.186 133.397 93.9088 131.269 87.8858C131.269 87.8858 128.445 86.999 125.108 85.6922C125.108 85.6922 118.107 89.9394 111.713 85.6922C111.713 85.6922 100.044 88.4459 98.6208 89.1227C97.1972 89.7994 100.558 108.282 99.6709 116.8Z" fill="#01C7E2"/>
<path d="M109.706 127.721C109.678 123.992 108.941 120.301 107.535 116.847C107.204 116.063 106.977 115.239 106.859 114.396C106.669 112.461 106.123 110.578 105.248 108.842L102.705 105.015C102.238 104.385 101.748 103.731 101.211 102.938C100.346 101.628 99.5663 100.264 98.8774 98.854C99.551 104.811 99.8162 110.807 99.6709 116.8C98.8775 124.781 98.2474 141.56 97.7573 143.894H115.306C113.035 140.639 111.367 137.003 110.382 133.159C109.9 131.388 109.672 129.557 109.706 127.721Z" fill="#00A7CC"/>
</svg>
